<?xml version="1.0" encoding="UTF-8" standalone="no"?>
<svg
   version="1.1"
   id="Layer_1"
   x="0px"
   y="0px"
   width="100%"
   viewBox="0 0 496 496"
   enable-background="new 0 0 496 496"
   xml:space="preserve"
   sodipodi:docname="logo-bazar.svg"
   inkscape:version="1.1.2 (b8e25be833, 2022-02-05)"
   xmlns:inkscape="http://www.inkscape.org/namespaces/inkscape"
   xmlns:sodipodi="http://sodipodi.sourceforge.net/DTD/sodipodi-0.dtd"
   xmlns="http://www.w3.org/2000/svg"
   xmlns:svg="http://www.w3.org/2000/svg"><defs
   id="defs193" /><sodipodi:namedview
   id="namedview191"
   pagecolor="#ffffff"
   bordercolor="#666666"
   borderopacity="1.0"
   inkscape:pageshadow="2"
   inkscape:pageopacity="0.0"
   inkscape:pagecheckerboard="0"
   showgrid="false"
   inkscape:zoom="0.5"
   inkscape:cx="-971"
   inkscape:cy="572"
   inkscape:window-width="1680"
   inkscape:window-height="987"
   inkscape:window-x="-8"
   inkscape:window-y="-8"
   inkscape:window-maximized="1"
   inkscape:current-layer="Layer_1" />












































<path
   style="fill:#0088aa;fill-opacity:1;stroke-width:0.673913"
   d=""
   id="path30072" /><path
   fill="#000000"
   opacity="1"
   stroke="none"
   d="m -1984.5824,847.40448 c -20.3593,-0.0126 -38.6139,0.10028 -56.8661,-0.0543 -60.0563,-0.50945 -102.686,-41.204 -103.432,-101.53272 -1.0851,-87.74444 -0.6198,-175.51168 -0.3301,-263.26746 0.092,-27.84701 10.6962,-51.79021 30.2755,-71.849 65.2011,-66.79781 131.181,-132.87141 194.9917,-200.97529 32.6511,-34.84787 97.1872,-33.43284 128.2821,-0.21488 68.5773,73.25939 139.5486,144.27785 209.5188,216.23421 2.4403,2.50963 4.8064,5.13323 6.8947,7.93636 12.1423,16.29854 11.6962,33.28626 -1.0836,45.56108 -14.0165,13.46279 -30.9177,13.493 -46.6505,-2.33949 -47.4932,-47.79384 -94.3216,-96.2486 -141.3962,-144.45831 -24.5199,-25.11121 -49.2882,-49.9881 -73.4026,-75.48319 -12.272,-12.97458 -22.9178,-13.24327 -35.4202,-0.29957 -64.856,67.14473 -130.0111,134.00069 -195.0751,200.94432 -8.2364,8.47429 -11.9373,18.33428 -11.9013,30.37151 0.2539,84.94813 -0.053,169.89799 0.2489,254.84583 0.093,26.1994 14.8458,39.37143 43.5741,39.40307 118.6475,0.13103 237.2954,-5.1e-4 355.9431,-0.0337 7.6148,-0.002 15.2297,-2.5e-4 27.8472,-2.5e-4 -33.7229,-33.24392 -65.0301,-63.99324 -96.1911,-94.89004 -10.1228,-10.03683 -17.7855,-1.69379 -26.0195,2.94024 -77.034,43.35423 -172.5556,20.40964 -218.3732,-52.46693 -34.6076,-55.04616 -32.6215,-127.54946 4.9402,-180.3533 38.307,-53.85145 103.4846,-77.60632 171.1515,-62.37824 59.1059,13.30137 109.9879,68.10434 119.1061,131.11548 5.4419,37.60659 0.6692,74.66145 -20.435,107.31043 -9.2344,14.28596 -6.7842,22.92824 4.7931,33.97207 29.4502,28.09324 57.8877,57.25664 86.4665,86.25197 22.3611,22.68728 24.3072,40.34678 -5.7228,48.65043 8.3456,35.77187 -8.7705,44.92187 -46.3411,44.97538 -101.0956,0.14409 -202.1915,0.0725 -305.3931,0.086 m 5.4632,-301.2024 c 0,3.50551 -0.096,7.01439 0.025,10.51589 1.7646,51.35577 36.4981,95.55272 87.5494,111.44614 47.7502,14.86585 101.654,-3.51495 132.4787,-45.17442 29.2466,-39.52677 30.7266,-97.39932 3.5344,-138.19884 -28.3501,-42.53682 -79.9695,-63.71722 -128.1873,-52.59775 -50.829,11.7216 -87.1216,53.74839 -95.4,114.00898 z"
   id="path102"
   sodipodi:nodetypes="csssssssssssssssscscssssssssscscccsssscc"
   style="stroke-width:4.2134"
   inkscape:export-filename="F:\Documentos\Projetos R\caixadeimoveis\themes\hugo-fresh\static\images\logos\logo-bazar.png"
   inkscape:export-xdpi="7.0599999"
   inkscape:export-ydpi="7.0599999" /><path
   fill="#000000"
   opacity="1"
   stroke="none"
   d="m -1449.4096,390.27888 c 23.0224,0.89186 43.9697,-1.31382 64.919,2.87123 23.2277,4.64026 46.4327,8.71197 55.2374,34.83999 8.9274,26.49126 2.1682,49.56878 -20.1412,69.3537 13.8679,11.87252 26.3124,23.71421 27.742,42.88241 3.2146,43.10647 -20.8988,72.42999 -65.9841,75.4826 -30.6939,2.07821 -61.6311,0.44434 -92.4565,0.76384 -11.2877,0.11714 -16.7939,-4.56109 -16.7846,-16.15422 0.052,-64.46161 0,-128.9238 -0.2296,-193.38489 -0.042,-11.33418 4.5589,-16.91867 16.1833,-16.61134 9.8014,0.25912 19.6168,-0.008 31.5144,-0.0434 m 57.7309,143.65014 c -7.2644,-7.48073 -16.4167,-9.96141 -26.4829,-9.90196 -11.5859,0.0683 -13.9577,7.89217 -12.9001,16.98322 1.0716,9.21298 -6.0761,22.08366 9.6973,25.74641 19.6939,4.57298 33.9839,-9.26215 29.6857,-32.82767 m -1.9092,-70.91194 c 3.0591,-10.0268 -1.4822,-16.40383 -10.6285,-19.01547 -7.851,-2.24161 -16.794,-4.49106 -23.64,1.96366 -5.5663,5.24821 -4.23,13.20105 -2.7964,19.72294 2.8139,12.80225 18.6093,12.67227 37.0649,-2.67113 z"
   id="path104"
   style="fill:#1a1a1a;stroke-width:4.2134"
   inkscape:export-filename="F:\Documentos\Projetos R\caixadeimoveis\themes\hugo-fresh\static\images\logos\logo-bazar.png"
   inkscape:export-xdpi="7.0599999"
   inkscape:export-ydpi="7.0599999" /><path
   fill="#000000"
   opacity="1"
   stroke="none"
   d="m -1229.8783,504.19311 c 11.0959,-1.66881 21.5426,2.9329 31.6542,-6.89503 -11.231,-15.89982 -25.914,-12.1528 -40.3752,-8.25287 -27.6826,7.46543 -31.4613,5.03383 -39.5989,-21.91252 -3.2215,-10.66736 0.1572,-15.91263 9.6356,-19.13934 32.5045,-11.06553 65.4601,-15.76587 98.8278,-4.58388 22.8406,7.65423 36.9336,28.80463 37.3713,55.62799 0.5034,30.85799 0.4171,61.73595 -0.1062,92.59352 -0.1416,8.34654 4.3412,21.07203 -7.7569,23.27142 -13.0623,2.37476 -27.8528,6.52307 -39.9394,-4.44126 -2.9926,-2.71474 -5.2079,-6.28631 -8.3684,-10.18999 -17.5504,12.48136 -35.3216,21.21785 -56.818,20.21148 -28.8539,-1.35081 -48.3452,-17.08724 -53.1459,-44.39455 -5.6474,-32.12349 6.7009,-54.82766 36.1459,-64.78562 9.8785,-3.3408 20.4154,-4.73481 32.4743,-7.10935 m 1.5591,65.22195 c 11.8951,4.98104 22.0642,2.79909 28.6032,-8.58207 3.0858,-5.37104 4.2567,-12.56555 -1.1359,-17.38125 -6.1972,-5.53414 -13.2628,-1.81666 -19.5411,0.87503 -10.2588,4.39825 -15.7234,11.3531 -7.9262,25.08829 z"
   id="path106"
   style="fill:#1a1a1a;stroke-width:4.2134"
   inkscape:export-filename="F:\Documentos\Projetos R\caixadeimoveis\themes\hugo-fresh\static\images\logos\logo-bazar.png"
   inkscape:export-xdpi="7.0599999"
   inkscape:export-ydpi="7.0599999" /><path
   fill="#000000"
   opacity="1"
   stroke="none"
   d="m -783.55957,609.45359 c -20.5127,10.24046 -39.40998,12.74525 -54.3764,-9.43128 -18.13158,13.72174 -37.46326,22.2423 -60.27938,20.26554 -27.75705,-2.40472 -45.99679,-19.34188 -50.45331,-47.68527 -4.29556,-27.32088 8.71235,-50.49447 34.48295,-60.15496 13.78638,-5.16803 28.09484,-8.30229 43.01867,-8.57448 7.30465,-0.13314 15.58719,2.47386 22.74669,-6.16551 -8.71816,-17.43279 -23.60563,-12.9207 -37.19773,-9.43288 -29.90167,7.67302 -32.1416,6.42712 -41.0966,-21.44416 -3.46274,-10.77767 0.12682,-16.02521 9.68341,-19.02916 30.43892,-9.56825 61.15593,-15.30189 92.77895,-5.76359 25.78371,7.77688 41.2876,26.90569 41.67333,54.08976 0.52668,37.12239 -0.21741,74.26278 -0.98058,113.32599 m -79.94266,-67.51775 c -3.21301,1.22884 -6.70402,2.00575 -9.5838,3.7766 -6.95464,4.27664 -12.04599,10.51619 -8.66878,18.82788 3.56445,8.77247 11.9123,8.32231 19.5766,6.30131 10.51476,-2.77254 16.91121,-10.26629 16.96881,-20.82803 0.0535,-9.78099 -8.27866,-9.15016 -18.29283,-8.07776 z"
   id="path108"
   style="fill:#1a1a1a;stroke-width:4.2134"
   inkscape:export-filename="F:\Documentos\Projetos R\caixadeimoveis\themes\hugo-fresh\static\images\logos\logo-bazar.png"
   inkscape:export-xdpi="7.0599999"
   inkscape:export-ydpi="7.0599999" /><path
   fill="#000000"
   opacity="1"
   stroke="none"
   d="m -1051.4367,501.42418 c -3.9575,-17.00562 -17.254,-10.36901 -26.809,-10.88498 -24.1439,-1.30355 -36.875,-21.97273 -25.8919,-43.38372 3.282,-6.3978 8.9381,-6.15486 14.3403,-6.18654 35.7129,-0.20983 71.4362,-0.65632 107.13736,-0.002 16.09743,0.29494 22.39347,28.18994 9.7161,47.37133 -11.55251,17.47964 -25.35844,33.45673 -37.82106,50.35429 -5.3129,7.20327 -12.0917,13.65462 -14.4143,24.16698 13.4008,8.46733 28.3452,4.19671 42.16643,3.83769 18.85245,-0.48968 19.84752,10.06793 19.5086,24.10201 -0.33202,13.75528 1.4441,26.74402 -19.63395,25.97525 -32.87038,-1.19893 -65.82488,0.0864 -98.72618,-0.56641 -8.9793,-0.17823 -22.1503,5.35713 -25.9566,-6.70483 -3.8656,-12.25005 -5.0942,-26.32862 3.8702,-38.22635 17.2715,-22.92251 34.6119,-45.79315 52.514,-69.85244 z"
   id="path110"
   style="fill:#1a1a1a;stroke-width:4.2134"
   inkscape:export-filename="F:\Documentos\Projetos R\caixadeimoveis\themes\hugo-fresh\static\images\logos\logo-bazar.png"
   inkscape:export-xdpi="7.0599999"
   inkscape:export-ydpi="7.0599999" /><path
   fill="#000000"
   opacity="1"
   stroke="none"
   d="m -747.08807,555.85544 c -0.008,-31.53175 -0.36572,-60.97109 0.19003,-90.39324 0.16643,-8.82657 -4.57382,-22.79985 9.94447,-23.49671 14.07854,-0.67562 31.18533,-9.06829 41.95184,8.67696 1.77713,2.92911 3.68234,5.78057 6.19446,9.70961 14.22887,-8.34367 25.79065,-20.42472 42.36496,-22.53348 15.19193,-1.93299 27.24053,-0.5426 24.42341,19.91051 -1.0464,7.5974 -0.53772,15.39616 -1.0689,23.08018 -0.8431,12.19502 -5.73583,18.14131 -19.79174,18.04866 -30.6539,-0.20182 -38.47802,8.47909 -38.80308,38.53725 -0.21236,19.62009 -0.58351,39.25062 -0.1639,58.86119 0.29283,13.70422 -4.12585,20.59241 -19.26532,20.37913 -53.56928,-0.75445 -45.13258,4.11317 -45.96283,-43.96504 -0.0847,-4.90394 -0.0126,-9.81066 -0.0126,-16.81502 z"
   id="path112"
   style="fill:#1a1a1a;stroke-width:4.2134"
   inkscape:export-filename="F:\Documentos\Projetos R\caixadeimoveis\themes\hugo-fresh\static\images\logos\logo-bazar.png"
   inkscape:export-xdpi="7.0599999"
   inkscape:export-ydpi="7.0599999" /><path
   fill="#000000"
   opacity="1"
   stroke="none"
   d="m -1134.9358,756.71129 c -2.049,-14.06194 -10.6827,-15.54826 -20.553,-13.80648 -9.9864,1.76238 -13.5799,9.64014 -14.1013,18.49705 -0.7829,13.29918 -0.3821,26.66397 -0.7909,39.99129 -0.1757,5.72454 -1.0074,11.74389 -8.8016,11.74823 -7.703,0.004 -8.8585,-5.93407 -9.041,-11.69046 -0.445,-14.02958 -0.3813,-28.07415 -0.6662,-42.11001 -0.169,-8.32598 -2.2775,-15.52689 -12.1848,-16.75817 -9.6441,-1.19842 -16.0549,2.95894 -19.8109,11.9439 -5.6495,13.51495 -3.0216,27.71323 -4.0552,41.61817 -0.4751,6.39249 2.2908,16.24452 -8.1501,16.2053 -8.8532,-0.0337 -7.1217,-9.04015 -7.2042,-14.86855 -0.3173,-22.34705 -0.1286,-44.70129 -0.1286,-68.58273 22.0884,2.25404 42.3435,-10.80662 62.4093,2.78223 6.5831,4.45825 11.642,-2.7527 17.3549,-4.58203 23.5483,-7.53997 41.2782,2.50082 44.0698,26.95162 1.7416,15.2526 0.8698,30.83313 0.6964,46.26113 -0.072,6.4744 -1.3387,13.37596 -10.2263,12.75427 -7.4635,-0.52192 -8.179,-6.75767 -8.3069,-12.45735 -0.3152,-14.03446 -0.2861,-28.07647 -0.5096,-43.89741 z"
   id="path114"
   style="fill:#333333;stroke-width:4.2134"
   inkscape:export-filename="F:\Documentos\Projetos R\caixadeimoveis\themes\hugo-fresh\static\images\logos\logo-bazar.png"
   inkscape:export-xdpi="7.0599999"
   inkscape:export-ydpi="7.0599999" /><path
   fill="#000000"
   opacity="1"
   stroke="none"
   d="m -1431.7554,720.84516 c 0.013,26.50449 -0.043,50.98398 0.049,75.46267 0.042,11.1493 -1.6403,20.12671 -16.4759,16.50504 -2.5516,-0.62275 -5.6648,-0.2823 -8.1972,0.56885 -18.0371,6.06296 -35.4857,6.55618 -46.6271,-11.3721 -11.4689,-18.45538 -10.6022,-39.38651 -1.9484,-58.39359 10.2348,-22.47901 30.639,-20.57274 49.6698,-15.16715 6.6589,-6.20782 3.648,-12.90907 4.4794,-18.82683 1.0133,-7.21322 -1.5509,-17.72052 9.8031,-17.26071 10.8063,0.43756 8.4501,10.79377 9.168,18.06977 0.2735,2.77157 0.062,5.59101 0.079,10.41405 m -25.56,26.33221 c -12.3763,-8.20758 -24.1815,-8.50446 -31.717,5.61663 -7.7071,14.44241 -8.6679,29.96045 4.297,42.27623 10.9159,10.36943 29.8284,4.11439 32.8071,-10.83401 2.2815,-11.44937 3.267,-23.54196 -5.3871,-37.05885 z"
   id="path116"
   style="fill:#333333;stroke-width:4.2134"
   inkscape:export-filename="F:\Documentos\Projetos R\caixadeimoveis\themes\hugo-fresh\static\images\logos\logo-bazar.png"
   inkscape:export-xdpi="7.0599999"
   inkscape:export-ydpi="7.0599999" /><path
   fill="#000000"
   opacity="1"
   stroke="none"
   d="m -1342.7953,746.09149 c 7.0254,27.20198 5.0028,29.96471 -20.4444,30.21106 -4.1999,0.0421 -8.4444,-0.43811 -12.5915,0.0211 -6.3674,0.70242 -16.1076,-2.79091 -16.5772,7.59921 -0.4531,10.01972 7.7004,13.66478 16.7603,15.3182 10.2119,1.86372 20.7233,-3.76231 31.8794,1.61243 -2.0264,18.39689 -17.1181,15.84437 -27.9781,16.22602 -20.9388,0.73575 -37.6978,-13.43717 -41.0008,-32.02253 -4.8137,-27.08598 3.1208,-48.6088 20.9112,-56.72289 17.9897,-8.20488 34.8227,-2.60059 49.0411,17.75907 m -18.1776,3.85131 c -17.7642,-12.50121 -23.9986,-10.95295 -30.978,8.91724 11.4104,-0.17865 23.7169,9.63803 30.978,-8.91724 z"
   id="path118"
   style="fill:#333333;stroke-width:4.2134"
   inkscape:export-filename="F:\Documentos\Projetos R\caixadeimoveis\themes\hugo-fresh\static\images\logos\logo-bazar.png"
   inkscape:export-xdpi="7.0599999"
   inkscape:export-ydpi="7.0599999" /><path
   fill="#000000"
   opacity="1"
   stroke="none"
   d="m -1091.7685,799.71142 c -13.9322,-33.21008 -6.5147,-63.15191 16.599,-71.97743 19.7955,-7.55851 41.3515,-0.50123 51.1368,16.74174 11.3822,20.05723 7.0966,50.78945 -8.9022,63.83714 -17.355,14.15374 -38.3736,11.54068 -58.8336,-8.60145 m 10.7041,-20.77267 c 0.9134,2.61796 1.5268,5.39147 2.79,7.82813 6.7064,12.93695 18.0025,16.51194 29.7717,9.74644 15.6034,-8.96941 13.3576,-25.01577 9.7405,-39.33502 -3.2818,-12.99215 -14.1258,-17.66743 -26.2517,-13.96747 -15.7049,4.79207 -16.8122,18.63141 -16.0505,35.72792 z"
   id="path120"
   style="fill:#333333;stroke-width:4.2134"
   inkscape:export-filename="F:\Documentos\Projetos R\caixadeimoveis\themes\hugo-fresh\static\images\logos\logo-bazar.png"
   inkscape:export-xdpi="7.0599999"
   inkscape:export-ydpi="7.0599999" /><path
   fill="#000000"
   opacity="1"
   stroke="none"
   d="m -855.65312,802.27279 c -7.57932,18.90528 -22.96157,15.56431 -36.7747,13.35244 -16.52766,-2.64648 -28.26726,-12.66709 -31.08838,-29.77296 -1.57038,-9.52195 -1.45645,-19.63719 -0.2132,-29.24063 2.4008,-18.54875 17.77879,-31.51516 36.03496,-31.92609 18.46102,-0.41544 33.09593,11.77406 36.87485,30.79121 2.44285,12.29277 -0.10449,20.98561 -15.06152,20.76626 -7.68723,-0.11292 -15.39346,-0.26502 -23.06265,0.13946 -5.87466,0.31011 -14.08469,-1.78538 -14.7716,7.38222 -0.60728,8.10199 5.61689,12.20416 12.63212,14.64633 11.39384,3.96654 23.58207,-3.61509 35.43025,3.86171 m -48.06325,-48.28862 c 9.88405,11.71583 20.85356,7.2728 32.42154,3.37017 -8.58321,-19.1122 -15.45426,-20.12477 -32.42154,-3.37017 z"
   id="path122"
   style="fill:#333333;stroke-width:4.2134"
   inkscape:export-filename="F:\Documentos\Projetos R\caixadeimoveis\themes\hugo-fresh\static\images\logos\logo-bazar.png"
   inkscape:export-xdpi="7.0599999"
   inkscape:export-ydpi="7.0599999" /><path
   fill="#000000"
   opacity="1"
   stroke="none"
   d="m -1955.0722,957.34795 c 15.0843,17.57431 23.0141,18.1708 33.0212,-0.40533 7.2787,-13.51137 24.3077,-6.21738 31.0117,-17.69031 -4.6392,-11.83165 -16.1104,-2.51186 -23.4509,-9.71547 7.2819,-9.51551 15.9855,-12.47766 26.739,-6.96855 12.1881,6.24376 14.8413,23.37663 8.6468,53.08891 -20.5782,9.78399 -43.1359,-0.38847 -64.7957,4.72491 -9.9364,2.3456 -21.2368,-7.18006 -21.6608,-18.75625 -0.4518,-12.33621 -4.6063,-27.50556 10.7685,-35.70682 9.4155,-5.02259 18.7941,-8.7493 29.3881,2.90919 -14.0568,6.05086 -34.7977,4.10642 -29.6679,28.51955 z"
   id="path124"
   style="fill:#216778;stroke-width:4.2134" /><path
   fill="#000000"
   opacity="1"
   stroke="none"
   d="m -788.06947,798.51692 c 12.93708,0.36909 25.14255,5.6931 35.4977,-6.00419 -4.12197,-11.84261 -14.94864,-13.7126 -24.18408,-17.78713 -11.26361,-4.96945 -21.14686,-11.06287 -21.07999,-25.66771 0.0485,-10.54968 5.27716,-17.069 14.55351,-20.78362 13.72364,-5.49537 27.3821,-4.51183 40.53314,1.74823 1.68625,0.80261 2.95486,4.91649 2.55686,7.16746 -0.88734,5.01858 -5.13917,5.66934 -9.68408,5.73752 -9.99512,0.14999 -20.84223,-4.97321 -30.27056,4.68758 2.60085,13.05025 14.79279,13.23143 23.58684,17.18625 11.55087,5.1945 20.75391,11.25758 20.59654,25.80246 -0.12134,11.21822 -5.02402,18.77117 -15.266,22.61758 -14.27876,5.36257 -29.08469,7.19772 -42.16128,-2.01421 -5.80257,-4.08768 -6.72619,-11.12874 5.3214,-12.69022 z"
   id="path126"
   style="fill:#333333;stroke-width:4.2134"
   inkscape:export-filename="F:\Documentos\Projetos R\caixadeimoveis\themes\hugo-fresh\static\images\logos\logo-bazar.png"
   inkscape:export-xdpi="7.0599999"
   inkscape:export-ydpi="7.0599999" /><path
   fill="#000000"
   opacity="1"
   stroke="none"
   d="m -980.89975,764.96707 c 2.75089,6.40315 5.01715,11.39477 7.61737,17.12221 18.98601,-13.72545 9.36673,-47.87432 35.49463,-54.65271 2.39553,1.35359 4.79101,2.70707 7.1865,4.06062 -9.62686,25.0365 -18.36369,50.46919 -29.25736,74.94168 -5.42168,12.18002 -19.95219,10.94705 -25.33325,-2.23693 -9.70068,-23.76713 -20.49194,-47.29149 -25.88864,-72.71284 15.31873,-3.00394 15.31873,-3.00394 30.18075,33.47797 z"
   id="path128"
   style="fill:#333333;stroke-width:4.2134"
   inkscape:export-filename="F:\Documentos\Projetos R\caixadeimoveis\themes\hugo-fresh\static\images\logos\logo-bazar.png"
   inkscape:export-xdpi="7.0599999"
   inkscape:export-ydpi="7.0599999" /><path
   fill="#000000"
   opacity="1"
   stroke="none"
   d="m -1582.2781,942.48134 c 0.4636,9.84132 -4.6598,11.74216 -11.9111,12.07262 -6.5773,0.29999 -14.4723,-1.65975 -17.6905,7.23049 3.1032,15.59852 18.8713,2.98583 25.4294,11.17398 -15.5948,11.21587 -30.712,9.96723 -38.9922,-2.93067 -8.7422,-13.6173 -3.0816,-39.12005 10.3584,-46.66722 13.2091,-7.41766 24.1384,-1.48371 32.806,19.1208 z"
   id="path130"
   style="fill:#216778;stroke-width:4.2134" /><path
   fill="#000000"
   opacity="1"
   stroke="none"
   d="m -1515.382,953.57029 c -0.4655,8.54794 0.9969,15.71553 -3.4129,22.10777 -7.836,-8.89188 -10.9785,-42.8123 -4.9113,-49.76669 4.6605,-5.34183 53.7553,-7.40674 62.3678,-2.62322 11.8601,6.58757 15.2123,31.72641 5.562,53.80587 -5.2277,-10.72021 -3.044,-20.26272 -3.7037,-29.22994 -0.4939,-6.71435 -1.9272,-13.50686 -9.5865,-14.15568 -8.7416,-0.74067 -11.7504,5.86067 -12.6203,13.59631 -1.0474,9.31457 1.5146,19.29646 -4.5229,29.71241 -9.5166,-7.14905 -5.9079,-16.02075 -6.8359,-23.46482 -0.9796,-7.85782 2.5716,-19.15779 -9.6056,-19.80147 -10.925,-0.57749 -12.4006,9.20409 -12.7307,19.81946 z"
   id="path132"
   style="fill:#216778;stroke-width:4.2134" /><path
   fill="#000000"
   opacity="1"
   stroke="none"
   d="m -1294.3283,950.25519 c -10.1864,3.75772 -19.3892,6.1024 -29.0815,8.57183 2.0974,19.42492 20.0769,6.74342 28.6603,15.52858 -10.5991,8.51474 -20.8251,9.07305 -31.1322,3.04949 -12.698,-7.42052 -13.9598,-20.50334 -12.8222,-33.10896 1.0041,-11.1273 8.1554,-19.30336 19.1231,-22.63789 15.3974,-4.6813 25.5602,6.08352 25.2525,28.59695 z"
   id="path134"
   style="fill:#216778;stroke-width:4.2134" /><path
   fill="#000000"
   opacity="1"
   stroke="none"
   d="m -1038.6648,939.67129 c -4.0909,12.42638 0.855,25.0073 -7.0452,37.56906 -6.9489,-8.07832 -4.6912,-15.81518 -5.0924,-22.84891 -0.5231,-9.17401 0.1357,-20.58095 -12.3396,-20.52672 -12.0418,0.0522 -9.3463,11.49429 -10.1908,19.49099 -0.7774,7.35984 2.1729,15.4928 -6.9117,24.49335 -7.5968,-17.97278 -2.9833,-34.56987 -3.7073,-49.95044 19.7749,-11.87846 39.8053,-1.7355 58.7941,-5.8396 7.8015,-1.68621 14.2279,6.20196 14.8179,14.79629 0.889,12.95486 2.2652,26.11378 -1.9829,41.56567 -11.0777,-9.70658 -6.7093,-20.74283 -7.8625,-30.19985 -1.427,-11.70269 -4.1367,-20.43298 -18.4796,-8.54984 z"
   id="path136"
   style="fill:#216778;stroke-width:4.2134" /><path
   fill="#000000"
   opacity="1"
   stroke="none"
   d="m -916.25706,950.8995 c 5.13083,-27.33912 21.69759,-37.46633 38.09333,-25.02735 6.73041,5.1063 10.12717,11.56747 8.6451,19.97742 -1.73225,9.83054 -9.69655,8.2568 -16.52711,8.4812 -5.58065,0.18328 -11.27953,-0.0897 -15.44473,5.65944 2.607,17.53816 20.00839,5.84665 28.33492,12.91577 -22.59189,15.37824 -37.64713,7.87569 -43.10151,-22.00648 z"
   id="path138"
   style="fill:#216778;stroke-width:4.2134" /><path
   fill="#000000"
   opacity="1"
   stroke="none"
   d="m -1816.9858,947.55714 c -0.4344,10.61453 -1.1733,19.55823 -1.8877,28.20464 -36.1042,9.70262 -51.525,0.65565 -50.1798,-28.82068 0.5707,-12.50403 7.1486,-23.08267 18.7929,-24.36952 13.5479,-1.49724 21.6499,-6.02399 23.9802,-22.6095 12.683,15.98283 4.3452,32.18479 9.2944,47.59506 m -16.4432,-9.12425 c -6.2102,-7.36764 -13.4553,-7.71483 -19.44,-0.76183 -6.4946,7.54562 -5.211,16.9576 -1.8118,25.56175 2.2284,5.64039 7.1353,8.89845 13.4004,6.45358 9.2287,-3.60174 11.0446,-11.65296 10.6592,-20.47823 -0.1188,-2.72738 -0.871,-5.42712 -2.8078,-10.77527 z"
   id="path140"
   style="fill:#216778;stroke-width:4.2134" /><path
   fill="#000000"
   opacity="1"
   stroke="none"
   d="m -1649.4082,978.68563 c -25.8805,3.70139 -35.1546,-1.12098 -38.4171,-19.09223 -4.0187,-22.13672 3.6754,-35.24288 26.9038,-38.05849 13.2019,-1.60021 9.4301,-13.83833 19.2668,-20.07846 5.6509,25.31307 4.7831,49.19994 2.4893,73.08728 -0.3901,4.06424 -5.2671,3.78199 -10.2428,4.1419 m -0.1433,-31.60284 c -1.8317,-7.164 -4.7482,-13.44821 -13.3245,-14.0455 -6.4839,-0.45155 -10.1755,3.40245 -12.8883,8.88703 -3.8111,7.7048 -3.0309,14.97642 1.627,21.85404 2.8485,4.20594 6.8237,7.9525 12.2453,6.06422 9.0629,-3.15643 12.5266,-10.55057 12.3405,-22.75979 z"
   id="path142"
   style="fill:#216778;stroke-width:4.2134" /><path
   fill="#000000"
   opacity="1"
   stroke="none"
   d="m -935.76823,910.4979 c 5.65266,-10.39362 9.97098,-7.22366 9.71046,0.52023 -0.72083,21.42874 6.45498,42.97536 -0.59148,64.19641 -32.88493,10.08166 -49.2202,1.41609 -48.04538,-25.58968 0.67726,-15.5697 6.94567,-27.14008 24.31554,-28.60078 6.55863,-0.55162 12.80647,-0.71417 14.61086,-10.52618 m -13.92268,22.3634 c -17.9957,6.01522 -15.5467,18.88329 -9.68834,31.69603 2.87063,6.27843 10.11061,9.23494 15.49744,3.42196 9.53523,-10.28955 10.42409,-22.01903 0.87875,-33.34651 -0.7877,-0.93483 -2.46392,-1.1206 -6.68785,-1.77148 z"
   id="path144"
   style="fill:#216778;stroke-width:4.2134" /><path
   fill="#000000"
   opacity="1"
   stroke="none"
   d="m -2105.2714,920.77334 c 23.4347,4.81234 33.8198,18.15694 29.619,36.10502 -5.2885,22.59572 -17.8483,27.55414 -49.1934,18.23986 0.016,-23.59147 -2.1548,-47.6982 1.3673,-72.1112 11.8279,1.54725 5.7907,16.9493 18.2071,17.76632 m -9.1482,29.31934 c 0.3191,9.36892 1.2594,19.67971 13.1838,19.66555 10.1558,-0.0126 12.3618,-9.63972 13.5882,-18.05637 1.2243,-8.40173 -1.455,-15.66998 -10.1246,-18.01137 -10.6401,-2.87396 -15.133,3.62142 -16.6474,16.40219 z"
   id="path146"
   style="fill:#216778;stroke-width:4.2134" /><path
   fill="#000000"
   opacity="1"
   stroke="none"
   d="m -1390.5941,934.85188 c 0.7175,4.85809 1.9887,9.7089 2.0537,14.57576 0.2418,18.09609 -11.3979,31.51566 -26.8331,31.44685 -15.5128,-0.0691 -26.4755,-13.63529 -25.9667,-32.13364 0.3961,-14.39741 22.6679,-41.84031 37.8021,-46.49115 4.1923,7.10523 -6.5759,10.42228 -4.3193,16.99093 5.157,4.67886 10.3235,9.36045 16.4232,14.91317 0.9333,0.87112 0.8401,0.69808 0.8401,0.69808 m -21.1849,34.45901 c 2.9333,-2.86865 6.784,-5.24939 8.6202,-8.70169 4.6576,-8.75764 4.3379,-17.74883 -3.572,-24.56346 -6.0099,-5.17764 -13.1411,-4.9269 -18.6034,1.13501 -6.7228,7.46063 -7.5335,16.07375 -2.5251,24.99845 2.929,5.21906 7.0569,8.45702 16.0803,7.13169 z"
   id="path148"
   style="fill:#216778;stroke-width:4.2134" /><path
   fill="#000000"
   opacity="1"
   stroke="none"
   d="m -1096.4289,936.31911 c 1.4499,3.4386 2.3106,5.39509 2.7316,7.44213 3.4061,16.5593 -1.4478,30.04249 -17.8597,35.60843 -13.5818,4.6061 -25.6897,-1.31306 -31.1131,-14.54437 -5.5582,-13.56087 -6.1736,-28.18214 7.712,-38.01769 14.8787,-10.53903 27.7059,-6.56314 38.5292,9.5115 m -16.9829,-2.05307 c -16.0899,-4.77285 -19.9277,4.84719 -19.4395,17.6044 0.3447,9.01213 2.3691,20.07513 14.641,17.76771 12.7372,-2.39486 13.8244,-13.88013 12.1636,-24.79284 -0.4758,-3.12622 -3.1418,-5.91903 -7.3651,-10.57927 z"
   id="path150"
   style="fill:#216778;stroke-width:4.2134" /><path
   fill="#000000"
   opacity="1"
   stroke="none"
   d="m -2059.0576,936.44218 c 0.098,6.62705 0.054,11.5151 0.2564,16.39304 0.3644,8.77757 1.505,18.36496 13.1058,16.97525 9.7204,-1.16433 12.9504,-9.46604 12.541,-18.87557 -0.4019,-9.23869 -3.993,-19.15952 6.8278,-28.86442 11.816,17.66009 7.4504,36.00794 4.6807,52.35211 -1.4534,8.57621 -15.8293,5.69854 -24.3433,6.61378 -8.4312,0.90613 -17.0291,-2.09819 -20.2167,-11.54375 -4.9042,-14.53207 -6.8352,-29.20478 -0.2268,-43.64424 7.6966,0.0126 6.56,5.09599 7.3751,10.5938 z"
   id="path152"
   style="fill:#216778;stroke-width:4.2134" /><path
   fill="#000000"
   opacity="1"
   stroke="none"
   d="m -1809.3582,951.07811 c 4.1447,-23.13061 15.0878,-32.94472 30.9192,-29.36303 16.5,3.73303 25.0621,21.90034 18.8079,40.12107 -4.3787,12.75616 -13.3664,19.89471 -26.8805,18.42575 -15.8542,-1.72324 -22.3936,-12.44024 -22.8466,-29.18379 m 37.0236,-10.08524 c -4.7611,-7.72759 -11.4329,-10.79453 -19.1981,-5.32503 -8.8611,6.24144 -7.5006,15.79938 -5.1417,24.71043 1.5161,5.72719 5.8495,10.46175 11.9757,9.69988 9.8505,-1.22538 13.4622,-8.83247 14.1343,-17.91248 0.2014,-2.71899 -0.4712,-5.50257 -1.7702,-11.1728 z"
   id="path154"
   style="fill:#216778;stroke-width:4.2134" /><path
   fill="#000000"
   opacity="1"
   stroke="none"
   d="m -1266.0894,810.07883 c -11.8887,6.10691 -15.5043,0.21446 -15.673,-9.02089 -0.3577,-19.58057 -0.3092,-39.1726 -0.1209,-58.75695 0.06,-6.22623 0.053,-13.46764 8.9745,-13.81815 9.1131,-0.35814 9.6574,6.83574 9.5605,13.13372 -0.3434,22.32054 2.2643,44.71941 -2.7412,68.46227 z"
   id="path156"
   style="fill:#333333;stroke-width:4.2134"
   inkscape:export-filename="F:\Documentos\Projetos R\caixadeimoveis\themes\hugo-fresh\static\images\logos\logo-bazar.png"
   inkscape:export-xdpi="7.0599999"
   inkscape:export-ydpi="7.0599999" /><path
   fill="#000000"
   opacity="1"
   stroke="none"
   d="m -1982.1392,950.0942 c 11.833,8.02897 12.6182,17.81064 3.6576,25.30485 -11.0999,9.28356 -23.567,8.38619 -34.7975,-1.79849 4.5771,-7.21979 9.5053,-3.36255 13.9801,-2.86187 5.2414,0.58659 9.7355,-0.13188 12.3661,-6.60683 -4.0829,-13.77934 -39.8358,-13.26885 -19.9155,-37.73599 8.7039,-10.69075 21.8036,-8.86769 32.9942,1.74422 -7.0798,7.91517 -17.154,2.15672 -22.3104,9.59666 0.01,8.36558 8.5369,7.67151 14.0254,12.35745 z"
   id="path158"
   style="fill:#216778;stroke-width:4.2134" /><path
   fill="#000000"
   opacity="1"
   stroke="none"
   d="m -833.97458,948.21021 c 12.59816,7.28999 16.01022,16.88703 6.55513,26.29855 -10.79347,10.74371 -23.18117,7.77768 -35.4522,0.76106 4.24913,-8.78258 9.42382,-4.69971 13.72196,-4.46465 5.17768,0.28315 9.6966,-0.20266 12.39886,-6.6238 -4.13124,-13.69655 -37.86955,-12.37198 -21.49067,-35.85959 7.46088,-10.69935 21.3009,-11.16548 32.37781,0.15589 -5.49837,6.92186 -14.74923,2.09322 -19.73107,9.59986 -1.1179,6.93564 5.92628,6.95182 11.62018,10.13273 z"
   id="path160"
   style="fill:#216778;stroke-width:4.2134" /><path
   fill="#000000"
   opacity="1"
   stroke="none"
   d="m -760.56729,974.54988 c -5.06628,-5.44317 -7.46884,-10.3225 -7.87261,-16.16325 -0.98535,-14.26085 -2.03651,-28.55502 14.89656,-35.13678 11.11125,-4.31899 21.19805,-1.93842 28.00396,7.5406 9.5565,13.30989 9.30888,28.05279 -0.34592,40.95747 -8.9978,12.02691 -21.19994,11.8052 -34.68211,2.80196 m 19.53712,-41.00761 c -16.93434,-0.88094 -20.05735,9.92504 -17.49817,22.89853 1.61651,8.19574 7.53019,17.10679 17.53984,12.68302 12.34818,-5.45733 12.34717,-17.17455 8.29231,-28.56687 -0.83181,-2.33726 -3.69844,-3.95045 -8.33398,-7.01468 z"
   id="path162"
   style="fill:#216778;stroke-width:4.2134" /><path
   fill="#000000"
   opacity="1"
   stroke="none"
   d="m -582.10753,976.25003 c -18.70443,7.93072 -32.14405,3.52354 -37.47009,-14.68818 -4.038,-13.80786 -2.59764,-28.12104 11.6113,-36.78675 11.06671,-6.74919 23.00564,-4.72491 29.89948,5.15822 10.30902,14.77956 10.93391,30.97394 -4.04069,46.31671 m -0.2132,-29.54438 c -1.18595,-9.9226 -6.15077,-15.9219 -16.66283,-13.33841 -8.91143,2.19042 -11.01375,9.76216 -10.8166,18.03029 0.21151,8.88598 2.17597,18.196 12.42519,18.7758 13.16031,0.74447 14.82806,-9.93225 15.05424,-23.46768 z"
   id="path164"
   style="fill:#216778;stroke-width:4.2134" /><path
   fill="#000000"
   opacity="1"
   stroke="none"
   d="m -1226.7054,973.46349 c -20.6234,10.24843 -21.2496,10.21165 -35.3976,-0.93145 6.3798,-8.58186 20.1346,6.17339 25.0639,-8.88455 -4.0846,-13.11843 -37.2475,-12.5007 -20.6681,-35.85622 7.3339,-10.33152 20.1743,-9.12 30.8985,-0.48054 -5.522,9.86206 -16.265,1.01029 -21.4817,10.01353 4.182,13.19364 33.2842,11.93598 21.585,36.13923 z"
   id="path166"
   style="fill:#216778;stroke-width:4.2134" /><path
   fill="#000000"
   opacity="1"
   stroke="none"
   d="m -671.76284,956.87436 c 0.0295,-11.87113 -0.35477,-23.21639 -13.48975,-23.54428 -14.27783,-0.35646 -12.3248,12.06213 -13.12395,21.56862 -0.59405,7.06806 1.67301,15.0442 -7.43194,22.97324 -6.27561,-18.26093 -2.28261,-34.36607 -3.2278,-51.29064 14.38594,-1.96218 29.23022,-12.72805 39.60004,1.19994 9.95539,13.37106 10.15725,30.53238 2.9889,49.51632 -6.26238,-6.85229 -4.96124,-13.03984 -5.3155,-20.4232 z"
   id="path168"
   style="fill:#216778;stroke-width:4.2134" /><path
   fill="#000000"
   opacity="1"
   stroke="none"
   d="m -1390.4439,935.10481 c 0.8994,-3.84579 0.233,-8.50193 6.4078,-10.99024 12.3113,5.38527 8.1108,22.80609 20.3986,30.11137 9.5909,-6.9913 5.1535,-24.16314 22.5014,-30.97419 -3.5845,22.22557 -10.5581,39.20672 -22.1949,56.33858 -15.6726,-12.16957 -14.7013,-30.79955 -26.2738,-43.65194 -0.9893,-1.08651 -0.8961,-0.91347 -0.8391,-0.83358 z"
   id="path170"
   style="fill:#216778;stroke-width:4.2134" /><path
   fill="#000000"
   opacity="1"
   stroke="none"
   d="m -816.31397,738.39415 c 0.17907,22.29202 0.31179,42.60744 0.11839,62.91967 -0.0451,4.75642 -0.0956,10.6752 -6.68435,11.23971 -8.19035,0.70166 -8.44197,-5.93875 -8.50669,-11.45738 -0.23764,-20.31235 -0.22921,-40.62988 -0.0459,-60.94299 0.043,-4.78099 0.17697,-10.32174 6.80591,-11.16433 5.30417,-0.67432 7.27764,2.91778 8.3125,9.40532 z"
   id="path172"
   style="fill:#333333;stroke-width:4.2134"
   inkscape:export-filename="F:\Documentos\Projetos R\caixadeimoveis\themes\hugo-fresh\static\images\logos\logo-bazar.png"
   inkscape:export-xdpi="7.0599999"
   inkscape:export-ydpi="7.0599999" /><path
   fill="#000000"
   opacity="1"
   stroke="none"
   d="m -791.02998,932.71083 c -15.02373,4.74177 -14.31693,15.4567 -12.43948,26.17884 2.95507,16.87519 18.88097,9.39593 32.48618,14.78382 -15.88988,10.2403 -27.73388,8.76893 -38.04353,-1.32158 -11.72548,-11.47642 -11.30961,-25.87821 -2.85159,-38.48113 7.9193,-11.79992 19.54539,-17.21389 34.1894,-8.22081 -1.81441,7.52725 -7.47078,5.96365 -13.34098,7.06086 z"
   id="path174"
   style="fill:#216778;stroke-width:4.2134" /><path
   fill="#000000"
   opacity="1"
   stroke="none"
   d="m -1163.814,921.15225 c 6.0024,0.50611 10.0749,1.37201 10.9775,8.07052 -11.8593,4.49566 -29.6301,4.89606 -28.0951,23.70372 1.3507,16.54965 16.1599,18.29067 33.3987,19.61983 -12.4019,10.47692 -21.8797,10.34563 -31.4692,4.54593 -12.3087,-7.44433 -11.2875,-19.94629 -10.7837,-31.92445 0.6491,-15.43019 10.3759,-21.91833 25.9718,-24.01555 z"
   id="path176"
   style="fill:#216778;stroke-width:4.2134" /><path
   fill="#000000"
   opacity="1"
   stroke="none"
   d="m -642.6824,914.79178 c 5.27935,4.22217 9.44569,7.73711 13.63954,11.27545 -16.32925,16.66046 -14.49284,39.33632 2.44513,50.3151 -9.02895,6.98397 -18.70764,4.42942 -20.81948,-3.56408 -4.29405,-16.25298 -5.26688,-33.48669 -6.33308,-50.39663 -0.19845,-3.15078 3.18908,-9.64924 11.06789,-7.62984 z"
   id="path178"
   style="fill:#216778;stroke-width:4.2134" /><path
   fill="#000000"
   opacity="1"
   stroke="none"
   d="m -1746.8405,974.09239 c -2.5086,-10.8592 -4.6709,-20.46062 -4.9396,-30.11488 -0.5998,-21.54354 10.5123,-27.58025 34.3886,-16.92856 -20.4093,7.27806 -22.8145,22.76392 -21.7425,40.14344 0.2355,3.81853 -0.2216,8.73746 -7.7065,6.9 z"
   id="path180"
   style="fill:#216778;stroke-width:4.2134" /><path
   fill="#000000"
   opacity="1"
   stroke="none"
   d="m -1065.6404,719.33352 c -2.0821,-19.54096 6.6553,-28.53556 25.5653,-26.89272 -1.7499,14.92371 -10.9819,22.70338 -25.5653,26.89272 z"
   id="path182"
   style="fill:#333333;stroke-width:4.2134"
   inkscape:export-filename="F:\Documentos\Projetos R\caixadeimoveis\themes\hugo-fresh\static\images\logos\logo-bazar.png"
   inkscape:export-xdpi="7.0599999"
   inkscape:export-ydpi="7.0599999" /><path
   fill="#000000"
   opacity="1"
   stroke="none"
   d="m -1282.55,959.26934 c 0.3396,-12.38213 -2.1798,-23.51879 4.807,-38.08182 10.8569,20.52786 6.5075,37.6403 3.8416,55.86499 -11.7128,-3.46261 -8.1436,-10.64604 -8.6486,-17.78317 z"
   id="path184"
   style="fill:#216778;stroke-width:4.2134" /><path
   fill="#000000"
   opacity="1"
   stroke="none"
   d="m -1536.5916,944.3445 c -1.0849,11.67416 2.7959,22.40696 -8.4281,36.78962 -4.4767,-22.25372 -3.8856,-38.7973 -1.0239,-56.47282 12.6577,3.33929 8.0542,11.81097 9.452,19.6832 z"
   id="path186"
   style="fill:#216778;stroke-width:4.2134" /><path
   fill="#000000"
   opacity="1"
   stroke="none"
   d="m -829.7838,713.95258 c -3.95251,-8.18365 -5.07096,-15.15282 5.0201,-16.81716 5.61356,-0.92573 9.39441,3.23395 9.21952,8.83281 -0.26545,8.50858 -3.93899,13.37506 -14.23962,7.98435 z"
   id="path188"
   style="fill:#333333;stroke-width:4.2134"
   inkscape:export-filename="F:\Documentos\Projetos R\caixadeimoveis\themes\hugo-fresh\static\images\logos\logo-bazar.png"
   inkscape:export-xdpi="7.0599999"
   inkscape:export-ydpi="7.0599999" /><path
   fill="#000000"
   opacity="1"
   stroke="none"
   d="m -827.10416,723.88741 c -3.95251,-8.18365 -5.07096,-15.15283 5.0201,-16.81717 5.61356,-0.92572 9.39441,3.23396 9.21952,8.83281 -0.26545,8.50859 -3.93899,13.37507 -14.23962,7.98436 z"
   id="path188-5"
   style="fill:#333333;stroke-width:4.2134"
   inkscape:export-filename="F:\Documentos\Projetos R\caixadeimoveis\themes\hugo-fresh\static\images\logos\logo-bazar.png"
   inkscape:export-xdpi="7.0599999"
   inkscape:export-ydpi="7.0599999" /><path
   style="fill:#004455;fill-opacity:1;stroke-width:2.83947"
   d="m -1691.8481,740.66261 c -42.1953,-42.08081 -60.1656,-58.19034 -64.9117,-58.19034 -3.6097,0 -15.6856,4.48993 -26.8353,9.97764 -108.6633,53.4821 -231.8126,-21.68365 -231.8126,-141.48968 0,-42.77067 14.1966,-77.72388 44.7457,-110.16779 29.9774,-31.83676 68.1926,-47.94578 113.7413,-47.94578 45.4795,0 80.3565,14.40689 111.9449,46.24188 50.1827,50.57444 61.4735,123.71999 28.8334,186.7926 -7.7347,14.94624 -9.7618,21.66599 -8.3057,27.5334 1.1909,4.7992 21.7703,27.81158 53.9173,60.29185 50.6342,51.15901 58.3274,60.29539 58.3274,69.26965 0,5.51517 -11.0379,15.92025 -16.8624,15.89565 -2.4385,-0.0126 -30.6905,-26.20446 -62.7823,-58.20908 z m -115.5444,-77.32352 c 77.8839,-36.46822 97.1754,-138.38588 37.4916,-198.06961 -48.5115,-48.51151 -124.1538,-49.5025 -171.2818,-2.24397 -18.451,18.50206 -29.3212,38.57446 -36.3192,67.06523 -9.1395,37.20961 3.2182,77.45102 32.8991,107.13187 15.3361,15.33615 39.1006,29.37782 57.7702,34.13454 5.0265,1.28066 20.6389,2.02231 34.6942,1.64811 21.92,-0.58359 28.2851,-1.95864 44.7459,-9.66617 z"
   id="path29742"
   inkscape:export-filename="F:\Documentos\Projetos R\caixadeimoveis\themes\hugo-fresh\static\images\logos\logo-bazar.png"
   inkscape:export-xdpi="7.0599999"
   inkscape:export-ydpi="7.0599999" /><path
   style="fill:#0088aa;fill-opacity:1;stroke-width:2.83947"
   d="m -1675.5616,754.13205 c -66.0677,-64.22468 -74.6213,-71.65978 -82.4397,-71.65978 -3.8522,0 -15.7455,3.92205 -26.4296,8.71568 -25.3846,11.38929 -48.8223,16.74575 -73.4997,16.79757 -69.0411,0.14494 -130.8745,-46.84882 -150.3294,-114.25117 -5.422,-18.78503 -6.2368,-59.11627 -1.6091,-79.65669 11.0409,-49.00621 56.4209,-97.87 104.7749,-112.81835 21.5301,-6.65592 63.7355,-8.03774 86.702,-2.83862 33.6833,7.62513 69.1337,32.81365 90.6993,64.4445 18.8686,27.67506 25.3287,47.52149 26.844,82.46935 1.366,31.50116 -3.8401,55.57123 -18.1101,83.73172 -12.5578,24.78142 -14.3897,21.84683 64.8107,103.81727 27.5877,28.55254 39.1054,42.43107 39.1054,47.12096 0,6.95174 -7.8731,16.04645 -13.8911,16.04645 -1.9282,0 -22.9106,-18.86349 -46.6276,-41.91889 z m -129.6658,-90.67077 c 33.1187,-16.33334 59.767,-49.83882 68.092,-85.61352 18.6484,-80.13647 -47.3493,-156.30244 -130.0342,-150.06858 -81.6098,6.15274 -137.7242,100.04189 -103.5011,173.17509 13.9699,29.85297 41.0403,55.54545 71.4187,67.78349 10.4511,4.2102 19.2531,5.10858 44.3339,4.52477 28.6979,-0.66799 32.8201,-1.48105 49.6907,-9.80125 z"
   id="path30033"
   inkscape:export-filename="F:\Documentos\Projetos R\caixadeimoveis\themes\hugo-fresh\static\images\logos\logo-bazar.png"
   inkscape:export-xdpi="7.0599999"
   inkscape:export-ydpi="7.0599999" /><path
   style="fill:#216778;fill-opacity:1;stroke-width:2.83947"
   d="m -1690.2527,737.84186 c -66.0446,-62.32006 -63.1803,-60.84844 -93.7384,-48.16168 -65.8824,27.35211 -127.9724,19.39379 -176.5922,-22.63444 -14.772,-12.7693 -35.182,-43.37179 -42.7365,-64.07856 -7.5839,-20.78745 -10.318,-53.50452 -6.5254,-78.08534 7.016,-45.47184 41.9706,-91.77966 85.432,-113.18008 41.9581,-20.66021 94.5488,-20.55015 136.0442,0.28483 37.7014,18.92984 70.898,59.05066 81.3554,98.32438 5.0003,18.77884 4.988,64.35866 -0.021,83.17627 -2.1461,8.06049 -7.242,21.95081 -11.3241,30.86743 -9.0951,19.86631 -9.3404,29.33615 -1.0358,39.98813 3.5125,4.50531 27.7899,31.04583 53.9498,58.97896 31.2226,33.33833 47.5641,52.89834 47.5641,56.93132 0,6.76382 -4.9014,12.95853 -10.2531,12.95853 -1.8912,0 -29.8439,-24.91633 -62.1172,-55.36963 z m -113.6736,-73.82614 c 9.3378,-4.6851 24.1105,-15.73217 32.828,-24.54905 62.1914,-62.89945 45.5746,-161.32592 -33.8637,-200.58653 -20.7233,-10.24198 -22.2161,-10.54016 -52.7677,-10.54016 -29.6285,0 -32.5045,0.52347 -49.885,9.07988 -47.7201,23.4925 -75.9427,71.4489 -73.1673,124.32718 1.0157,19.35039 2.9055,27.02262 10.4127,42.27185 11.6031,23.56914 36.2731,48.50094 60.2564,60.89567 18.1736,9.39227 18.3163,9.41485 53.7153,8.51841 32.8404,-0.83164 36.7624,-1.53554 52.4713,-9.41725 z"
   id="path30376"
   inkscape:export-filename="F:\Documentos\Projetos R\caixadeimoveis\themes\hugo-fresh\static\images\logos\logo-bazar.png"
   inkscape:export-xdpi="7.0599999"
   inkscape:export-ydpi="7.0599999" /></svg>
