<?xml version="1.0" encoding="UTF-8" standalone="no"?>
<svg
   version="1.1"
   id="Layer_1"
   x="0px"
   y="0px"
   width="100%"
   viewBox="0 0 496 496"
   enable-background="new 0 0 496 496"
   xml:space="preserve"
   sodipodi:docname="logo-bazar.svg"
   inkscape:version="1.1.2 (b8e25be833, 2022-02-05)"
   xmlns:inkscape="http://www.inkscape.org/namespaces/inkscape"
   xmlns:sodipodi="http://sodipodi.sourceforge.net/DTD/sodipodi-0.dtd"
   xmlns="http://www.w3.org/2000/svg"
   xmlns:svg="http://www.w3.org/2000/svg"><defs
   id="defs193" /><sodipodi:namedview
   id="namedview191"
   pagecolor="#ffffff"
   bordercolor="#666666"
   borderopacity="1.0"
   inkscape:pageshadow="2"
   inkscape:pageopacity="0.0"
   inkscape:pagecheckerboard="0"
   showgrid="false"
   inkscape:zoom="0.26231381"
   inkscape:cx="-970.21197"
   inkscape:cy="571.83417"
   inkscape:window-width="1680"
   inkscape:window-height="987"
   inkscape:window-x="-8"
   inkscape:window-y="-8"
   inkscape:window-maximized="1"
   inkscape:current-layer="Layer_1" />












































<path
   style="fill:#0088aa;fill-opacity:1;stroke-width:0.673913"
   d=""
   id="path30072" /><g
   id="g31464"
   transform="matrix(4.2134024,0,0,4.2134024,-805.59272,-734.02551)"><path
     fill="#000000"
     opacity="1"
     stroke="none"
     d="m 102.00079,291.18814 c -4.832028,-0.003 -9.164524,0.0238 -13.496479,-0.0129 -14.253624,-0.12091 -24.371262,-9.77927 -24.548325,-24.09756 -0.257538,-20.82508 -0.14711,-41.65557 -0.07835,-62.48334 0.02182,-6.60915 2.538627,-12.29178 7.185531,-17.05249 15.474678,-15.85365 31.134223,-31.53542 46.278913,-47.69905 7.74934,-8.27072 23.06621,-7.93488 30.4462,-0.051 16.276,17.38723 33.12017,34.2426 49.72675,51.32057 0.57918,0.59563 1.14075,1.21831 1.63638,1.8836 2.88182,3.86826 2.77594,7.90009 -0.25718,10.81337 -3.32666,3.19523 -7.33794,3.2024 -11.07193,-0.55525 -11.27195,-11.34329 -22.3861,-22.84344 -33.55869,-34.28543 -5.81949,-5.95984 -11.69794,-11.86407 -17.4212,-17.91502 -2.91262,-3.07936 -5.43926,-3.14313 -8.40657,-0.0711 -15.39279,15.93599 -30.856544,31.80344 -46.298713,47.6917 -1.954811,2.01127 -2.833168,4.35142 -2.824631,7.20831 0.06026,20.16141 -0.01264,40.32323 0.05909,60.48457 0.02213,6.21811 3.523475,9.34433 10.341774,9.35184 28.15956,0.0311 56.31919,-1.2e-4 84.47878,-0.008 1.80728,-5.2e-4 3.61458,-6e-5 6.60921,-6e-5 -8.00373,-7.89004 -15.43412,-15.18802 -22.82981,-22.521 -2.40251,-2.38212 -4.22117,-0.402 -6.17541,0.69783 -18.28308,10.2896 -40.95397,4.84398 -51.828223,-12.45239 -8.2137,-13.06454 -7.742333,-30.27232 1.172493,-42.80467 9.09169,-12.78099 24.56082,-18.41892 40.62074,-14.80472 14.02806,3.15692 26.10429,16.16374 28.26839,31.11867 1.29156,8.92547 0.15882,17.71999 -4.85001,25.46883 -2.19168,3.3906 -1.61014,5.44174 1.13759,8.06286 6.98965,6.66759 13.73894,13.58917 20.52177,20.47086 5.30715,5.38455 5.76903,9.57582 -1.35824,11.54659 1.98074,8.49002 -2.08156,10.66166 -10.99849,10.67436 -23.99382,0.0342 -47.9877,0.0172 -72.48136,0.0204 m 1.29662,-71.48674 c 7.5e-4,0.83199 -0.0227,1.66478 0.006,2.49582 0.4188,12.18867 8.66237,22.67828 20.77877,26.45039 11.33295,3.52823 24.12635,-0.83423 31.44222,-10.7216 6.94132,-9.3812 7.29259,-23.11655 0.83884,-32.79982 -6.72855,-10.0956 -18.97978,-15.12251 -30.42368,-12.48344 -12.06366,2.78198 -20.67727,12.75653 -22.64204,27.05865 z"
     id="path102"
     sodipodi:nodetypes="csssssssssssssssscscssssssssscscccsssscc" /><path
     fill="#000000"
     opacity="1"
     stroke="none"
     d="m 229.01758,182.69492 c 5.46409,0.21167 10.43568,-0.31182 15.40773,0.68145 5.51282,1.10131 11.02023,2.06768 13.10994,8.26885 2.1188,6.28738 0.51458,11.76455 -4.78028,16.46026 3.29139,2.8178 6.24494,5.62828 6.58423,10.17762 0.76294,10.2308 -4.96007,17.19038 -15.66052,17.91488 -7.28484,0.49324 -14.62741,0.10546 -21.94344,0.18129 -2.679,0.0278 -3.98582,-1.08252 -3.98361,-3.83401 0.0123,-15.29918 0.001,-30.5985 -0.0545,-45.89756 -0.01,-2.69003 1.08199,-4.01544 3.8409,-3.9425 2.32625,0.0615 4.65582,-0.002 7.47957,-0.0103 m 13.70172,34.09362 c -1.72411,-1.77546 -3.89629,-2.36422 -6.28539,-2.35011 -2.74977,0.0162 -3.31268,1.87311 -3.06169,4.03076 0.25435,2.18659 -1.44209,5.24129 2.30155,6.1106 4.6741,1.08534 8.06566,-2.19826 7.04553,-7.79125 m -0.45311,-16.83009 c 0.72604,-2.37974 -0.35179,-3.89325 -2.52255,-4.51309 -1.86335,-0.53202 -3.98586,-1.0659 -5.61066,0.46605 -1.32111,1.2456 -1.00394,3.13311 -0.66371,4.681 0.66786,3.03846 4.4167,3.00761 8.79692,-0.63396 z"
     id="path104"
     style="fill:#1a1a1a" /><path
     fill="#000000"
     opacity="1"
     stroke="none"
     d="m 281.12067,209.73108 c 2.63348,-0.39607 5.11288,0.69609 7.51275,-1.63645 -2.66555,-3.77363 -6.15039,-2.88432 -9.58258,-1.95872 -6.57013,1.77183 -7.46695,1.19472 -9.39831,-5.20067 -0.76459,-2.53177 0.0373,-3.77667 2.28689,-4.54249 7.71454,-2.62627 15.53617,-3.74184 23.45557,-1.08793 5.42096,1.81664 8.76575,6.83643 8.86963,13.20263 0.11947,7.32377 0.099,14.65228 -0.0252,21.97595 -0.0336,1.98095 1.03033,5.00119 -1.841,5.52319 -3.10019,0.56362 -6.61054,1.54817 -9.47913,-1.05408 -0.71027,-0.64431 -1.23605,-1.49198 -1.98615,-2.41847 -4.16537,2.9623 -8.38314,5.0358 -13.48507,4.79695 -6.84812,-0.3206 -11.47415,-4.05545 -12.61353,-10.53651 -1.34033,-7.62412 1.59037,-13.01268 8.5788,-15.37608 2.34454,-0.7929 4.84534,-1.12375 7.70737,-1.68732 m 0.37005,15.47964 c 2.82315,1.18219 5.23667,0.66433 6.78861,-2.03685 0.73239,-1.27475 1.01028,-2.98228 -0.2696,-4.12523 -1.47082,-1.31346 -3.14776,-0.43116 -4.63784,0.20768 -2.43479,1.04387 -3.73175,2.69452 -1.88117,5.9544 z"
     id="path106"
     style="fill:#1a1a1a" /><path
     fill="#000000"
     opacity="1"
     stroke="none"
     d="m 387.04901,234.71338 c -4.86844,2.43045 -9.35348,3.02493 -12.90558,-2.2384 -4.30331,3.25669 -8.89145,5.27894 -14.30658,4.80978 -6.5878,-0.57073 -10.91678,-4.59056 -11.97448,-11.31752 -1.0195,-6.48428 2.06777,-11.98425 8.18411,-14.27705 3.27203,-1.22657 6.66797,-1.97045 10.20996,-2.03505 1.73367,-0.0316 3.69943,0.58714 5.39865,-1.46331 -2.06915,-4.13746 -5.60251,-3.06657 -8.82843,-2.23878 -7.0968,1.8211 -7.62842,1.5254 -9.75378,-5.08951 -0.82184,-2.55795 0.0301,-3.80339 2.29824,-4.51634 7.22431,-2.27091 14.51462,-3.63172 22.01996,-1.36792 6.11945,1.84575 9.79911,6.38574 9.89066,12.83755 0.125,8.81055 -0.0516,17.62537 -0.23273,26.89655 m -18.97342,-16.02452 c -0.76257,0.29165 -1.59112,0.47604 -2.2746,0.89633 -1.6506,1.01501 -2.85897,2.49589 -2.05743,4.46857 0.84598,2.08204 2.82724,1.9752 4.64627,1.49554 2.49555,-0.65803 4.01367,-2.43658 4.02734,-4.94328 0.0127,-2.3214 -1.96484,-2.17168 -4.34158,-1.91716 z"
     id="path108"
     style="fill:#1a1a1a" /><path
     fill="#000000"
     opacity="1"
     stroke="none"
     d="m 323.47162,209.07391 c -0.93927,-4.03608 -4.09503,-2.46096 -6.36279,-2.58342 -5.73026,-0.30938 -8.75184,-5.21496 -6.14512,-10.2966 0.77893,-1.51844 2.12134,-1.46078 3.40348,-1.4683 8.47604,-0.0498 16.95453,-0.15577 25.42776,-5.4e-4 3.82053,0.07 5.31482,6.69054 2.306,11.24301 -2.74185,4.14858 -6.01852,7.94055 -8.97638,11.95098 -1.26095,1.70961 -2.86981,3.24076 -3.42105,5.73574 3.18051,2.00962 6.72739,0.99604 10.00769,0.91083 4.4744,-0.11622 4.71057,2.3895 4.63013,5.72032 -0.0788,3.26465 0.34274,6.34737 -4.65988,6.16491 -7.80139,-0.28455 -15.62274,0.0205 -23.43146,-0.13443 -2.13113,-0.0423 -5.25711,1.27145 -6.16049,-1.59131 -0.91745,-2.9074 -1.20905,-6.24878 0.91855,-9.07256 4.09918,-5.44038 8.21472,-10.86845 12.46356,-16.57863 z"
     id="path110"
     style="fill:#1a1a1a" /><path
     fill="#000000"
     opacity="1"
     stroke="none"
     d="m 395.70508,221.99251 c -0.002,-7.48368 -0.0868,-14.47075 0.0451,-21.45374 0.0395,-2.09488 -1.08554,-5.41127 2.3602,-5.57666 3.34137,-0.16035 7.40146,-2.15225 9.95676,2.05937 0.42178,0.69519 0.87396,1.37195 1.47018,2.30446 3.37705,-1.98027 6.1211,-4.84756 10.05481,-5.34805 3.60562,-0.45877 6.46521,-0.12878 5.7966,4.72552 -0.24835,1.80315 -0.12762,3.65409 -0.25369,5.4778 -0.2001,2.89434 -1.36133,4.30562 -4.69733,4.28363 -7.27533,-0.0479 -9.13229,2.01241 -9.20944,9.14635 -0.0504,4.65659 -0.13849,9.31566 -0.0389,13.96999 0.0695,3.25253 -0.97922,4.88736 -4.57239,4.83674 -12.71402,-0.17906 -10.71167,0.97621 -10.90872,-10.43457 -0.0201,-1.16389 -0.003,-2.32844 -0.003,-3.99084 z"
     id="path112"
     style="fill:#1a1a1a" /><path
     fill="#000000"
     opacity="1"
     stroke="none"
     d="m 303.65411,269.66321 c -0.48629,-3.33743 -2.5354,-3.69019 -4.87799,-3.2768 -2.37015,0.41828 -3.22302,2.28797 -3.34677,4.39005 -0.18582,3.1564 -0.0907,6.32837 -0.18771,9.49145 -0.0417,1.35865 -0.23911,2.78727 -2.08896,2.7883 -1.82822,0.001 -2.10245,-1.40838 -2.14578,-2.77459 -0.10562,-3.32975 -0.0905,-6.66306 -0.15811,-9.9943 -0.0401,-1.97607 -0.54053,-3.68512 -2.89191,-3.97735 -2.28891,-0.28443 -3.81043,0.70227 -4.70188,2.83474 -1.34085,3.20761 -0.71713,6.5774 -0.96246,9.87757 -0.11276,1.51718 0.5437,3.85544 -1.93433,3.84613 -2.10119,-0.008 -1.69024,-2.14557 -1.70983,-3.52887 -0.0753,-5.3038 -0.0305,-10.60931 -0.0305,-16.27728 5.2424,0.53497 10.04971,-2.56482 14.81207,0.66033 1.56244,1.05811 2.76309,-0.65332 4.11899,-1.08749 5.5889,-1.78952 9.79688,0.59354 10.45944,6.39664 0.41333,3.62002 0.20642,7.31787 0.16526,10.97952 -0.0172,1.53662 -0.31772,3.17462 -2.42707,3.02707 -1.77139,-0.12387 -1.94119,-1.60385 -1.97156,-2.9566 -0.0748,-3.33091 -0.0679,-6.66361 -0.12094,-10.41852 z"
     id="path114"
     style="fill:#333333" /><path
     fill="#000000"
     opacity="1"
     stroke="none"
     d="m 233.20758,261.15082 c 0.003,6.29052 -0.0102,12.10043 0.0117,17.91015 0.01,2.64615 -0.38931,4.77683 -3.91034,3.91727 -0.60559,-0.1478 -1.34447,-0.067 -1.94551,0.13501 -4.28089,1.43897 -8.42211,1.55603 -11.06638,-2.69903 -2.72201,-4.38016 -2.51631,-9.34791 -0.46242,-13.85901 2.4291,-5.33512 7.27178,-4.88269 11.78852,-3.59974 1.58041,-1.47335 0.8658,-3.06381 1.06312,-4.46832 0.24051,-1.71197 -0.36808,-4.20575 2.32666,-4.09662 2.56473,0.10385 2.00553,2.56177 2.17591,4.28864 0.0649,0.6578 0.0148,1.32696 0.0188,2.47165 m -6.06636,6.24963 c -2.93736,-1.94797 -5.73918,-2.01843 -7.52766,1.33304 -1.82917,3.42773 -2.05721,7.11075 1.01986,10.03375 2.59076,2.46106 7.07939,0.9765 7.78636,-2.57132 0.54149,-2.71737 0.77538,-5.5874 -1.27856,-8.79547 z"
     id="path116"
     style="fill:#333333" /><path
     fill="#000000"
     opacity="1"
     stroke="none"
     d="m 254.32118,267.14273 c 1.66739,6.45606 1.18735,7.11176 -4.85223,7.17023 -0.9968,0.01 -2.00418,-0.10398 -2.98844,0.005 -1.51121,0.16671 -3.82293,-0.66239 -3.9344,1.80358 -0.10753,2.37806 1.82761,3.24317 3.97786,3.63559 2.42368,0.44233 4.91843,-0.89294 7.56619,0.38269 -0.48095,4.36628 -4.06276,3.76047 -6.64027,3.85105 -4.96956,0.17462 -8.94711,-3.18915 -9.73103,-7.60016 -1.14248,-6.42853 0.74069,-11.53671 4.96301,-13.46249 4.26965,-1.94733 8.26475,-0.61722 11.63931,4.2149 m -4.31422,0.91406 c -4.21613,-2.96701 -5.69579,-2.59955 -7.35225,2.1164 2.70811,-0.0424 5.62892,2.28747 7.35225,-2.1164 z"
     id="path118"
     style="fill:#333333" /><path
     fill="#000000"
     opacity="1"
     stroke="none"
     d="m 313.89935,279.86877 c -3.30664,-7.88201 -1.54617,-14.98834 3.93958,-17.08297 4.69821,-1.79392 9.81427,-0.11896 12.13669,3.97345 2.70144,4.76034 1.68429,12.05426 -2.11283,15.15097 -4.11899,3.35922 -9.10751,2.73904 -13.96344,-2.04145 m 2.5405,-4.93014 c 0.21677,0.62134 0.36237,1.2796 0.66217,1.85791 1.59167,3.07043 4.27267,3.91891 7.06595,2.3132 3.70328,-2.12878 3.17026,-5.93719 2.3118,-9.33569 -0.7789,-3.08353 -3.3526,-4.19315 -6.23053,-3.31501 -3.72736,1.13734 -3.99018,4.42194 -3.80939,8.47959 z"
     id="path120"
     style="fill:#333333" /><path
     fill="#000000"
     opacity="1"
     stroke="none"
     d="m 369.93848,280.47668 c -1.79886,4.48694 -5.44965,3.694 -8.72803,3.16904 -3.92264,-0.62811 -6.70889,-3.00638 -7.37845,-7.06625 -0.37271,-2.25992 -0.34567,-4.66065 -0.0506,-6.93991 0.5698,-4.40232 4.21958,-7.47974 8.55246,-7.57727 4.3815,-0.0986 7.85492,2.79443 8.7518,7.30792 0.57978,2.91754 -0.0248,4.98068 -3.57467,4.92862 -1.82447,-0.0268 -3.65345,-0.0629 -5.47364,0.0331 -1.39428,0.0736 -3.34283,-0.42374 -3.50586,1.75208 -0.14413,1.92291 1.3331,2.89651 2.99808,3.47613 2.70419,0.94141 5.59692,-0.858 8.40894,0.91653 m -11.40723,-11.46072 c 2.34586,2.78061 4.94934,1.72611 7.69486,0.79987 -2.03712,-4.53605 -3.66788,-4.77637 -7.69486,-0.79987 z"
     id="path122"
     style="fill:#333333" /><path
     fill="#000000"
     opacity="1"
     stroke="none"
     d="m 109.00469,317.28189 c 3.58007,4.17105 5.46211,4.31262 7.83718,-0.0962 1.7275,-3.20676 5.76913,-1.47562 7.36024,-4.19858 -1.10104,-2.8081 -3.82359,-0.59616 -5.56577,-2.30585 1.72827,-2.25839 3.79395,-2.96142 6.34618,-1.6539 2.89268,1.48188 3.52238,5.54816 2.0522,12.60001 -4.88399,2.32211 -10.23779,-0.0922 -15.37848,1.1214 -2.35827,0.5567 -5.04028,-1.7041 -5.14091,-4.45157 -0.10723,-2.92785 -1.09326,-6.52811 2.55576,-8.47458 2.23466,-1.19205 4.46056,-2.07654 6.97492,0.69046 -3.33623,1.4361 -8.25882,0.97461 -7.04132,6.76877 z"
     id="path124"
     style="fill:#216778" /><path
     fill="#000000"
     opacity="1"
     stroke="none"
     d="m 385.97864,279.58527 c 3.07046,0.0876 5.96728,1.35119 8.42495,-1.42502 -0.9783,-2.8107 -3.54788,-3.25452 -5.7398,-4.22156 -2.67328,-1.17944 -5.01895,-2.62564 -5.00308,-6.09192 0.0115,-2.50384 1.25247,-4.05112 3.4541,-4.93274 3.25714,-1.30426 6.49881,-1.07083 9.62005,0.41492 0.40021,0.19049 0.7013,1.16687 0.60684,1.70111 -0.2106,1.1911 -1.21972,1.34555 -2.2984,1.36173 -2.37222,0.0356 -4.94665,-1.18033 -7.18435,1.11254 0.61728,3.09732 3.51089,3.14032 5.59805,4.07895 2.74146,1.23285 4.92569,2.67185 4.88834,6.1239 -0.0288,2.66251 -1.19239,4.45511 -3.6232,5.36801 -3.38889,1.27274 -6.9029,1.70829 -10.00647,-0.47805 -1.37717,-0.97016 -1.59638,-2.64127 1.26297,-3.01187 z"
     id="path126"
     style="fill:#333333" /><path
     fill="#000000"
     opacity="1"
     stroke="none"
     d="m 340.21271,271.62262 c 0.65289,1.51971 1.19076,2.70441 1.80789,4.06375 4.5061,-3.25757 2.22308,-11.36239 8.42422,-12.97116 0.56855,0.32126 1.13709,0.64249 1.70563,0.96374 -2.28482,5.94211 -4.3584,11.97825 -6.94388,17.7865 -1.28677,2.89078 -4.73541,2.59815 -6.01254,-0.53091 -2.30234,-5.64084 -4.86352,-11.22406 -6.14435,-17.25751 3.63571,-0.71295 3.63571,-0.71295 7.16303,7.94559 z"
     id="path128"
     style="fill:#333333" /><path
     fill="#000000"
     opacity="1"
     stroke="none"
     d="m 197.48285,313.75348 c 0.11003,2.33572 -1.10596,2.78686 -2.82697,2.86529 -1.56103,0.0712 -3.43481,-0.39392 -4.19861,1.71607 0.7365,3.70212 4.47887,0.70865 6.03536,2.65201 -3.70125,2.66195 -7.28912,2.3656 -9.25433,-0.69556 -2.07485,-3.2319 -0.73137,-9.28467 2.45843,-11.0759 3.13504,-1.76049 5.72896,-0.35214 7.78612,4.53809 z"
     id="path130"
     style="fill:#216778" /><path
     fill="#000000"
     opacity="1"
     stroke="none"
     d="m 213.35983,316.38531 c -0.11049,2.02875 0.23659,3.72989 -0.81001,5.24701 -1.85979,-2.11038 -2.60561,-10.16098 -1.16565,-11.81152 1.10612,-1.26782 12.75818,-1.7579 14.80226,-0.62259 2.81484,1.56348 3.61044,7.52988 1.32007,12.77017 -1.24075,-2.54431 -0.72246,-4.80911 -0.87903,-6.93737 -0.11723,-1.59357 -0.45741,-3.20569 -2.27525,-3.35968 -2.07471,-0.17579 -2.78882,1.39096 -2.99526,3.22692 -0.24859,2.2107 0.35947,4.57978 -1.07347,7.05188 -2.25865,-1.69674 -1.40217,-3.80233 -1.62242,-5.56909 -0.2325,-1.86496 0.61034,-4.54687 -2.27977,-4.69964 -2.59291,-0.13706 -2.94313,2.18448 -3.02147,4.70391 z"
     id="path132"
     style="fill:#216778" /><path
     fill="#000000"
     opacity="1"
     stroke="none"
     d="m 265.82425,315.59851 c -2.41763,0.89185 -4.60181,1.44833 -6.90216,2.03442 0.4978,4.61027 4.76501,1.60047 6.80218,3.68552 -2.51556,2.02087 -4.94259,2.15338 -7.38885,0.72376 -3.0137,-1.76117 -3.31319,-4.86622 -3.0432,-7.85801 0.23833,-2.64093 1.93559,-4.58142 4.53865,-5.37283 3.65439,-1.11105 6.06641,1.44385 5.99338,6.78714 z"
     id="path134"
     style="fill:#216778" /><path
     fill="#000000"
     opacity="1"
     stroke="none"
     d="m 326.50287,313.08655 c -0.97092,2.94925 0.20294,5.93518 -1.67209,8.91656 -1.64923,-1.91729 -1.1134,-3.75354 -1.20862,-5.42291 -0.12414,-2.17734 0.0322,-4.88464 -2.92865,-4.87177 -2.85797,0.0124 -2.21823,2.72803 -2.41867,4.62595 -0.18451,1.74677 0.51572,3.67703 -1.64041,5.8132 -1.80301,-4.26562 -0.70804,-8.20474 -0.87988,-11.85513 4.69333,-2.81921 9.44732,-0.4119 13.95407,-1.38596 1.85159,-0.4002 3.37683,1.47196 3.51684,3.51172 0.211,3.07468 0.53763,6.19779 -0.47061,9.86511 -2.62915,-2.30374 -1.59237,-4.92306 -1.86606,-7.16757 -0.33868,-2.77749 -0.98181,-4.84952 -4.38592,-2.0292 z"
     id="path136"
     style="fill:#216778" /><path
     fill="#000000"
     opacity="1"
     stroke="none"
     d="m 355.55487,315.75143 c 1.21774,-6.48861 5.14966,-8.89218 9.04099,-5.93994 1.59738,1.21192 2.40356,2.7454 2.05181,4.7414 -0.41113,2.33316 -2.30136,1.95965 -3.92251,2.01291 -1.3245,0.0435 -2.67706,-0.0213 -3.66562,1.3432 0.61874,4.16247 4.74875,1.38763 6.72495,3.0654 -5.36191,3.64984 -8.93509,1.8692 -10.22962,-5.22297 z"
     id="path138"
     style="fill:#216778" /><path
     fill="#000000"
     opacity="1"
     stroke="none"
     d="m 141.77783,314.95816 c -0.1031,2.51923 -0.27849,4.64191 -0.44804,6.69403 -8.5689,2.3028 -12.22884,0.15561 -11.90956,-6.84024 0.13545,-2.96768 1.69664,-5.47839 4.46026,-5.78381 3.21543,-0.35535 5.13835,-1.42972 5.69142,-5.36609 3.01014,3.79333 1.03128,7.63867 2.20592,11.29611 m -3.9026,-2.16553 c -1.47391,-1.74862 -3.19345,-1.83102 -4.61385,-0.18081 -1.54143,1.79086 -1.23677,4.02468 -0.43001,6.06677 0.52887,1.33868 1.69347,2.11194 3.18041,1.53168 2.19032,-0.85483 2.62132,-2.76569 2.52985,-4.86026 -0.0282,-0.64731 -0.20674,-1.28806 -0.6664,-2.55738 z"
     id="path140"
     style="fill:#216778" /><path
     fill="#000000"
     opacity="1"
     stroke="none"
     d="m 181.55032,322.34613 c -6.14242,0.87848 -8.3435,-0.26605 -9.11783,-4.53131 -0.95379,-5.25388 0.87233,-8.36447 6.38529,-9.03272 3.13333,-0.37979 2.23813,-3.28436 4.57274,-4.76538 1.34118,6.00775 1.13522,11.67701 0.59082,17.34638 -0.0926,0.9646 -1.25008,0.89761 -2.43102,0.98303 m -0.034,-7.50055 c -0.43472,-1.70029 -1.12692,-3.19177 -3.16241,-3.33353 -1.53887,-0.10717 -2.41503,0.80753 -3.05887,2.10923 -0.90453,1.82864 -0.71935,3.55447 0.38614,5.18679 0.67605,0.99823 1.61953,1.88743 2.90628,1.43927 2.15095,-0.74914 2.97302,-2.50405 2.92886,-5.40176 z"
     id="path142"
     style="fill:#216778" /><path
     fill="#000000"
     opacity="1"
     stroke="none"
     d="m 350.92413,306.1626 c 1.34159,-2.4668 2.36649,-1.71445 2.30466,0.12347 -0.17108,5.08585 1.53201,10.19968 -0.14038,15.23624 -7.80484,2.39276 -11.68182,0.33609 -11.40299,-6.0734 0.16074,-3.69528 1.64847,-6.44137 5.771,-6.78805 1.55661,-0.13092 3.03946,-0.1695 3.46771,-2.49826 m -3.30438,5.30768 c -4.27106,1.42764 -3.68982,4.48172 -2.29941,7.52267 0.68131,1.49011 2.39963,2.1918 3.67813,0.81216 2.26307,-2.4421 2.47403,-5.22595 0.20856,-7.91439 -0.18695,-0.22187 -0.58478,-0.26596 -1.58728,-0.42044 z"
     id="path144"
     style="fill:#216778" /><path
     fill="#000000"
     opacity="1"
     stroke="none"
     d="m 73.35672,308.60135 c 5.561958,1.14215 8.026726,4.30933 7.029716,8.56909 -1.255172,5.36282 -4.236068,6.53964 -11.675468,4.32901 0.0038,-5.59915 -0.511414,-11.32059 0.324516,-17.11472 2.807213,0.36722 1.374359,4.02271 4.321236,4.21662 m -2.171211,6.95859 c 0.07573,2.2236 0.298904,4.67074 3.129013,4.66738 2.410354,-0.003 2.933922,-2.28787 3.225006,-4.28546 0.290565,-1.99405 -0.345345,-3.71908 -2.402954,-4.27478 -2.525315,-0.6821 -3.591637,0.8595 -3.951065,3.89286 z"
     id="path146"
     style="fill:#216778" /><path
     fill="#000000"
     opacity="1"
     stroke="none"
     d="m 242.97673,311.94272 c 0.17029,1.15301 0.47198,2.30429 0.48741,3.45938 0.0574,4.29489 -2.70514,7.47986 -6.3685,7.46353 -3.68179,-0.0164 -6.28366,-3.23617 -6.16289,-7.62653 0.094,-3.41705 5.37996,-9.93029 8.97188,-11.03411 0.99497,1.68634 -1.56073,2.4736 -1.02514,4.03259 1.22395,1.11047 2.45015,2.22159 3.89785,3.53946 0.2215,0.20675 0.19939,0.16568 0.19939,0.16568 m -5.028,8.17843 c 0.6962,-0.68084 1.61012,-1.24588 2.0459,-2.06524 1.10544,-2.07852 1.02957,-4.21247 -0.84776,-5.82984 -1.42637,-1.22885 -3.11887,-1.16934 -4.41529,0.26938 -1.59558,1.77069 -1.78799,3.81491 -0.5993,5.93308 0.69517,1.23868 1.67486,2.00717 3.81645,1.69262 z"
     id="path148"
     style="fill:#216778" /><path
     fill="#000000"
     opacity="1"
     stroke="none"
     d="m 312.79327,312.29095 c 0.34412,0.81611 0.5484,1.28046 0.64832,1.7663 0.80838,3.93015 -0.34363,7.13022 -4.2388,8.45123 -3.22348,1.0932 -6.09714,-0.31164 -7.38431,-3.45193 -1.31918,-3.21851 -1.46524,-6.68869 1.83035,-9.02304 3.53128,-2.50131 6.57566,-1.55768 9.14444,2.25744 m -4.0307,-0.48727 c -3.81872,-1.13278 -4.72958,1.15042 -4.61371,4.17819 0.0818,2.13892 0.56226,4.76459 3.47486,4.21695 3.02301,-0.56839 3.28106,-3.29428 2.88687,-5.88428 -0.11292,-0.74197 -0.74567,-1.40481 -1.74802,-2.51086 z"
     id="path150"
     style="fill:#216778" /><path
     fill="#000000"
     opacity="1"
     stroke="none"
     d="m 84.325012,312.32016 c 0.02316,1.57285 0.01278,2.73297 0.06085,3.89069 0.08649,2.08325 0.357193,4.3587 3.110497,4.02887 2.307037,-0.27634 3.073623,-2.24665 2.976471,-4.47989 -0.0954,-2.19269 -0.947693,-4.54728 1.620475,-6.85062 2.80439,4.19141 1.768281,8.54605 1.110909,12.42514 -0.34494,2.03546 -3.756889,1.35248 -5.777588,1.5697 -2.001022,0.21506 -4.041641,-0.49798 -4.798187,-2.73977 -1.163933,-3.44901 -1.622238,-6.9314 -0.05381,-10.35843 1.82669,0.003 1.556923,1.20947 1.750381,2.51431 z"
     id="path152"
     style="fill:#216778" /><path
     fill="#000000"
     opacity="1"
     stroke="none"
     d="m 143.58813,315.79382 c 0.98369,-5.48977 3.58091,-7.81903 7.33831,-6.96896 3.91607,0.88599 5.94819,5.19778 4.46382,9.52225 -1.03922,3.02752 -3.17236,4.72177 -6.37976,4.37313 -3.76279,-0.40899 -5.31484,-2.95254 -5.42237,-6.92642 m 8.7871,-2.39361 c -1.12998,-1.83405 -2.71346,-2.56195 -4.55643,-1.26383 -2.10307,1.48133 -1.78017,3.74979 -1.22032,5.86472 0.35982,1.35928 1.38831,2.48297 2.8423,2.30215 2.33789,-0.29083 3.19508,-2.09628 3.3546,-4.25131 0.0478,-0.64532 -0.11185,-1.30597 -0.42015,-2.65173 z"
     id="path154"
     style="fill:#216778" /><path
     fill="#000000"
     opacity="1"
     stroke="none"
     d="m 272.5264,282.32935 c -2.82163,1.4494 -3.67975,0.0509 -3.71979,-2.141 -0.0849,-4.64721 -0.0734,-9.29714 -0.0287,-13.94525 0.0142,-1.47772 0.0125,-3.19638 2.12998,-3.27957 2.1629,-0.085 2.29208,1.62238 2.26907,3.11713 -0.0815,5.29751 0.53742,10.61361 -0.65057,16.24869 z"
     id="path156"
     style="fill:#333333" /><path
     fill="#000000"
     opacity="1"
     stroke="none"
     d="m 102.58067,315.5603 c 2.80841,1.90558 2.99476,4.22714 0.86808,6.0058 -2.63443,2.20334 -5.59335,1.99036 -8.25877,-0.42685 1.086326,-1.71353 2.255981,-0.79806 3.318016,-0.67923 1.24398,0.13922 2.310594,-0.0313 2.934934,-1.56805 -0.96903,-3.27036 -9.454542,-3.1492 -4.726698,-8.95618 2.065773,-2.53732 5.174818,-2.10464 7.830778,0.41397 -1.68032,1.87857 -4.07131,0.51187 -5.295118,2.27765 0.0023,1.98547 2.026128,1.82074 3.328778,2.93289 z"
     id="path158"
     style="fill:#216778" /><path
     fill="#000000"
     opacity="1"
     stroke="none"
     d="m 375.08362,315.11316 c 2.99002,1.73019 3.79983,4.00793 1.55578,6.24164 -2.5617,2.54989 -5.50177,1.84594 -8.41415,0.18063 1.00848,-2.08444 2.23663,-1.11542 3.25674,-1.05963 1.22886,0.0672 2.30137,-0.0481 2.94272,-1.57208 -0.9805,-3.25071 -8.98788,-2.93634 -5.10055,-8.51084 1.77075,-2.53936 5.05551,-2.64999 7.68448,0.037 -1.30497,1.64282 -3.50055,0.4968 -4.68293,2.27841 -0.26532,1.64609 1.40653,1.64993 2.75791,2.40488 z"
     id="path160"
     style="fill:#216778" /><path
     fill="#000000"
     opacity="1"
     stroke="none"
     d="m 392.50595,321.36456 c -1.20242,-1.29187 -1.77264,-2.44992 -1.86847,-3.83615 -0.23386,-3.38464 -0.48334,-6.77719 3.53552,-8.33929 2.63712,-1.02506 5.0311,-0.46006 6.6464,1.78967 2.26812,3.15894 2.20935,6.65799 -0.0821,9.72076 -2.13552,2.85444 -5.03155,2.80182 -8.23138,0.66501 m 4.6369,-9.73266 c -4.01916,-0.20908 -4.76037,2.35559 -4.15298,5.43469 0.38366,1.94516 1.7872,4.06009 4.16287,3.01016 2.93069,-1.29523 2.93045,-4.07617 1.96808,-6.78 -0.19742,-0.55472 -0.87778,-0.93759 -1.97797,-1.66485 z"
     id="path162"
     style="fill:#216778" /><path
     fill="#000000"
     opacity="1"
     stroke="none"
     d="m 434.86121,321.76807 c -4.43927,1.88226 -7.629,0.83627 -8.89307,-3.48606 -0.95837,-3.27713 -0.61652,-6.67419 2.7558,-8.73089 2.62655,-1.60184 5.46011,-1.1214 7.09628,1.22424 2.44672,3.50775 2.59503,7.35129 -0.95901,10.99271 m -0.0506,-7.012 c -0.28147,-2.35501 -1.45981,-3.77887 -3.95472,-3.16571 -2.11502,0.51987 -2.61398,2.31693 -2.56719,4.27927 0.0502,2.10898 0.51644,4.3186 2.94897,4.45621 3.12344,0.17669 3.51926,-2.3573 3.57294,-5.56977 z"
     id="path164"
     style="fill:#216778" /><path
     fill="#000000"
     opacity="1"
     stroke="none"
     d="m 281.87372,321.10672 c -4.89472,2.43234 -5.04334,2.42361 -8.40119,-0.22107 1.51416,-2.0368 4.77869,1.46518 5.94861,-2.10864 -0.96942,-3.1135 -8.84024,-2.96689 -4.90533,-8.51004 1.74063,-2.45206 4.78814,-2.16452 7.3334,-0.11405 -1.31058,2.34064 -3.86032,0.23978 -5.09842,2.37659 0.99253,3.13135 7.8996,2.83286 5.12293,8.57721 z"
     id="path166"
     style="fill:#216778" /><path
     fill="#000000"
     opacity="1"
     stroke="none"
     d="m 413.58261,317.16949 c 0.007,-2.81747 -0.0842,-5.51013 -3.20163,-5.58795 -3.38867,-0.0846 -2.92514,2.8628 -3.11481,5.11905 -0.14099,1.67752 0.39707,3.57056 -1.76388,5.45242 -1.48944,-4.33401 -0.54175,-8.15637 -0.76608,-12.17321 3.41433,-0.4657 6.93744,-3.02085 9.39859,0.28479 2.36279,3.17346 2.4107,7.24649 0.70938,11.7521 -1.4863,-1.62631 -1.17749,-3.09485 -1.26157,-4.8472 z"
     id="path168"
     style="fill:#216778" /><path
     fill="#000000"
     opacity="1"
     stroke="none"
     d="m 243.01236,312.00275 c 0.21347,-0.91275 0.0553,-2.01783 1.52083,-2.6084 2.92192,1.27813 1.92499,5.41275 4.84135,7.14657 2.27628,-1.6593 1.22312,-5.73483 5.34043,-7.35135 -0.85074,5.27497 -2.50582,9.30524 -5.26769,13.37128 -3.7197,-2.8883 -3.48917,-7.3099 -6.23575,-10.36026 -0.2348,-0.25787 -0.21269,-0.2168 -0.19917,-0.19784 z"
     id="path170"
     style="fill:#216778" /><path
     fill="#000000"
     opacity="1"
     stroke="none"
     d="m 379.27515,265.31586 c 0.0425,5.29074 0.074,10.11236 0.0281,14.93322 -0.0107,1.12888 -0.0227,2.53363 -1.58645,2.66761 -1.94388,0.16653 -2.0036,-1.40949 -2.01896,-2.71927 -0.0564,-4.82089 -0.0544,-9.64301 -0.0109,-14.46408 0.0102,-1.13471 0.042,-2.44974 1.6153,-2.64972 1.25888,-0.16004 1.72726,0.6925 1.97287,2.23224 z"
     id="path172"
     style="fill:#333333" /><path
     fill="#000000"
     opacity="1"
     stroke="none"
     d="m 385.276,311.43457 c -3.5657,1.1254 -3.39795,3.66846 -2.95236,6.21323 0.70135,4.00512 4.48117,2.23001 7.7102,3.50876 -3.77127,2.43041 -6.5823,2.0812 -9.02917,-0.31366 -2.7829,-2.72379 -2.6842,-6.14188 -0.67679,-9.13303 1.87955,-2.80057 4.63886,-4.08551 8.11444,-1.95111 -0.43063,1.7865 -1.7731,1.4154 -3.16632,1.67581 z"
     id="path174"
     style="fill:#216778" /><path
     fill="#000000"
     opacity="1"
     stroke="none"
     d="m 296.80023,308.69128 c 1.42459,0.12012 2.39115,0.32563 2.60538,1.91544 -2.81467,1.06699 -7.03235,1.16202 -6.66803,5.62579 0.32056,3.92786 3.83536,4.34107 7.92676,4.65653 -2.94342,2.48657 -5.19287,2.45541 -7.46881,1.07892 -2.92133,-1.76682 -2.67896,-4.73401 -2.55939,-7.57688 0.15405,-3.66217 2.46258,-5.20205 6.16409,-5.6998 z"
     id="path176"
     style="fill:#216778" /><path
     fill="#000000"
     opacity="1"
     stroke="none"
     d="m 420.4845,307.1817 c 1.25299,1.00208 2.24182,1.83631 3.23718,2.67609 -3.87555,3.95416 -3.4397,9.336 0.58032,11.94168 -2.14291,1.65756 -4.44003,1.05127 -4.94125,-0.84589 -1.01914,-3.85745 -1.25003,-7.94766 -1.50308,-11.96103 -0.0471,-0.7478 0.75689,-2.29013 2.62683,-1.81085 z"
     id="path178"
     style="fill:#216778" /><path
     fill="#000000"
     opacity="1"
     stroke="none"
     d="m 158.42595,321.25598 c -0.59537,-2.5773 -1.10857,-4.85608 -1.17236,-7.1474 -0.14235,-5.1131 2.49498,-6.54584 8.16174,-4.01779 -4.84392,1.72736 -5.41475,5.40274 -5.16033,9.52756 0.0559,0.90628 -0.0526,2.07373 -1.82905,1.63763 z"
     id="path180"
     style="fill:#216778" /><path
     fill="#000000"
     opacity="1"
     stroke="none"
     d="m 320.10055,260.79205 c -0.49417,-4.63781 1.57956,-6.77257 6.0676,-6.38266 -0.41531,3.54196 -2.60641,5.38837 -6.0676,6.38266 z"
     id="path182"
     style="fill:#333333" /><path
     fill="#000000"
     opacity="1"
     stroke="none"
     d="m 268.61969,317.73791 c 0.0806,-2.93875 -0.51737,-5.5819 1.14087,-9.03826 2.57675,4.87204 1.54449,8.93347 0.91177,13.25888 -2.7799,-0.82181 -1.9328,-2.52671 -2.05264,-4.22062 z"
     id="path184"
     style="fill:#216778" /><path
     fill="#000000"
     opacity="1"
     stroke="none"
     d="m 208.32599,314.19568 c -0.25749,2.77072 0.66357,5.31802 -2.00031,8.73157 -1.0625,-5.28165 -0.92221,-9.20807 -0.24301,-13.40314 3.00415,0.79254 1.91156,2.80319 2.24332,4.67157 z"
     id="path186"
     style="fill:#216778" /><path
     fill="#000000"
     opacity="1"
     stroke="none"
     d="m 376.07825,259.51495 c -0.93808,-1.94229 -1.20353,-3.59634 1.19146,-3.99135 1.33231,-0.21971 2.22965,0.76754 2.18814,2.09636 -0.063,2.01941 -0.93487,3.17441 -3.3796,1.89499 z"
     id="path188"
     style="fill:#333333" /><path
     fill="#000000"
     opacity="1"
     stroke="none"
     d="m 376.71423,261.87286 c -0.93808,-1.94229 -1.20353,-3.59634 1.19146,-3.99135 1.33231,-0.21971 2.22965,0.76754 2.18814,2.09636 -0.063,2.01941 -0.93487,3.17441 -3.3796,1.89499 z"
     id="path188-5"
     style="fill:#333333" /><g
     id="g9739"
     transform="translate(-8.5923913,31.505435)"><path
       style="fill:#ffffff;fill-opacity:1;stroke-width:0.168478"
       d="m 193.49728,249.09511 c -8.30574,-8.30675 -9.31588,-9.37318 -9.09124,-9.59781 0.22464,-0.22464 1.29094,0.78562 9.59668,9.09237 8.30574,8.30676 9.31587,9.37318 9.09124,9.59782 -0.22464,0.22464 -1.29094,-0.78563 -9.59668,-9.09238 z"
       id="path8946" /></g><path
     style="fill:#004455;fill-opacity:1;stroke-width:0.673913"
     d="m 171.47774,265.85425 c -10.01454,-9.98737 -14.27958,-13.81077 -15.40601,-13.81077 -0.85671,0 -3.72278,1.06563 -6.36904,2.36807 -25.78991,12.69333 -55.017907,-5.14635 -55.017907,-33.58086 0,-10.1511 3.369383,-18.44682 10.619847,-26.14699 7.11477,-7.55607 16.1847,-11.37935 26.99512,-11.37935 10.79401,0 19.07165,3.4193 26.56878,10.97495 11.91025,12.00323 14.58998,29.36344 6.84325,44.33296 -1.83574,3.54731 -2.31684,5.14216 -1.97127,6.53472 0.28265,1.13903 5.16692,6.60074 12.79663,14.30954 12.01742,12.14197 13.84329,14.31038 13.84329,16.44031 0,1.30896 -2.6197,3.77848 -4.00207,3.77264 -0.57875,-0.003 -7.28403,-6.21931 -14.90062,-13.81522 z m -27.42308,-18.3518 c 18.4848,-8.65529 23.06341,-32.84421 8.8982,-47.00942 -11.51362,-11.51362 -29.4664,-11.74882 -40.65168,-0.53258 -4.37911,4.39124 -6.95902,9.15518 -8.61991,15.91712 -2.16915,8.83125 0.76379,18.38206 7.80819,25.42645 3.63984,3.63985 9.28007,6.97247 13.71107,8.10142 1.19297,0.30395 4.89838,0.47997 8.23425,0.39116 5.20243,-0.13851 6.71313,-0.46486 10.61988,-2.29415 z"
     id="path29742" /><path
     style="fill:#0088aa;fill-opacity:1;stroke-width:0.673913"
     d="m 175.34313,269.05106 c -15.68037,-15.24295 -17.71046,-17.00758 -19.56606,-17.00758 -0.91426,0 -3.73699,0.93085 -6.27273,2.06856 -6.02474,2.70311 -11.58739,3.9744 -17.44427,3.9867 -16.38607,0.0344 -31.06148,-11.119 -35.678862,-27.11613 -1.28686,-4.4584 -1.480223,-14.03053 -0.381903,-18.90555 2.620415,-11.63103 13.390805,-23.22826 24.867045,-26.77607 5.10991,-1.5797 15.12685,-1.90766 20.57767,-0.67371 7.99434,1.80973 16.40805,7.78792 21.52638,15.29512 4.47823,6.56834 6.01146,11.27865 6.37111,19.5731 0.32419,7.47642 -0.91141,13.18916 -4.29822,19.87271 -2.98043,5.88157 -3.41523,5.18508 15.38203,24.63977 6.54761,6.7766 9.2812,10.0705 9.2812,11.18359 0,1.64991 -1.86859,3.80843 -3.29689,3.80843 -0.45764,0 -5.43756,-4.47702 -11.0665,-9.94894 z m -30.7746,-21.51961 c 7.86032,-3.87652 14.18498,-11.82864 16.16082,-20.31933 4.42596,-19.01942 -11.2378,-37.09649 -30.86206,-35.61696 -19.36909,1.46028 -32.687162,23.74373 -24.56471,41.10101 3.31558,7.08524 9.74041,13.18304 16.95036,16.08759 2.48043,0.99924 4.56949,1.21246 10.52211,1.0739 6.81109,-0.15854 7.78945,-0.35151 11.79348,-2.32621 z"
     id="path30033" /><path
     style="fill:#216778;fill-opacity:1;stroke-width:0.673913"
     d="m 171.85639,265.18478 c -15.67489,-14.79091 -14.99508,-14.44164 -22.24769,-11.43059 -15.63639,6.49169 -30.37269,4.60288 -41.91201,-5.37201 -3.50596,-3.03064 -8.350024,-10.29377 -10.142992,-15.20827 -1.799954,-4.93365 -2.448853,-12.69865 -1.548716,-18.53261 1.665158,-10.79219 9.961208,-21.78279 20.276238,-26.86192 9.95825,-4.90345 22.44002,-4.87733 32.28845,0.0676 8.94796,4.49277 16.82679,14.01496 19.30872,23.3361 1.18675,4.45693 1.18385,15.27475 -0.005,19.74088 -0.50936,1.91306 -1.71881,5.20976 -2.68765,7.32601 -2.15862,4.71503 -2.21683,6.96258 -0.24583,9.4907 0.83364,1.06928 6.5956,7.36835 12.80434,13.99794 7.41029,7.91245 11.28875,12.55478 11.28875,13.51196 0,1.60531 -1.16329,3.07555 -2.43345,3.07555 -0.44884,0 -7.08309,-5.91359 -14.74277,-13.14131 z m -26.97906,-17.52174 c 2.21622,-1.11195 5.72233,-3.73384 7.79134,-5.82642 14.76036,-14.92842 10.81658,-38.28875 -8.03716,-47.60678 -4.91841,-2.43081 -5.27272,-2.50158 -12.52377,-2.50158 -7.03196,0 -7.71454,0.12424 -11.83959,2.155 -11.32578,5.57566 -18.02408,16.95753 -17.36537,29.50755 0.24105,4.59258 0.68959,6.41349 2.47132,10.03271 2.75385,5.59385 8.60899,11.51111 14.30114,14.45285 4.31328,2.22914 4.34713,2.2345 12.74867,2.02174 7.79427,-0.19738 8.7251,-0.36444 12.45342,-2.23507 z"
     id="path30376" /></g></svg>
