<?xml version="1.0" encoding="UTF-8" standalone="no"?>
<svg
   version="1.1"
   id="Layer_1"
   x="0px"
   y="0px"
   width="100%"
   viewBox="0 0 496 496"
   enable-background="new 0 0 496 496"
   xml:space="preserve"
   sodipodi:docname="Caixa de imóveis_adobe_express.svg"
   inkscape:version="1.1.2 (b8e25be833, 2022-02-05)"
   xmlns:inkscape="http://www.inkscape.org/namespaces/inkscape"
   xmlns:sodipodi="http://sodipodi.sourceforge.net/DTD/sodipodi-0.dtd"
   xmlns="http://www.w3.org/2000/svg"
   xmlns:svg="http://www.w3.org/2000/svg"><defs
   id="defs193" /><sodipodi:namedview
   id="namedview191"
   pagecolor="#ffffff"
   bordercolor="#666666"
   borderopacity="1.0"
   inkscape:pageshadow="2"
   inkscape:pageopacity="0.0"
   inkscape:pagecheckerboard="0"
   showgrid="false"
   inkscape:zoom="1.483871"
   inkscape:cx="311.01087"
   inkscape:cy="219.02174"
   inkscape:window-width="1680"
   inkscape:window-height="987"
   inkscape:window-x="-8"
   inkscape:window-y="-8"
   inkscape:window-maximized="1"
   inkscape:current-layer="Layer_1" />
<path
   fill="#000000"
   opacity="1"
   stroke="none"
   d="m 102.00079,291.18814 c -4.832028,-0.003 -9.164524,0.0238 -13.496479,-0.0129 -14.253624,-0.12091 -24.371262,-9.77927 -24.548325,-24.09756 -0.257538,-20.82508 -0.14711,-41.65557 -0.07835,-62.48334 0.02182,-6.60915 2.538627,-12.29178 7.185531,-17.05249 15.474678,-15.85365 31.134223,-31.53542 46.278913,-47.69905 7.74934,-8.27072 23.06621,-7.93488 30.4462,-0.051 16.276,17.38723 33.12017,34.2426 49.72675,51.32057 0.57918,0.59563 1.14075,1.21831 1.63638,1.8836 2.88182,3.86826 2.77594,7.90009 -0.25718,10.81337 -3.32666,3.19523 -7.33794,3.2024 -11.07193,-0.55525 -11.27195,-11.34329 -22.3861,-22.84344 -33.55869,-34.28543 -5.81949,-5.95984 -11.69794,-11.86407 -17.4212,-17.91502 -2.91262,-3.07936 -5.43926,-3.14313 -8.40657,-0.0711 -15.39279,15.93599 -30.856544,31.80344 -46.298713,47.6917 -1.954811,2.01127 -2.833168,4.35142 -2.824631,7.20831 0.06026,20.16141 -0.01264,40.32323 0.05909,60.48457 0.02213,6.21811 3.523475,9.34433 10.341774,9.35184 28.15956,0.0311 56.31919,-1.2e-4 84.47878,-0.008 1.80728,-5.2e-4 3.61458,-6e-5 6.60921,-6e-5 -8.00373,-7.89004 -15.43412,-15.18802 -22.82981,-22.521 -2.40251,-2.38212 -4.22117,-0.402 -6.17541,0.69783 -18.28308,10.2896 -40.95397,4.84398 -51.828223,-12.45239 -8.2137,-13.06454 -7.742333,-30.27232 1.172493,-42.80467 9.09169,-12.78099 24.56082,-18.41892 40.62074,-14.80472 14.02806,3.15692 26.10429,16.16374 28.26839,31.11867 1.29156,8.92547 0.15882,17.71999 -4.85001,25.46883 -2.19168,3.3906 -1.61014,5.44174 1.13759,8.06286 6.98965,6.66759 13.73894,13.58917 20.52177,20.47086 5.30715,5.38455 5.76903,9.57582 -1.35824,11.54659 1.98074,8.49002 -2.08156,10.66166 -10.99849,10.67436 -23.99382,0.0342 -47.9877,0.0172 -72.48136,0.0204 m 1.29662,-71.48674 c 7.5e-4,0.83199 -0.0227,1.66478 0.006,2.49582 0.4188,12.18867 8.66237,22.67828 20.77877,26.45039 11.33295,3.52823 24.12635,-0.83423 31.44222,-10.7216 6.94132,-9.3812 7.29259,-23.11655 0.83884,-32.79982 -6.72855,-10.0956 -18.97978,-15.12251 -30.42368,-12.48344 -12.06366,2.78198 -20.67727,12.75653 -22.64204,27.05865 z"
   id="path102"
   sodipodi:nodetypes="csssssssssssssssscscssssssssscscccsssscc" />
<path
   fill="#000000"
   opacity="1.000000"
   stroke="none"
   d=" M229.017578,182.694916   C234.481674,182.906586 239.453262,182.383102 244.425308,183.376373   C249.938126,184.477676 255.445541,185.444046 257.535248,191.645218   C259.654053,197.932602 258.049835,203.409775 252.754974,208.105484   C256.046356,210.923279 258.999908,213.733765 259.339203,218.283096   C260.102142,228.513901 254.379135,235.473480 243.678680,236.197983   C236.393845,236.691223 229.051270,236.303436 221.735245,236.379272   C219.056244,236.407028 217.749420,235.296753 217.751633,232.545258   C217.763947,217.246078 217.753036,201.946762 217.697113,186.647705   C217.687286,183.957672 218.779099,182.632263 221.538010,182.705200   C223.864258,182.766693 226.193832,182.703445 229.017578,182.694916  M242.719299,216.788544   C240.995193,215.013077 238.823013,214.424316 236.433914,214.438431   C233.684143,214.454681 233.121231,216.311539 233.372223,218.469193   C233.626572,220.655777 231.930130,223.710480 235.673767,224.579788   C240.347870,225.665131 243.739426,222.381531 242.719299,216.788544  M242.266190,199.958450   C242.992233,197.578705 241.914398,196.065201 239.743637,195.445358   C237.880295,194.913345 235.757782,194.379456 234.132980,195.911407   C232.811874,197.157013 233.129044,199.044525 233.469269,200.592407   C234.137131,203.630875 237.885971,203.600021 242.266190,199.958450  z"
   id="path104"
   style="fill:#1a1a1a" />
<path
   fill="#000000"
   opacity="1.000000"
   stroke="none"
   d=" M281.120667,209.731079   C283.754150,209.335007 286.233551,210.427170 288.633423,208.094635   C285.967865,204.320999 282.483032,205.210312 279.050842,206.135910   C272.480713,207.907745 271.583893,207.330627 269.652527,200.935242   C268.887939,198.403473 269.689789,197.158569 271.939423,196.392746   C279.653961,193.766479 287.475586,192.650909 295.394989,195.304825   C300.815948,197.121460 304.160736,202.141251 304.264618,208.507446   C304.384094,215.831223 304.363586,223.159729 304.239380,230.483398   C304.205750,232.464355 305.269714,235.484589 302.398376,236.006592   C299.298187,236.570206 295.787842,237.554764 292.919250,234.952515   C292.208984,234.308197 291.683197,233.460526 290.933105,232.534042   C286.767731,235.496338 282.549957,237.569839 277.448029,237.330994   C270.599915,237.010391 265.973877,233.275543 264.834503,226.794479   C263.494171,219.170364 266.424866,213.781799 273.413300,211.418396   C275.757843,210.625504 278.258636,210.294647 281.120667,209.731079  M281.490723,225.210724   C284.313873,226.392914 286.727386,225.875046 288.279327,223.173874   C289.011719,221.899124 289.289612,220.191589 288.009735,219.048645   C286.538910,217.735184 284.861969,218.617477 283.371887,219.256317   C280.937103,220.300186 279.640137,221.950836 281.490723,225.210724  z"
   id="path106"
   style="fill:#1a1a1a" />
<path
   fill="#000000"
   opacity="1.000000"
   stroke="none"
   d=" M387.049011,234.713379   C382.180573,237.143829 377.695526,237.738312 374.143433,232.474976   C369.840118,235.731674 365.251984,237.753922 359.836853,237.284760   C353.249054,236.714035 348.920074,232.694199 347.862366,225.967239   C346.842865,219.482956 349.930145,213.982986 356.046478,211.690186   C359.318512,210.463623 362.714447,209.719742 366.256439,209.655136   C367.990112,209.623520 369.955872,210.242279 371.655090,208.191833   C369.585938,204.054367 366.052582,205.125259 362.826660,205.953049   C355.729858,207.774155 355.198242,207.478455 353.072876,200.863541   C352.251038,198.305588 353.103027,197.060150 355.371124,196.347198   C362.595428,194.076294 369.885742,192.715485 377.391083,194.979279   C383.510529,196.825027 387.190186,201.365021 387.281738,207.816833   C387.406738,216.627380 387.230194,225.442200 387.049011,234.713379  M368.075592,218.688858   C367.313019,218.980515 366.484467,219.164902 365.800995,219.585190   C364.150391,220.600204 362.942017,222.081085 363.743561,224.053757   C364.589539,226.135803 366.570801,226.028961 368.389832,225.549301   C370.885376,224.891266 372.403503,223.112717 372.417175,220.606018   C372.429871,218.284622 370.452332,218.434341 368.075592,218.688858  z"
   id="path108"
   style="fill:#1a1a1a" />
<path
   fill="#000000"
   opacity="1.000000"
   stroke="none"
   d=" M323.471619,209.073914   C322.532349,205.037827 319.376587,206.612946 317.108826,206.490494   C311.378571,206.181107 308.356995,201.275528 310.963715,196.193893   C311.742645,194.675446 313.085052,194.733109 314.367188,194.725586   C322.843231,194.675766 331.321716,194.569824 339.794952,194.725052   C343.615479,194.795090 345.109772,201.415588 342.100952,205.968063   C339.359100,210.116638 336.082428,213.908615 333.124573,217.919037   C331.863617,219.628647 330.254761,221.159805 329.703522,223.654785   C332.884033,225.664398 336.430908,224.650818 339.711212,224.565613   C344.185608,224.449387 344.421783,226.955109 344.341339,230.285934   C344.262512,233.550583 344.684082,236.633301 339.681458,236.450836   C331.880066,236.166290 324.058716,236.471313 316.250000,236.316406   C314.118866,236.274124 310.992889,237.587860 310.089508,234.725098   C309.172058,231.817703 308.880463,228.476318 311.008057,225.652542   C315.107239,220.212158 319.222778,214.784088 323.471619,209.073914  z"
   id="path110"
   style="fill:#1a1a1a" />
<path
   fill="#000000"
   opacity="1.000000"
   stroke="none"
   d=" M395.705078,221.992508   C395.703125,214.508835 395.618286,207.521759 395.750153,200.538773   C395.789673,198.443893 394.664612,195.127502 398.110352,194.962112   C401.451721,194.801758 405.511810,192.809860 408.067108,197.021484   C408.488892,197.716675 408.941071,198.393433 409.537292,199.325943   C412.914337,197.345673 415.658386,194.478378 419.592102,193.977890   C423.197723,193.519119 426.057312,193.849106 425.388702,198.703415   C425.140350,200.506561 425.261078,202.357498 425.135010,204.181213   C424.934906,207.075546 423.773682,208.486832 420.437683,208.464844   C413.162354,208.416916 411.305389,210.477249 411.228241,217.611191   C411.177887,222.267776 411.089752,226.926849 411.189362,231.581177   C411.258911,234.833710 410.210144,236.468536 406.616974,236.417923   C393.902954,236.238861 395.905304,237.394135 395.708252,225.983353   C395.688141,224.819458 395.705292,223.654907 395.705078,221.992508  z"
   id="path112"
   style="fill:#1a1a1a" />
<path
   fill="#000000"
   opacity="1.000000"
   stroke="none"
   d=" M303.654114,269.663208   C303.167816,266.325775 301.118713,265.973022 298.776123,266.386414   C296.405975,266.804688 295.553101,268.674377 295.429352,270.776459   C295.243530,273.932861 295.338684,277.104828 295.241638,280.267914   C295.199951,281.626556 295.002533,283.055176 293.152679,283.056213   C291.324463,283.057220 291.050232,281.647827 291.006897,280.281616   C290.901276,276.951874 290.916412,273.618561 290.848785,270.287323   C290.808685,268.311249 290.308258,266.602203 287.956879,266.309967   C285.667969,266.025543 284.146454,267.012238 283.255005,269.144714   C281.914154,272.352325 282.537872,275.722107 282.292542,279.022278   C282.179779,280.539459 282.836243,282.877716 280.358215,282.868408   C278.257019,282.860504 278.667969,280.722839 278.648376,279.339539   C278.573120,274.035736 278.617920,268.730225 278.617920,263.062256   C283.860321,263.597229 288.667633,260.497437 293.429993,263.722595   C294.992432,264.780701 296.193085,263.069275 297.548981,262.635101   C303.137878,260.845581 307.345856,263.228638 308.008423,269.031738   C308.421753,272.651764 308.214844,276.349609 308.173676,280.011261   C308.156433,281.547882 307.855957,283.185883 305.746613,283.038330   C303.975220,282.914459 303.805420,281.434479 303.775055,280.081726   C303.700226,276.750824 303.707123,273.418121 303.654114,269.663208  z"
   id="path114"
   style="fill:#333333" />
<path
   fill="#000000"
   opacity="1.000000"
   stroke="none"
   d=" M233.207581,261.150818   C233.210449,267.441345 233.197342,273.251251 233.219269,279.060974   C233.229248,281.707123 232.829956,283.837799 229.308929,282.978241   C228.703339,282.830444 227.964462,282.911224 227.363419,283.113251   C223.082535,284.552216 218.941315,284.669281 216.297043,280.414215   C213.575027,276.034058 213.780731,271.066315 215.834625,266.555206   C218.263718,261.220093 223.106400,261.672516 227.623138,262.955475   C229.203552,261.482117 228.488937,259.891663 228.686264,258.487152   C228.926773,256.775177 228.318176,254.281403 231.012924,254.390533   C233.577652,254.494385 233.018448,256.952301 233.188828,258.679169   C233.253723,259.336975 233.203598,260.006134 233.207581,261.150818  M227.141220,267.400452   C224.203857,265.452484 221.402039,265.382019 219.613556,268.733490   C217.784393,272.161224 217.556351,275.844238 220.633423,278.767242   C223.224182,281.228302 227.712814,279.743744 228.419785,276.195923   C228.961273,273.478546 229.195160,270.608521 227.141220,267.400452  z"
   id="path116"
   style="fill:#333333" />
<path
   fill="#000000"
   opacity="1.000000"
   stroke="none"
   d=" M254.321182,267.142731   C255.988571,273.598785 255.508530,274.254486 249.468948,274.312958   C248.472153,274.322601 247.464767,274.208984 246.480515,274.317566   C244.969299,274.484283 242.657578,273.655182 242.546112,276.121155   C242.438583,278.499207 244.373718,279.364319 246.523972,279.756744   C248.947647,280.199066 251.442398,278.863800 254.090164,280.139435   C253.609207,284.505707 250.027405,283.899902 247.449890,283.990479   C242.480331,284.165100 238.502777,280.801331 237.718857,276.390320   C236.576385,269.961792 238.459549,264.853607 242.681870,262.927826   C246.951523,260.980499 250.946625,262.310608 254.321182,267.142731  M250.006958,268.056793   C245.790833,265.089783 244.311172,265.457245 242.654709,270.173187   C245.362823,270.130798 248.283630,272.460663 250.006958,268.056793  z"
   id="path118"
   style="fill:#333333" />
<path
   fill="#000000"
   opacity="1.000000"
   stroke="none"
   d=" M313.899353,279.868774   C310.592712,271.986755 312.353180,264.880432 317.838928,262.785797   C322.537140,260.991882 327.653198,262.666840 329.975616,266.759247   C332.677063,271.519592 331.659912,278.813507 327.862793,281.910217   C323.743805,285.269440 318.755280,284.649261 313.899353,279.868774  M316.439850,274.938629   C316.656616,275.559967 316.802216,276.218231 317.102020,276.796539   C318.693695,279.866974 321.374695,280.715454 324.167969,279.109741   C327.871246,276.980957 327.338226,273.172546 326.479767,269.774048   C325.700867,266.690521 323.127167,265.580902 320.249237,266.459045   C316.521881,267.596375 316.259064,270.880981 316.439850,274.938629  z"
   id="path120"
   style="fill:#333333" />
<path
   fill="#000000"
   opacity="1.000000"
   stroke="none"
   d=" M369.938477,280.476685   C368.139618,284.963623 364.488831,284.170685 361.210449,283.645721   C357.287811,283.017609 354.501556,280.639343 353.832001,276.579468   C353.459290,274.319550 353.486328,271.918823 353.781372,269.639557   C354.351166,265.237244 358.000946,262.159821 362.333832,262.062286   C366.715332,261.963654 370.188751,264.856720 371.085632,269.370209   C371.665405,272.287750 371.060852,274.350891 367.510956,274.298828   C365.686493,274.272064 363.857513,274.235962 362.037323,274.331940   C360.643036,274.405487 358.694489,273.908203 358.531464,276.084015   C358.387329,278.006927 359.864563,278.980530 361.529541,279.560150   C364.233734,280.501556 367.126465,278.702148 369.938477,280.476685  M358.531250,269.015961   C360.877106,271.796570 363.480591,270.742065 366.226105,269.815826   C364.188995,265.279785 362.558228,265.039459 358.531250,269.015961  z"
   id="path122"
   style="fill:#333333" />
<path
   fill="#000000"
   opacity="1.000000"
   stroke="none"
   d=" M109.004692,317.281891   C112.584755,321.452942 114.466805,321.594513 116.841866,317.185730   C118.569366,313.978973 122.611000,315.710114 124.202110,312.987152   C123.101067,310.179047 120.378525,312.390991 118.636337,310.681305   C120.364609,308.422913 122.430290,307.719879 124.982521,309.027405   C127.875198,310.509277 128.504898,314.575562 127.034721,321.627411   C122.150734,323.949524 116.796928,321.535248 111.656242,322.748810   C109.297974,323.305511 106.615959,321.044708 106.515335,318.297241   C106.408104,315.369385 105.422073,311.769135 109.071091,309.822662   C111.305748,308.630615 113.531647,307.746124 116.046013,310.513123   C112.709785,311.949219 107.787193,311.487732 109.004692,317.281891  z"
   id="path124"
   style="fill:#216778" />
<path
   fill="#000000"
   opacity="1.000000"
   stroke="none"
   d=" M385.978638,279.585266   C389.049103,279.672882 391.945923,280.936462 394.403595,278.160248   C393.425293,275.349548 390.855713,274.905731 388.663788,273.938690   C385.990509,272.759247 383.644836,271.313049 383.660706,267.846771   C383.672211,265.342926 384.913177,263.795654 387.114807,262.914032   C390.371948,261.609772 393.613617,261.843201 396.734863,263.328949   C397.135071,263.519440 397.436157,264.495819 397.341705,265.030060   C397.131104,266.221161 396.121979,266.375610 395.043304,266.391785   C392.671082,266.427399 390.096649,265.211456 387.858948,267.504333   C388.476227,270.601654 391.369843,270.644653 393.457001,271.583282   C396.198456,272.816132 398.382690,274.255127 398.345337,277.707184   C398.316528,280.369690 397.152954,282.162292 394.722137,283.075195   C391.333252,284.347931 387.819244,284.783478 384.715668,282.597137   C383.338501,281.626984 383.119293,279.955872 385.978638,279.585266  z"
   id="path126"
   style="fill:#333333" />
<path
   fill="#000000"
   opacity="1.000000"
   stroke="none"
   d=" M340.212708,271.622620   C340.865601,273.142334 341.403473,274.327026 342.020599,275.686371   C346.526703,272.428802 344.243683,264.323975 350.444824,262.715210   C351.013367,263.036469 351.581909,263.357697 352.150452,263.678955   C349.865631,269.621063 347.792053,275.657196 345.206573,281.465454   C343.919800,284.356232 340.471161,284.063599 339.194031,280.934540   C336.891693,275.293701 334.330505,269.710480 333.049683,263.677032   C336.685394,262.964081 336.685394,262.964081 340.212708,271.622620  z"
   id="path128"
   style="fill:#333333" />
<path
   fill="#000000"
   opacity="1.000000"
   stroke="none"
   d=" M197.482849,313.753479   C197.592880,316.089203 196.376892,316.540344 194.655884,316.618774   C193.094849,316.689941 191.221069,316.224854 190.457275,318.334839   C191.193771,322.036957 194.936142,319.043488 196.492630,320.986847   C192.791382,323.648804 189.203506,323.352448 187.238297,320.291290   C185.163452,317.059387 186.506927,311.006622 189.696732,309.215393   C192.831772,307.454895 195.425690,308.863251 197.482849,313.753479  z"
   id="path130"
   style="fill:#216778" />
<path
   fill="#000000"
   opacity="1.000000"
   stroke="none"
   d=" M213.359833,316.385315   C213.249344,318.414062 213.596420,320.115204 212.549820,321.632324   C210.690033,319.521942 209.944214,311.471344 211.384171,309.820801   C212.490295,308.552979 224.142349,308.062897 226.186432,309.198212   C229.001266,310.761688 229.796875,316.728088 227.506500,321.968384   C226.265747,319.424072 226.784042,317.159271 226.627472,315.031006   C226.510239,313.437439 226.170059,311.825317 224.352219,311.671326   C222.277512,311.495544 221.563400,313.062286 221.356964,314.898254   C221.108368,317.108948 221.716431,319.478027 220.283493,321.950134   C218.024841,320.253387 218.881317,318.147797 218.661072,316.381042   C218.428574,314.516083 219.271408,311.834167 216.381302,311.681396   C213.788391,311.544342 213.438171,313.865875 213.359833,316.385315  z"
   id="path132"
   style="fill:#216778" />
<path
   fill="#000000"
   opacity="1.000000"
   stroke="none"
   d=" M265.824249,315.598511   C263.406616,316.490356 261.222443,317.046844 258.922089,317.632935   C259.419891,322.243195 263.687103,319.233398 265.724274,321.318451   C263.208710,323.339325 260.781677,323.471832 258.335419,322.042206   C255.321716,320.281036 255.022232,317.175995 255.292221,314.184204   C255.530548,311.543274 257.227814,309.602783 259.830872,308.811371   C263.485260,307.700317 265.897278,310.255219 265.824249,315.598511  z"
   id="path134"
   style="fill:#216778" />
<path
   fill="#000000"
   opacity="1.000000"
   stroke="none"
   d=" M326.502869,313.086548   C325.531952,316.035797 326.705811,319.021729 324.830780,322.003113   C323.181549,320.085815 323.717377,318.249573 323.622162,316.580200   C323.498016,314.402863 323.654358,311.695557 320.693512,311.708435   C317.835541,311.720856 318.475281,314.436462 318.274841,316.334381   C318.090332,318.081146 318.790558,320.011414 316.634430,322.147583   C314.831421,317.881958 315.926392,313.942841 315.754547,310.292450   C320.447876,307.473236 325.201874,309.880554 329.708618,308.906494   C331.560211,308.506287 333.085449,310.378448 333.225464,312.418213   C333.436462,315.492889 333.763092,318.615997 332.754852,322.283325   C330.125702,319.979584 331.162476,317.360260 330.888794,315.115753   C330.550110,312.338257 329.906982,310.266235 326.502869,313.086548  z"
   id="path136"
   style="fill:#216778" />
<path
   fill="#000000"
   opacity="1.000000"
   stroke="none"
   d=" M355.554871,315.751434   C356.772614,309.262817 360.704529,306.859253 364.595856,309.811493   C366.193237,311.023407 366.999420,312.556885 366.647675,314.552887   C366.236542,316.886047 364.346313,316.512543 362.725159,316.565796   C361.400665,316.609314 360.048096,316.544525 359.059540,317.908997   C359.678284,322.071472 363.808289,319.296631 365.784485,320.974396   C360.422577,324.624237 356.849396,322.843597 355.554871,315.751434  z"
   id="path138"
   style="fill:#216778" />
<path
   fill="#000000"
   opacity="1.000000"
   stroke="none"
   d=" M141.777832,314.958160   C141.674728,317.477386 141.499344,319.600067 141.329788,321.652191   C132.760895,323.954987 129.100952,321.807800 129.420227,314.811951   C129.555679,311.844269 131.116867,309.333557 133.880493,309.028137   C137.095917,308.672791 139.018845,307.598419 139.571915,303.662048   C142.582047,307.455383 140.603195,311.300720 141.777832,314.958160  M137.875229,312.792633   C136.401321,311.044006 134.681778,310.961609 133.261383,312.611816   C131.719955,314.402679 132.024612,316.636505 132.831375,318.678589   C133.360245,320.017273 134.524841,320.790527 136.011780,320.210266   C138.202103,319.355438 138.633102,317.444580 138.541626,315.350006   C138.513382,314.702698 138.334885,314.061951 137.875229,312.792633  z"
   id="path140"
   style="fill:#216778" />
<path
   fill="#000000"
   opacity="1.000000"
   stroke="none"
   d=" M181.550323,322.346130   C175.407898,323.224609 173.206818,322.080078 172.432495,317.814819   C171.478699,312.560944 173.304825,309.450348 178.817780,308.782104   C181.951111,308.402313 181.055908,305.497742 183.390518,304.016724   C184.731705,310.024475 184.525742,315.693726 183.981339,321.363098   C183.888718,322.327698 182.731262,322.260712 181.550323,322.346130  M181.516312,314.845581   C181.081589,313.145294 180.389389,311.653809 178.353897,311.512054   C176.815033,311.404877 175.938873,312.319580 175.295029,313.621277   C174.390503,315.449921 174.575684,317.175751 175.681168,318.808075   C176.357224,319.806305 177.300705,320.695496 178.587448,320.247345   C180.738403,319.498199 181.560471,317.743286 181.516312,314.845581  z"
   id="path142"
   style="fill:#216778" />
<path
   fill="#000000"
   opacity="1.000000"
   stroke="none"
   d=" M350.924133,306.162598   C352.265717,303.695801 353.290619,304.448151 353.228790,306.286072   C353.057709,311.371918 354.760803,316.485748 353.088409,321.522308   C345.283569,323.915070 341.406586,321.858398 341.685425,315.448914   C341.846161,311.753632 343.333893,309.007538 347.456421,308.660858   C349.013031,308.529938 350.495880,308.491364 350.924133,306.162598  M347.619751,311.470276   C343.348694,312.897919 343.929932,315.951996 345.320343,318.992950   C346.001648,320.483063 347.719971,321.184753 348.998474,319.805115   C351.261536,317.363007 351.472504,314.579163 349.207031,311.890717   C349.020081,311.668854 348.622253,311.624756 347.619751,311.470276  z"
   id="path144"
   style="fill:#216778" />
<path
   fill="#000000"
   opacity="1.000000"
   stroke="none"
   d=" M73.356720,308.601349   C78.918678,309.743500 81.383446,312.910675 80.386436,317.170441   C79.131264,322.533264 76.150368,323.710083 68.710968,321.499451   C68.714752,315.900299 68.199554,310.178864 69.035484,304.384735   C71.842697,304.751953 70.409843,308.407440 73.356720,308.601349  M71.185509,315.559937   C71.261238,317.783539 71.484413,320.230682 74.314522,320.227325   C76.724876,320.224396 77.248444,317.939453 77.539528,315.941864   C77.830093,313.947815 77.194183,312.222778 75.136574,311.667084   C72.611259,310.984985 71.544937,312.526581 71.185509,315.559937  z"
   id="path146"
   style="fill:#216778" />
<path
   fill="#000000"
   opacity="1.000000"
   stroke="none"
   d=" M242.976730,311.942719   C243.147018,313.095734 243.448715,314.247009 243.464142,315.402100   C243.521515,319.696991 240.759003,322.881958 237.095642,322.865631   C233.413849,322.849213 230.811981,319.629456 230.932755,315.239105   C231.026749,311.822052 236.312714,305.308807 239.904633,304.204987   C240.899597,305.891327 238.343903,306.678589 238.879486,308.237579   C240.103439,309.348053 241.329636,310.459167 242.777344,311.777039   C242.998840,311.983795 242.976730,311.942719 242.976730,311.942719  M237.948730,320.121155   C238.644928,319.440308 239.558853,318.875275 239.994629,318.055908   C241.100067,315.977386 241.024200,313.843445 239.146866,312.226074   C237.720505,310.997223 236.028000,311.056732 234.731583,312.495453   C233.136002,314.266144 232.943588,316.310364 234.132278,318.428528   C234.827454,319.667206 235.807144,320.435699 237.948730,320.121155  z"
   id="path148"
   style="fill:#216778" />
<path
   fill="#000000"
   opacity="1.000000"
   stroke="none"
   d=" M312.793274,312.290955   C313.137390,313.107056 313.341675,313.571411 313.441589,314.057251   C314.249969,317.987396 313.097961,321.187469 309.202789,322.508484   C305.979309,323.601685 303.105652,322.196838 301.818481,319.056549   C300.499298,315.838043 300.353241,312.367859 303.648834,310.033508   C307.180115,307.532196 310.224487,308.475830 312.793274,312.290955  M308.762573,311.803680   C304.943848,310.670898 304.032990,312.954102 304.148865,315.981873   C304.230713,318.120789 304.711121,320.746460 307.623718,320.198822   C310.646729,319.630432 310.904785,316.904541 310.510590,314.314545   C310.397675,313.572571 309.764923,312.909729 308.762573,311.803680  z"
   id="path150"
   style="fill:#216778" />
<path
   fill="#000000"
   opacity="1.000000"
   stroke="none"
   d=" M84.325012,312.320160   C84.348175,313.893005 84.337791,315.053131 84.385864,316.210846   C84.472359,318.294098 84.743057,320.569550 87.496361,320.239716   C89.803398,319.963379 90.569984,317.993073 90.472832,315.759827   C90.377434,313.567139 89.525139,311.212555 92.093307,308.909210   C94.897697,313.100616 93.861588,317.455261 93.204216,321.334351   C92.859276,323.369812 89.447327,322.686829 87.426628,322.904053   C85.425606,323.119110 83.384987,322.406067 82.628441,320.164276   C81.464508,316.715271 81.006203,313.232880 82.574631,309.805847   C84.401321,309.809021 84.131554,311.015320 84.325012,312.320160  z"
   id="path152"
   style="fill:#216778" />
<path
   fill="#000000"
   opacity="1.000000"
   stroke="none"
   d=" M143.588135,315.793823   C144.571823,310.304047 147.169037,307.974792 150.926437,308.824860   C154.842514,309.710846 156.874634,314.022644 155.390259,318.347107   C154.351044,321.374634 152.217896,323.068878 149.010498,322.720245   C145.247711,322.311249 143.695663,319.767700 143.588135,315.793823  M152.375229,313.400208   C151.245255,311.566162 149.661774,310.838257 147.818802,312.136383   C145.715729,313.617706 146.038635,315.886169 146.598480,318.001099   C146.958298,319.360382 147.986786,320.484070 149.440781,320.303253   C151.778671,320.012421 152.635864,318.206970 152.795380,316.051941   C152.843140,315.406616 152.683533,314.745972 152.375229,313.400208  z"
   id="path154"
   style="fill:#216778" />
<path
   fill="#000000"
   opacity="1.000000"
   stroke="none"
   d=" M272.526398,282.329346   C269.704773,283.778748 268.846649,282.380280 268.806610,280.188354   C268.721741,275.541138 268.733246,270.891205 268.777924,266.243103   C268.792114,264.765381 268.790405,263.046722 270.907898,262.963531   C273.070801,262.878571 273.199982,264.585907 273.176971,266.080658   C273.095428,271.378174 273.714386,276.694275 272.526398,282.329346  z"
   id="path156"
   style="fill:#333333" />
<path
   fill="#000000"
   opacity="1.000000"
   stroke="none"
   d=" M102.580673,315.560303   C105.389076,317.465881 105.575432,319.787445 103.448753,321.566101   C100.814316,323.769440 97.855400,323.556458 95.189980,321.139252   C96.276306,319.425720 97.445961,320.341187 98.507996,320.460022   C99.751976,320.599243 100.818588,320.428680 101.442932,318.891968   C100.473900,315.621613 91.988388,315.742767 96.716232,309.935791   C98.782005,307.398468 101.891045,307.831146 104.547012,310.349762   C102.866692,312.228333 100.475700,310.861633 99.251892,312.627411   C99.254166,314.612885 101.278023,314.448151 102.580673,315.560303  z"
   id="path158"
   style="fill:#216778" />
<path
   fill="#000000"
   opacity="1.000000"
   stroke="none"
   d=" M375.083618,315.113159   C378.073639,316.843353 378.883453,319.121094 376.639404,321.354797   C374.077698,323.904694 371.137634,323.200745 368.225250,321.535431   C369.233734,319.450989 370.461884,320.420013 371.481995,320.475800   C372.710846,320.542999 373.783356,320.427734 374.424713,318.903717   C373.444214,315.653015 365.436829,315.967377 369.324158,310.392883   C371.094910,307.853516 374.379669,307.742889 377.008636,310.429871   C375.703674,312.072693 373.508087,310.926666 372.325714,312.708282   C372.060394,314.354370 373.732239,314.358215 375.083618,315.113159  z"
   id="path160"
   style="fill:#216778" />
<path
   fill="#000000"
   opacity="1.000000"
   stroke="none"
   d=" M392.505951,321.364563   C391.303528,320.072693 390.733307,318.914642 390.637482,317.528412   C390.403625,314.143768 390.154144,310.751221 394.173004,309.189117   C396.810120,308.164062 399.204102,308.729065 400.819397,310.978790   C403.087524,314.137726 403.028748,317.636780 400.737335,320.699554   C398.601807,323.553986 395.705780,323.501373 392.505951,321.364563  M397.142853,311.631897   C393.123688,311.422821 392.382477,313.987488 392.989868,317.066589   C393.373535,319.011749 394.777069,321.126678 397.152740,320.076752   C400.083435,318.781525 400.083191,316.000580 399.120819,313.296753   C398.923401,312.742035 398.243042,312.359161 397.142853,311.631897  z"
   id="path162"
   style="fill:#216778" />
<path
   fill="#000000"
   opacity="1.000000"
   stroke="none"
   d=" M434.861206,321.768066   C430.421936,323.650330 427.232208,322.604340 425.968140,318.282013   C425.009766,315.004883 425.351624,311.607819 428.723938,309.551117   C431.350494,307.949280 434.184052,308.429718 435.820221,310.775360   C438.266937,314.283112 438.415253,318.126648 434.861206,321.768066  M434.810577,314.756073   C434.529114,312.401062 433.350769,310.977203 430.855865,311.590363   C428.740845,312.110229 428.241882,313.907288 428.288666,315.869629   C428.338898,317.978607 428.805115,320.188232 431.237640,320.325836   C434.361084,320.502533 434.756897,317.968536 434.810577,314.756073  z"
   id="path164"
   style="fill:#216778" />
<path
   fill="#000000"
   opacity="1.000000"
   stroke="none"
   d=" M281.873718,321.106720   C276.979004,323.539062 276.830383,323.530334 273.472534,320.885651   C274.986694,318.848846 278.251221,322.350830 279.421143,318.777008   C278.451721,315.663513 270.580902,315.810120 274.515808,310.266968   C276.256439,307.814911 279.303955,308.102448 281.849213,310.152924   C280.538635,312.493561 277.988892,310.392700 276.750793,312.529510   C277.743317,315.660858 284.650391,315.362366 281.873718,321.106720  z"
   id="path166"
   style="fill:#216778" />
<path
   fill="#000000"
   opacity="1.000000"
   stroke="none"
   d=" M413.582611,317.169495   C413.589142,314.352020 413.498444,311.659363 410.380981,311.581543   C406.992310,311.496948 407.455841,314.444336 407.266174,316.700592   C407.125183,318.378113 407.663239,320.271149 405.502289,322.153015   C404.012848,317.819000 404.960541,313.996643 404.736206,309.979797   C408.150543,309.514099 411.673645,306.958954 414.134796,310.264587   C416.497589,313.438049 416.545502,317.511078 414.844177,322.016693   C413.357880,320.390381 413.666687,318.921844 413.582611,317.169495  z"
   id="path168"
   style="fill:#216778" />
<path
   fill="#000000"
   opacity="1.000000"
   stroke="none"
   d=" M243.012360,312.002747   C243.225830,311.089996 243.067642,309.984924 244.533188,309.394348   C247.455109,310.672485 246.458176,314.807098 249.374542,316.540924   C251.650818,314.881622 250.597656,310.806091 254.714966,309.189575   C253.864227,314.464539 252.209152,318.494812 249.447281,322.560852   C245.727585,319.672546 245.958115,315.250946 243.211533,312.200592   C242.976730,311.942719 242.998840,311.983795 243.012360,312.002747  z"
   id="path170"
   style="fill:#216778" />
<path
   fill="#000000"
   opacity="1.000000"
   stroke="none"
   d=" M379.275146,265.315857   C379.317657,270.606598 379.349152,275.428223 379.303253,280.249084   C379.292542,281.377960 379.280579,282.782715 377.716797,282.916687   C375.772919,283.083221 375.713196,281.507202 375.697845,280.197418   C375.641449,275.376526 375.643463,270.554413 375.686981,265.733337   C375.697205,264.598633 375.729004,263.283600 377.302277,263.083618   C378.561157,262.923584 379.029541,263.776123 379.275146,265.315857  z"
   id="path172"
   style="fill:#333333" />
<path
   fill="#000000"
   opacity="1.000000"
   stroke="none"
   d=" M385.276001,311.434570   C381.710297,312.559967 381.878052,315.103027 382.323639,317.647797   C383.024994,321.652924 386.804810,319.877808 390.033844,321.156555   C386.262573,323.586975 383.451538,323.237762 381.004669,320.842896   C378.221771,318.119110 378.320465,314.701019 380.327881,311.709869   C382.207428,308.909302 384.966736,307.624359 388.442322,309.758759   C388.011688,311.545258 386.669220,311.174164 385.276001,311.434570  z"
   id="path174"
   style="fill:#216778" />
<path
   fill="#000000"
   opacity="1.000000"
   stroke="none"
   d=" M296.800232,308.691284   C298.224823,308.811401 299.191376,309.016907 299.405609,310.606720   C296.590942,311.673706 292.373260,311.768738 292.737579,316.232513   C293.058136,320.160370 296.572937,320.573578 300.664337,320.889038   C297.720917,323.375610 295.471466,323.344452 293.195526,321.967957   C290.274200,320.201141 290.516571,317.233948 290.636139,314.391083   C290.790192,310.728912 293.098724,309.189026 296.800232,308.691284  z"
   id="path176"
   style="fill:#216778" />
<path
   fill="#000000"
   opacity="1.000000"
   stroke="none"
   d=" M420.484497,307.181702   C421.737488,308.183777 422.726318,309.018005 423.721680,309.857788   C419.846130,313.811951 420.281982,319.193787 424.302002,321.799469   C422.159088,323.457031 419.861969,322.850739 419.360748,320.953583   C418.341614,317.096130 418.110718,313.005920 417.857666,308.992554   C417.810547,308.244751 418.614563,306.702423 420.484497,307.181702  z"
   id="path178"
   style="fill:#216778" />
<path
   fill="#000000"
   opacity="1.000000"
   stroke="none"
   d=" M158.425949,321.255981   C157.830582,318.678680 157.317383,316.399902 157.253586,314.108582   C157.111237,308.995483 159.748566,307.562744 165.415329,310.090790   C160.571411,311.818146 160.000580,315.493530 160.255005,319.618347   C160.310913,320.524628 160.202423,321.692078 158.425949,321.255981  z"
   id="path180"
   style="fill:#216778" />
<path
   fill="#000000"
   opacity="1.000000"
   stroke="none"
   d=" M320.100555,260.792053   C319.606384,256.154236 321.680115,254.019485 326.168152,254.409393   C325.752838,257.951355 323.561737,259.797760 320.100555,260.792053  z"
   id="path182"
   style="fill:#333333" />
<path
   fill="#000000"
   opacity="1.000000"
   stroke="none"
   d=" M268.619690,317.737915   C268.700317,314.799164 268.102325,312.156006 269.760559,308.699646   C272.337311,313.571686 271.305054,317.633118 270.672333,321.958527   C267.892426,321.136719 268.739532,319.431824 268.619690,317.737915  z"
   id="path184"
   style="fill:#216778" />
<path
   fill="#000000"
   opacity="1.000000"
   stroke="none"
   d=" M208.325989,314.195679   C208.068497,316.966400 208.989563,319.513702 206.325684,322.927246   C205.263184,317.645599 205.403473,313.719177 206.082672,309.524109   C209.086823,310.316650 207.994232,312.327301 208.325989,314.195679  z"
   id="path186"
   style="fill:#216778" />
<path
   fill="#000000"
   opacity="1.000000"
   stroke="none"
   d=" M376.078247,259.514954   C375.140167,257.572662 374.874725,255.918610 377.269714,255.523605   C378.602020,255.303894 379.499359,256.291138 379.457855,257.619965   C379.394836,259.639374 378.522980,260.794373 376.078247,259.514954  z"
   id="path188"
   style="fill:#333333" /><path
   fill="#000000"
   opacity="1"
   stroke="none"
   d="m 376.71423,261.87286 c -0.93808,-1.94229 -1.20353,-3.59634 1.19146,-3.99135 1.33231,-0.21971 2.22965,0.76754 2.18814,2.09636 -0.063,2.01941 -0.93487,3.17441 -3.3796,1.89499 z"
   id="path188-5"
   style="fill:#333333" />
<g
   id="g9739"
   transform="translate(-8.5923913,31.505435)"><path
     style="fill:#ffffff;fill-opacity:1;stroke-width:0.168478"
     d="m 193.49728,249.09511 c -8.30574,-8.30675 -9.31588,-9.37318 -9.09124,-9.59781 0.22464,-0.22464 1.29094,0.78562 9.59668,9.09237 8.30574,8.30676 9.31587,9.37318 9.09124,9.59782 -0.22464,0.22464 -1.29094,-0.78563 -9.59668,-9.09238 z"
     id="path8946" /></g><path
   style="fill:#004455;fill-opacity:1;stroke-width:0.673913"
   d="m 171.47774,265.85425 c -10.01454,-9.98737 -14.27958,-13.81077 -15.40601,-13.81077 -0.85671,0 -3.72278,1.06563 -6.36904,2.36807 -25.78991,12.69333 -55.017907,-5.14635 -55.017907,-33.58086 0,-10.1511 3.369383,-18.44682 10.619847,-26.14699 7.11477,-7.55607 16.1847,-11.37935 26.99512,-11.37935 10.79401,0 19.07165,3.4193 26.56878,10.97495 11.91025,12.00323 14.58998,29.36344 6.84325,44.33296 -1.83574,3.54731 -2.31684,5.14216 -1.97127,6.53472 0.28265,1.13903 5.16692,6.60074 12.79663,14.30954 12.01742,12.14197 13.84329,14.31038 13.84329,16.44031 0,1.30896 -2.6197,3.77848 -4.00207,3.77264 -0.57875,-0.003 -7.28403,-6.21931 -14.90062,-13.81522 z m -27.42308,-18.3518 c 18.4848,-8.65529 23.06341,-32.84421 8.8982,-47.00942 -11.51362,-11.51362 -29.4664,-11.74882 -40.65168,-0.53258 -4.37911,4.39124 -6.95902,9.15518 -8.61991,15.91712 -2.16915,8.83125 0.76379,18.38206 7.80819,25.42645 3.63984,3.63985 9.28007,6.97247 13.71107,8.10142 1.19297,0.30395 4.89838,0.47997 8.23425,0.39116 5.20243,-0.13851 6.71313,-0.46486 10.61988,-2.29415 z"
   id="path29742" /><path
   style="fill:#0088aa;fill-opacity:1;stroke-width:0.673913"
   d="m 175.34313,269.05106 c -15.68037,-15.24295 -17.71046,-17.00758 -19.56606,-17.00758 -0.91426,0 -3.73699,0.93085 -6.27273,2.06856 -6.02474,2.70311 -11.58739,3.9744 -17.44427,3.9867 -16.38607,0.0344 -31.06148,-11.119 -35.678862,-27.11613 -1.28686,-4.4584 -1.480223,-14.03053 -0.381903,-18.90555 2.620415,-11.63103 13.390805,-23.22826 24.867045,-26.77607 5.10991,-1.5797 15.12685,-1.90766 20.57767,-0.67371 7.99434,1.80973 16.40805,7.78792 21.52638,15.29512 4.47823,6.56834 6.01146,11.27865 6.37111,19.5731 0.32419,7.47642 -0.91141,13.18916 -4.29822,19.87271 -2.98043,5.88157 -3.41523,5.18508 15.38203,24.63977 6.54761,6.7766 9.2812,10.0705 9.2812,11.18359 0,1.64991 -1.86859,3.80843 -3.29689,3.80843 -0.45764,0 -5.43756,-4.47702 -11.0665,-9.94894 z m -30.7746,-21.51961 c 7.86032,-3.87652 14.18498,-11.82864 16.16082,-20.31933 4.42596,-19.01942 -11.2378,-37.09649 -30.86206,-35.61696 -19.36909,1.46028 -32.687162,23.74373 -24.56471,41.10101 3.31558,7.08524 9.74041,13.18304 16.95036,16.08759 2.48043,0.99924 4.56949,1.21246 10.52211,1.0739 6.81109,-0.15854 7.78945,-0.35151 11.79348,-2.32621 z"
   id="path30033" /><path
   style="fill:#0088aa;fill-opacity:1;stroke-width:0.673913"
   d=""
   id="path30072" /><path
   style="fill:#216778;fill-opacity:1;stroke-width:0.673913"
   d="m 171.85639,265.18478 c -15.67489,-14.79091 -14.99508,-14.44164 -22.24769,-11.43059 -15.63639,6.49169 -30.37269,4.60288 -41.91201,-5.37201 -3.50596,-3.03064 -8.350024,-10.29377 -10.142992,-15.20827 -1.799954,-4.93365 -2.448853,-12.69865 -1.548716,-18.53261 1.665158,-10.79219 9.961208,-21.78279 20.276238,-26.86192 9.95825,-4.90345 22.44002,-4.87733 32.28845,0.0676 8.94796,4.49277 16.82679,14.01496 19.30872,23.3361 1.18675,4.45693 1.18385,15.27475 -0.005,19.74088 -0.50936,1.91306 -1.71881,5.20976 -2.68765,7.32601 -2.15862,4.71503 -2.21683,6.96258 -0.24583,9.4907 0.83364,1.06928 6.5956,7.36835 12.80434,13.99794 7.41029,7.91245 11.28875,12.55478 11.28875,13.51196 0,1.60531 -1.16329,3.07555 -2.43345,3.07555 -0.44884,0 -7.08309,-5.91359 -14.74277,-13.14131 z m -26.97906,-17.52174 c 2.21622,-1.11195 5.72233,-3.73384 7.79134,-5.82642 14.76036,-14.92842 10.81658,-38.28875 -8.03716,-47.60678 -4.91841,-2.43081 -5.27272,-2.50158 -12.52377,-2.50158 -7.03196,0 -7.71454,0.12424 -11.83959,2.155 -11.32578,5.57566 -18.02408,16.95753 -17.36537,29.50755 0.24105,4.59258 0.68959,6.41349 2.47132,10.03271 2.75385,5.59385 8.60899,11.51111 14.30114,14.45285 4.31328,2.22914 4.34713,2.2345 12.74867,2.02174 7.79427,-0.19738 8.7251,-0.36444 12.45342,-2.23507 z"
   id="path30376" /></svg>
