<?xml version="1.0" encoding="UTF-8" standalone="no"?>
<!-- Created with Inkscape (http://www.inkscape.org/) -->

<svg
   width="196.2608mm"
   height="83.201431mm"
   viewBox="0 0 196.2608 83.201431"
   version="1.1"
   id="svg5"
   inkscape:version="1.1.2 (b8e25be833, 2022-02-05)"
   sodipodi:docname="qachado_logo_transparente.svg"
   xmlns:inkscape="http://www.inkscape.org/namespaces/inkscape"
   xmlns:sodipodi="http://sodipodi.sourceforge.net/DTD/sodipodi-0.dtd"
   xmlns="http://www.w3.org/2000/svg"
   xmlns:svg="http://www.w3.org/2000/svg">
  <sodipodi:namedview
     id="namedview7"
     pagecolor="#ffffff"
     bordercolor="#666666"
     borderopacity="1.0"
     inkscape:pageshadow="2"
     inkscape:pageopacity="0.0"
     inkscape:pagecheckerboard="0"
     inkscape:document-units="mm"
     showgrid="false"
     inkscape:zoom="0.64052329"
     inkscape:cx="231.06108"
     inkscape:cy="373.13241"
     inkscape:window-width="1680"
     inkscape:window-height="987"
     inkscape:window-x="-8"
     inkscape:window-y="-8"
     inkscape:window-maximized="1"
     inkscape:current-layer="layer1" />
  <defs
     id="defs2" />
  <g
     inkscape:label="Camada 1"
     inkscape:groupmode="layer"
     id="layer1"
     transform="translate(-7.7675662,-49.30369)">
    <g
       id="g894"
       transform="translate(-8.2614745,-33.045901)">
      <path
         style="fill:#d0d0d0;stroke-width:0.264583"
         d="m 25.769553,165.15636 c -4.35623,-1.17318 -7.804392,-4.62696 -8.970221,-8.98483 -0.279292,-1.04399 -0.354573,-5.20895 -0.357051,-19.75403 -0.0029,-17.31478 0.02705,-18.52812 0.495333,-20.03271 0.750523,-2.41144 1.718361,-3.86836 4.507303,-6.78502 1.394167,-1.45801 5.74795,-6.04192 9.675075,-10.186457 16.4647,-17.376233 16.066619,-17.049467 20.77888,-17.05642 2.607598,-0.0038 2.893708,0.05005 4.522941,0.852122 1.555972,0.766003 2.503355,1.657485 8.990269,8.459806 3.988059,4.181967 8.917893,9.335169 10.955184,11.451569 8.459386,8.78784 10.661883,11.27079 11.000611,12.40136 0.639471,2.13437 -0.650878,4.4115 -2.877889,5.07873 -0.932423,0.27936 -1.26764,0.26135 -2.271511,-0.12203 -1.184408,-0.45233 -2.398549,-1.67347 -16.819034,-16.91588 C 55.45344,93.049676 53.080345,90.696268 52.262213,90.534341 51.180298,90.3202 51.033877,90.453555 42.393538,99.522424 28.131779,114.49151 25.276272,117.57403 24.956776,118.34536 c -0.250514,0.60479 -0.309911,4.91825 -0.254936,18.51359 l 0.07168,17.72508 0.635283,0.89073 c 0.349406,0.4899 1.123312,1.11236 1.719792,1.38325 1.031723,0.46855 2.250169,0.49281 25.033428,0.49834 22.806616,0.006 23.992894,0.0292 24.870834,0.49637 1.149599,0.61172 2.102451,2.22729 2.108187,3.57446 0.0062,1.46837 -0.928415,2.97074 -2.244558,3.60787 -1.069708,0.51784 -1.614991,0.52882 -25.417437,0.51178 -20.058815,-0.0144 -24.567187,-0.0828 -25.709491,-0.39047 z m 76.262297,-3.47647 c -1.83845,-0.50789 -2.778129,-2.12523 -2.778129,-4.78161 0,-2.01357 0.49281,-3.07153 1.924979,-4.13255 0.98845,-0.7323 3.17711,-0.74132 4.43579,-0.0183 2.64845,1.52138 2.77222,6.53888 0.20738,8.40648 -0.71337,0.51944 -2.777,0.80583 -3.79002,0.52597 z m 3.02795,-2.18631 c 1.10782,-1.10782 1.03692,-3.96754 -0.12336,-4.97569 -0.83031,-0.72145 -2.21836,-0.78224 -3.02063,-0.13229 -1.14219,0.92533 -1.21893,3.91047 -0.13141,5.11216 0.63659,0.70342 2.57027,0.70095 3.2754,-0.004 z m 4.5253,1.62608 c -0.79609,-0.7961 -0.80638,-0.84172 -0.80638,-3.57655 0,-2.2183 0.0791,-2.80051 0.39688,-2.92247 0.97722,-0.37499 1.19062,0.0706 1.19062,2.48634 0,1.76908 0.10064,2.43469 0.41577,2.74982 0.55741,0.55741 1.06385,0.52365 1.7009,-0.11339 0.44058,-0.44058 0.52916,-0.88195 0.52916,-2.63653 0,-1.78445 0.0755,-2.14775 0.49262,-2.371 0.3436,-0.18388 0.62644,-0.16579 0.93498,0.0598 0.37868,0.2769 0.43156,0.78015 0.36728,3.49548 l -0.0751,3.17201 -0.92604,0.0593 c -0.50932,0.0326 -1.4859,0.13672 -2.17018,0.23142 -1.14297,0.15817 -1.3097,0.1066 -2.05052,-0.63422 z m 7.25139,0.091 c -0.58024,-0.58023 -0.64944,-0.87281 -0.64944,-2.74573 0,-1.54059 -0.1052,-2.1836 -0.39687,-2.42567 -0.53268,-0.44208 -0.51039,-0.57289 0.31158,-1.82834 0.80748,-1.23332 1.29272,-1.36045 1.70861,-0.44766 0.17493,0.38392 0.59797,0.6962 1.07144,0.79089 0.6268,0.12536 0.76549,0.27543 0.69746,0.75465 -0.061,0.42926 -0.29038,0.62181 -0.81253,0.68189 -0.72002,0.0828 -0.7276,0.10396 -0.7276,2.02464 0,1.9187 0.009,1.94408 0.79375,2.21762 0.51504,0.17954 0.79375,0.4574 0.79375,0.79132 0,1.02385 -1.83042,1.14613 -2.79015,0.18639 z m 8.2141,0.39701 c -1.61583,-0.66835 -2.41928,-3.05204 -1.73133,-5.13655 0.96739,-2.93122 5.2605,-2.61295 5.74353,0.4258 0.23124,1.45473 -0.17469,1.78817 -2.17689,1.78817 -1.81346,0 -2.14111,0.19074 -1.59965,0.93123 0.26635,0.36426 0.72688,0.48531 1.90975,0.502 1.36715,0.0193 1.55876,0.0861 1.55876,0.54334 0,0.96514 -2.26155,1.54272 -3.70417,0.94601 z m 1.98438,-4.89133 c 0,-0.5406 -0.45413,-0.75328 -1.20566,-0.56465 -1.02039,0.2561 -0.81648,0.9459 0.27962,0.9459 0.6299,0 0.92604,-0.12192 0.92604,-0.38125 z m 3.80592,4.52315 c -0.65953,-0.56731 -0.73184,-0.81769 -0.84194,-2.91548 -0.0662,-1.26217 -0.22447,-2.35914 -0.35159,-2.43771 -0.34506,-0.21326 -0.27893,-1.11309 0.0996,-1.35525 0.1819,-0.11637 0.46277,-0.44971 0.62415,-0.74075 0.40431,-0.72915 1.27159,-0.68754 1.37863,0.0661 0.0598,0.42098 0.26337,0.59531 0.6952,0.59531 0.83765,0 1.37677,0.6644 0.95322,1.17474 -0.1739,0.20955 -0.57544,0.41791 -0.89229,0.46302 -0.51244,0.073 -0.58487,0.26732 -0.65547,1.75878 -0.0846,1.78636 0.19072,2.42429 1.04611,2.42429 0.6385,0 0.91416,0.6777 0.48567,1.194 -0.48675,0.5865 -1.72394,0.47594 -2.54128,-0.2271 z m 7.96804,0.38402 c -1.79519,-0.78069 -2.42756,-4.03445 -1.17416,-6.04146 0.48643,-0.77891 1.55987,-1.1948 2.80417,-1.08645 0.95898,0.0835 1.01988,0.044 1.08837,-0.7053 0.14364,-1.5715 0.32363,-1.98437 0.86508,-1.98437 0.3262,0 0.6301,0.26151 0.78871,0.67868 0.34608,0.91026 0.33164,7.94984 -0.0177,8.60249 -0.17479,0.32659 -0.53791,0.50743 -0.99218,0.4941 -0.39408,-0.0116 -1.19275,0.045 -1.77484,0.1257 -0.58208,0.0807 -1.29646,0.0432 -1.5875,-0.0834 z m 2.24896,-1.88008 c 1.07518,-1.07519 0.43028,-3.70417 -0.90865,-3.70417 -0.90401,0 -1.34031,0.7092 -1.34031,2.17866 0,0.98504 0.1255,1.39535 0.51359,1.67913 0.69629,0.50914 1.10915,0.47259 1.73537,-0.15362 z m 5.07949,1.68906 c -1.27713,-0.65133 -1.71814,-1.6932 -1.58719,-3.7497 0.0974,-1.52896 0.20048,-1.79497 0.9584,-2.47217 1.2022,-1.07416 2.94548,-1.0763 4.01686,-0.005 0.8723,0.8723 1.28623,2.48802 0.79045,3.08541 -0.22645,0.27285 -0.84097,0.39398 -1.99875,0.39398 -1.78938,0 -2.29311,0.31705 -1.60191,1.00824 0.30712,0.30713 0.83166,0.41142 1.85399,0.36864 1.54796,-0.0648 1.993,0.30506 1.37844,1.14551 -0.4843,0.66234 -2.69661,0.79297 -3.81029,0.22501 z m 2.27847,-4.79792 c -0.0611,-0.31713 -0.33698,-0.46302 -0.87567,-0.46302 -0.53869,0 -0.8146,0.14589 -0.87567,0.46302 -0.0718,0.37263 0.0992,0.46302 0.87567,0.46302 0.77648,0 0.94743,-0.0904 0.87567,-0.46302 z m 21.8785,4.9731 c -1.16402,-0.48146 -1.81414,-1.54179 -1.93034,-3.14836 -0.13191,-1.82357 0.37386,-3.03046 1.5505,-3.69987 0.49947,-0.28415 0.77396,-0.65411 0.77504,-1.04459 0.003,-1.01181 0.76394,-1.90892 1.6196,-1.90892 0.93491,0 0.99386,0.50335 0.1868,1.59496 -0.31708,0.42888 -0.52544,0.81101 -0.46302,0.84918 0.0624,0.0382 0.45912,0.24799 0.88154,0.46627 1.31287,0.67841 1.86961,1.69006 1.86391,3.38694 -0.006,1.70833 -0.54568,2.75996 -1.73206,3.37346 -0.81116,0.41947 -1.92615,0.47252 -2.75197,0.13093 z m 2.08364,-1.67509 c 0.25575,-0.187 0.52129,-0.81208 0.5901,-1.38906 0.22393,-1.87766 -0.88889,-2.9825 -2.26322,-2.24698 -0.44464,0.23796 -0.54282,0.5493 -0.54282,1.7214 0,1.17871 0.10364,1.50349 0.58804,1.84278 0.71474,0.50062 1.02294,0.51422 1.6279,0.0719 z m 11.12394,1.67117 c -0.30291,-0.12254 -0.86846,-0.60038 -1.25677,-1.06186 -0.57677,-0.68545 -0.70602,-1.10417 -0.70602,-2.28711 0,-2.45663 1.07721,-3.80302 3.04271,-3.80302 0.59008,0 1.33818,0.18582 1.66243,0.41294 1.16035,0.81274 1.76384,2.80183 1.06277,3.50289 -0.17911,0.17912 -1.03722,0.3175 -1.96876,0.3175 -1.75881,0 -2.27031,0.31932 -1.59432,0.99531 0.27531,0.27531 0.93264,0.42287 1.94953,0.43763 1.34259,0.0195 1.53418,0.0874 1.53418,0.54363 0,0.9703 -2.24978,1.53918 -3.72575,0.94209 z m 1.95559,-4.96918 c -0.0611,-0.31713 -0.33698,-0.46302 -0.87567,-0.46302 -0.5387,0 -0.8146,0.14589 -0.87568,0.46302 -0.0718,0.37263 0.0992,0.46302 0.87568,0.46302 0.77647,0 0.94743,-0.0904 0.87567,-0.46302 z m 6.40037,4.89816 c -0.3638,-0.19235 -0.66146,-0.58433 -0.66146,-0.87107 0,-0.44655 0.18981,-0.52425 1.32292,-0.5415 1.83045,-0.0279 1.98437,-0.0639 1.98437,-0.4638 0,-0.1934 -0.60648,-0.63571 -1.34773,-0.98289 -2.18102,-1.02153 -2.70189,-2.3587 -1.39176,-3.57288 0.5459,-0.50592 0.98679,-0.64883 2.00177,-0.64883 1.45861,0 2.32522,0.3517 2.32522,0.94366 0,0.48643 -0.57525,0.72386 -1.82565,0.75353 -1.37597,0.0327 -1.39181,0.46792 -0.0406,1.11623 2.12555,1.01986 2.67284,2.34781 1.51997,3.6881 -0.72879,0.84728 -2.79726,1.15563 -3.88703,0.57945 z m -71.37445,-0.24458 c -0.23247,-0.23248 -0.32764,-1.52716 -0.32764,-4.45749 0,-4.37482 0.19491,-5.17886 1.20812,-4.98374 0.48323,0.0931 0.51167,0.36312 0.51167,4.85742 0,4.56642 -0.0215,4.76196 -0.53225,4.83516 -0.29274,0.042 -0.6797,-0.0712 -0.8599,-0.25135 z m 34.25575,0.14213 c -0.10316,-0.10315 -0.18755,-1.64325 -0.18755,-3.42243 0,-2.7434 0.0654,-3.25999 0.43041,-3.40005 0.9748,-0.37407 1.17633,0.29598 1.09877,3.65317 -0.0692,2.99375 -0.10914,3.20728 -0.61403,3.27956 -0.29703,0.0425 -0.62445,-0.007 -0.7276,-0.11025 z m 2.89925,-0.0112 c -0.097,-0.097 -0.17639,-1.58903 -0.17639,-3.31559 0,-2.52401 0.0766,-3.16859 0.39063,-3.28911 0.34815,-0.13359 3.1303,-0.19916 4.90104,-0.11549 0.3638,0.0172 1.16906,-0.044 1.78945,-0.13608 2.12863,-0.31578 2.96862,0.92868 2.97157,4.4024 0.002,1.90029 -0.39212,2.74552 -1.20663,2.59028 -0.44968,-0.0857 -0.52771,-0.39231 -0.64397,-2.53029 -0.14276,-2.62525 -0.39458,-3.14353 -1.40422,-2.89013 -0.79496,0.19952 -0.96873,0.78613 -0.97342,3.28589 -0.003,1.53733 -0.0911,1.96009 -0.43645,2.09263 -0.96719,0.37115 -1.28112,-0.26062 -1.41925,-2.85614 -0.1273,-2.39217 -0.15668,-2.48938 -0.77892,-2.57721 -0.98587,-0.13916 -1.33774,0.5884 -1.33774,2.76604 0,1.05169 -0.0723,2.10049 -0.1606,2.33068 -0.1597,0.41617 -1.17827,0.57895 -1.5151,0.24212 z m 19.23423,-0.79563 c -0.80846,-1.9349 -1.94812,-5.15245 -1.94812,-5.50001 0,-0.42903 0.65443,-0.70858 1.1835,-0.50555 0.21436,0.0823 0.71754,1.03102 1.11818,2.10836 0.40065,1.07734 0.81255,1.9588 0.91535,1.9588 0.10279,0 0.26963,-0.26789 0.37075,-0.59531 0.93382,-3.02364 1.47144,-3.81214 2.36535,-3.46912 0.59807,0.22951 0.49881,0.75821 -0.73824,3.93214 -1.09636,2.81292 -1.16303,2.91321 -1.9903,2.9938 -0.77084,0.0751 -0.89774,-0.0167 -1.27647,-0.9231 z m 11.82812,0.4763 c -0.15537,-0.2903 -0.28249,-1.71777 -0.28249,-3.17215 0,-2.05116 0.0933,-2.7376 0.41578,-3.0601 1.10616,-1.10617 1.46609,-0.20342 1.37881,3.45821 -0.0714,2.99648 -0.10074,3.14116 -0.65221,3.21967 -0.36449,0.0519 -0.68157,-0.11243 -0.85989,-0.44562 z M 71.488945,150.5737 l -6.994986,-7.05952 -0.942514,0.586 c -1.724189,1.07198 -4.62661,2.3618 -6.272369,2.78739 -2.164321,0.55969 -7.037459,0.5579 -9.337614,-0.003 -6.457776,-1.57593 -11.660791,-6.50619 -13.932616,-13.20222 -0.638527,-1.88201 -0.720941,-2.52732 -0.743402,-5.82083 -0.02175,-3.18931 0.0609,-3.97999 0.594666,-5.68855 1.103962,-3.53375 2.562975,-5.97551 5.061531,-8.47079 3.842912,-3.83789 7.622112,-5.53792 12.795547,-5.75596 6.016149,-0.25355 10.604635,1.60396 14.793976,5.98889 2.229744,2.33385 3.653872,4.68068 4.651102,7.66461 0.603264,1.80508 0.679522,2.46551 0.6925,5.99721 0.01275,3.47055 -0.06234,4.19838 -0.598215,5.79799 -0.654585,1.95398 -1.656832,4.07863 -2.463843,5.22306 -0.272378,0.38627 -0.495234,0.86358 -0.495234,1.0607 0,0.19712 2.51187,2.85764 5.581934,5.91228 7.09033,7.05471 8.1764,8.32412 8.1764,9.55673 0,1.32938 -1.184365,2.47829 -2.559336,2.48271 -0.974862,0.003 -1.272815,-0.25943 -8.007527,-7.05627 z m -14.965429,-8.95662 c 1.662615,-0.41434 4.37034,-2.06854 5.842431,-3.56926 2.976232,-3.03411 4.344027,-6.30187 4.344027,-10.37819 0,-4.15722 -1.341866,-7.42283 -4.241636,-10.3226 -3.231316,-3.23132 -7.934306,-4.81338 -11.997602,-4.03595 -3.581377,0.68523 -5.968926,1.95875 -8.275551,4.41415 -2.518405,2.68085 -3.795628,6.00931 -3.795628,9.89146 0,4.29412 1.416132,7.5892 4.558398,10.60656 3.590195,3.44749 8.460711,4.66599 13.565561,3.39383 z m 98.371044,12.35318 c -0.57731,-0.35824 -0.51947,-1.51082 0.0875,-1.74373 0.54138,-0.20775 1.15709,0.28466 1.15709,0.92538 0,0.55576 -0.80975,1.08819 -1.24458,0.81835 z m 33.69814,-0.43025 c -0.35123,-0.91528 0.61086,-1.76094 1.32712,-1.16651 0.20686,0.17168 0.34059,0.56069 0.29719,0.86446 -0.0984,0.68888 -1.38413,0.92796 -1.62431,0.30205 z M 83.246433,144.22354 c -0.291042,-0.0611 -0.789122,-0.16632 -1.106845,-0.23376 -1.208185,-0.25642 -1.08862,-0.75274 3.056861,-12.68908 0.303237,-0.87313 1.262624,-3.66101 2.131973,-6.1953 0.86935,-2.53429 1.769311,-4.79648 1.999917,-5.02708 0.30748,-0.30748 0.943946,-0.41929 2.386862,-0.41929 1.61713,0 2.06058,0.0943 2.48974,0.52917 0.53917,0.5464 7.959199,21.81197 7.959199,22.81082 0,0.89145 -0.70485,1.23319 -2.543469,1.23319 -2.13227,0 -2.4829,-0.31538 -3.34602,-3.00964 l -0.6357,-1.98437 h -3.935889 -3.935889 l -0.618855,1.98437 c -0.340368,1.09141 -0.821754,2.1792 -1.069745,2.41731 -0.481214,0.46205 -1.960105,0.76683 -2.83214,0.58366 z M 93.598351,133.9555 c 0.14926,-0.38895 -1.711341,-6.35649 -1.917565,-6.15026 -0.263041,0.26304 -2.152483,6.24955 -2.015648,6.38638 0.08348,0.0835 0.969113,0.15179 1.968071,0.15179 1.351735,0 1.854362,-0.0992 1.965142,-0.38791 z m 17.297039,10.19822 c -2.73145,-0.53979 -5.2967,-2.42215 -6.44042,-4.72593 -1.12329,-2.26261 -1.36597,-3.6566 -1.34575,-7.73022 0.0167,-3.36208 0.0954,-4.03275 0.63668,-5.42395 1.25666,-3.22995 2.86609,-4.93853 5.64578,-5.99362 1.38628,-0.52618 2.12063,-0.62097 4.811,-0.62097 6.05163,0 8.54502,1.63017 6.68073,4.36782 -0.95728,1.40574 -1.29436,1.50756 -3.03241,0.916 -1.02132,-0.34762 -2.23692,-0.52132 -3.64832,-0.52132 -2.74663,0 -3.75868,0.57279 -4.81588,2.72567 -0.68588,1.3967 -0.74037,1.74135 -0.74037,4.68267 0,3.65239 0.4025,5.0917 1.78921,6.39807 1.71018,1.61111 4.15384,1.83723 7.40829,0.68551 2.40076,-0.84961 2.67396,-0.76991 3.58645,1.04623 0.57326,1.14097 0.58663,1.27153 0.20566,2.00825 -0.50145,0.9697 -2.20146,1.82974 -4.29422,2.17247 -1.73796,0.28462 -5.03907,0.29144 -6.44643,0.0133 z m 15.12288,-0.0235 c -0.48643,-0.11275 -1.02221,-0.34268 -1.19063,-0.51097 -0.32923,-0.32896 -0.60932,-20.78528 -0.30723,-22.43819 0.21547,-1.17895 1.35806,-1.75649 3.13687,-1.58557 2.16133,0.20768 2.28811,0.51371 2.28811,5.52322 v 4.21042 l 4.43177,-0.0725 4.43177,-0.0725 0.0725,-4.42827 0.0725,-4.42828 0.83119,-0.42982 c 1.17406,-0.60713 3.32089,-0.38095 3.96788,0.41805 0.44623,0.55108 0.47984,1.36455 0.47984,11.61689 0,12.35844 0.051,12.01742 -1.83424,12.27028 -1.04467,0.14012 -2.80035,-0.11916 -3.14766,-0.46484 -0.0976,-0.0972 -0.23701,-2.28047 -0.30977,-4.85179 l -0.13229,-4.67514 h -4.36563 -4.36562 l -0.13229,4.55547 c -0.10398,3.58033 -0.21725,4.63529 -0.52917,4.92839 -0.50668,0.47609 -2.25534,0.70007 -3.39795,0.43523 z m 22.05107,0.0933 c -0.29104,-0.0611 -0.78912,-0.16632 -1.10684,-0.23376 -1.20819,-0.25642 -1.08862,-0.75274 3.05686,-12.68908 0.30324,-0.87313 1.26262,-3.66101 2.13197,-6.1953 0.86935,-2.53429 1.76931,-4.79648 1.99992,-5.02708 0.30748,-0.30748 0.94395,-0.41929 2.38686,-0.41929 1.61713,0 2.06058,0.0943 2.48974,0.52917 0.53918,0.5464 7.9592,21.81197 7.9592,22.81082 0,0.89145 -0.70485,1.23319 -2.54347,1.23319 -2.13227,0 -2.4829,-0.31538 -3.34601,-3.00964 l -0.63571,-1.98437 h -3.93589 -3.93589 l -0.61885,1.98437 c -0.34037,1.09141 -0.82175,2.1792 -1.06975,2.41731 -0.48121,0.46205 -1.9601,0.76683 -2.83214,0.58366 z m 10.35192,-10.26804 c 0.14926,-0.38895 -1.71134,-6.35649 -1.91756,-6.15026 -0.26304,0.26304 -2.15249,6.24955 -2.01565,6.38638 0.0835,0.0835 0.96911,0.15179 1.96807,0.15179 1.35174,0 1.85436,-0.0992 1.96514,-0.38791 z m 40.31579,10.21053 c -3.85234,-0.84347 -6.76926,-3.96487 -7.646,-8.182 -0.37819,-1.81911 -0.37403,-6.25471 0.008,-8.04374 0.89573,-4.19957 3.2964,-6.90888 7.13081,-8.04758 2.25787,-0.67051 6.27677,-0.42066 8.31285,0.5168 3.36454,1.54912 5.17341,4.29617 5.89042,8.94549 0.36017,2.33543 0.35991,2.88057 -0.002,5.23048 -0.70755,4.58797 -2.49861,7.33772 -5.75563,8.83641 -1.48288,0.68234 -2.08428,0.80207 -4.36563,0.86912 -1.45521,0.0428 -3.06255,-0.0135 -3.57187,-0.12498 z m 5.18555,-5.0351 c 2.16896,-0.98502 3.06456,-3.1108 3.08425,-7.32066 0.0121,-2.59091 -0.0639,-3.09944 -0.6565,-4.39393 -0.88575,-1.93473 -2.09249,-2.84979 -4.02059,-3.04879 -2.81079,-0.2901 -4.77112,1.03616 -5.59939,3.78827 -0.21155,0.70293 -0.37457,2.35952 -0.37457,3.80634 0,4.04106 0.84408,6.06033 2.97398,7.11461 1.39451,0.69027 3.14665,0.71093 4.59282,0.0542 z m -34.43758,4.62651 c -0.49463,-0.36168 -0.51359,-0.79605 -0.51359,-11.7645 0,-10.57728 0.0336,-11.42264 0.47211,-11.86144 0.39772,-0.39802 1.04995,-0.48679 4.1391,-0.56335 2.01684,-0.05 4.54282,0.0446 5.6133,0.21029 6.09105,0.94251 9.22236,4.99608 9.22236,11.93861 0,3.09611 -0.3164,4.89064 -1.20607,6.84033 -1.16639,2.55612 -3.25167,4.31298 -6.1709,5.199 -1.74886,0.5308 -10.83071,0.53164 -11.55631,0.001 z m 10.38297,-4.90116 c 1.26594,-0.57475 2.26771,-1.93386 2.74129,-3.71912 0.44778,-1.68805 0.39689,-4.92509 -0.10456,-6.65001 -0.85512,-2.94151 -2.3302,-3.93333 -5.84983,-3.93333 h -2.2595 v 7.40834 7.40833 l 2.18281,-0.006 c 1.56953,-0.004 2.49383,-0.14702 3.28979,-0.5084 z"
         id="path908"
         inkscape:export-filename="F:\Documentos\Projetos R\caixadeimoveis\themes\hugo-fresh\static\images\logos\ACHADO_branco.png"
         inkscape:export-xdpi="98.480003"
         inkscape:export-ydpi="98.480003" />
      <path
         style="fill:#a3d8da;stroke-width:0.264583"
         d="m 25.034644,164.82373 c -3.146747,-1.08811 -5.922785,-3.57751 -7.325632,-6.5692 -1.208797,-2.57787 -1.316713,-4.68688 -1.215145,-23.74759 0.09125,-17.12338 0.09545,-17.23826 0.684683,-18.71222 0.927172,-2.3193 1.835021,-3.49562 6.319751,-8.1886 2.302097,-2.409 7.455504,-7.826341 11.452016,-12.038542 9.860412,-10.392569 10.819855,-11.3329 12.359058,-12.112874 2.869853,-1.454266 6.307566,-1.474316 9.214141,-0.05374 1.472176,0.719516 4.170818,3.395503 15.877942,15.744653 3.927444,4.142823 8.662546,9.116873 10.522448,11.053443 3.951973,4.11488 4.42159,4.79646 4.42159,6.41727 0,2.8895 -3.037441,4.87338 -5.506556,3.59655 -0.651063,-0.33668 -4.480071,-4.28294 -20.815205,-21.452592 -8.580404,-9.018757 -7.840713,-8.337709 -9.055646,-8.337709 -1.049416,0 -1.16205,0.102958 -8.176199,7.473985 -3.911669,4.110686 -8.488344,8.902956 -10.170388,10.649476 -6.961862,7.22873 -8.508971,8.93789 -8.867771,9.79662 -0.313318,0.74988 -0.377091,3.82065 -0.377091,18.15767 0,16.97798 0.0089,17.27358 0.55458,18.40078 0.369786,0.76388 0.92855,1.36477 1.676891,1.80333 l 1.122312,0.65772 23.921548,0.006 c 23.017128,0.006 23.963852,0.025 25.040558,0.51378 1.19834,0.54399 2.083224,1.71091 2.344164,3.09134 0.224504,1.18767 -0.687208,3.11607 -1.791531,3.78936 -0.865103,0.52743 -1.242224,0.53512 -25.881021,0.52758 -23.023142,-0.007 -25.10816,-0.044 -26.329497,-0.4663 z m 76.177336,-3.99475 c -1.484399,-0.90516 -2.169589,-3.9544 -1.330899,-5.92272 0.633169,-1.48597 1.575299,-2.12915 3.278869,-2.23842 2.72025,-0.1745 4.03127,1.2879 4.03127,4.49674 0,1.8907 -0.64175,3.21139 -1.86002,3.82784 -0.99609,0.50403 -3.16581,0.41794 -4.11922,-0.16344 z m 3.4358,-0.54504 c 0.95648,-0.36365 1.48511,-1.58013 1.48511,-3.41751 0,-1.30419 -0.11683,-1.71919 -0.66861,-2.37494 -0.84609,-1.00552 -1.89949,-1.24821 -3.14996,-0.72573 -1.11823,0.46722 -1.73768,1.6566 -1.73768,3.33646 0,2.56829 1.86039,4.02225 4.07114,3.18172 z m 5.03184,0.49078 c -0.42238,-0.46609 -0.50402,-0.96965 -0.50402,-3.10885 0,-2.09265 0.0715,-2.55267 0.39687,-2.55267 0.3148,0 0.42423,0.50828 0.52917,2.45784 0.14178,2.63413 0.31615,2.95442 1.61263,2.96207 1.18375,0.007 1.60366,-0.77765 1.76036,-3.28932 0.10366,-1.6615 0.23674,-2.26288 0.50076,-2.26288 0.28195,0 0.35958,0.64893 0.35958,3.00585 v 3.00586 l -1.38906,0.16684 c -2.21823,0.26644 -2.7309,0.20605 -3.26629,-0.38474 z m 7.26743,0.11891 c -0.22572,-0.27181 -0.39842,-1.29803 -0.45639,-2.71198 -0.0513,-1.25109 -0.20888,-2.41651 -0.35018,-2.58983 -0.17494,-0.21458 -0.068,-0.57071 0.33527,-1.11611 l 0.59219,-0.80097 0.60525,0.65308 c 0.3329,0.3592 0.78954,0.65309 1.01477,0.65309 0.6942,0 0.45301,0.46224 -0.39555,0.75804 l -0.80505,0.28065 0.0774,2.05767 c 0.0734,1.95098 0.11518,2.07571 0.80506,2.40551 0.40018,0.19131 0.7276,0.4604 0.7276,0.59798 0,0.43051 -1.76507,0.27691 -2.15042,-0.18713 z m 3.91201,0.25859 c -0.0957,-0.0958 -0.17409,-2.12751 -0.17409,-4.51502 0,-3.99169 0.0373,-4.33378 0.46302,-4.25203 0.41358,0.0794 0.47078,0.52946 0.53569,4.21492 0.057,3.23449 -0.005,4.19087 -0.28892,4.42613 -0.19888,0.16505 -0.43994,0.22175 -0.5357,0.126 z m 3.73207,-0.34292 c -1.82666,-1.43685 -1.47017,-4.97432 0.58718,-5.8265 1.43402,-0.59399 2.81942,0.0747 3.41832,1.64994 0.46422,1.22098 0.15307,1.52317 -1.56833,1.52317 -1.94562,0 -2.37458,0.16969 -2.37458,0.93934 0,0.88168 0.95664,1.44191 2.46217,1.44191 1.8455,0 1.51615,0.63739 -0.382,0.7393 -1.14248,0.0613 -1.59681,-0.0377 -2.14276,-0.46716 z m 2.97301,-3.97021 c 0,-0.28769 -0.28159,-0.70757 -0.62575,-0.93307 -0.98048,-0.64244 -2.28467,0.0501 -2.28467,1.21319 0,0.13362 0.65484,0.24295 1.45521,0.24295 1.27316,0 1.45521,-0.0654 1.45521,-0.52307 z m 3.32229,3.90378 c -0.28481,-0.40662 -0.41188,-1.20656 -0.41188,-2.59292 0,-1.18031 -0.12757,-2.13245 -0.31018,-2.31506 -0.2372,-0.23719 -0.19191,-0.52983 0.19246,-1.24354 0.57124,-1.06073 0.89748,-1.1763 1.10292,-0.3907 0.0869,0.33241 0.43612,0.6015 0.90127,0.69453 0.98723,0.19745 0.96756,0.52712 -0.0447,0.74945 l -0.80407,0.17661 0.0765,2.15678 c 0.073,2.05976 0.1092,2.17244 0.80407,2.50469 0.99428,0.47542 0.91366,0.8482 -0.18343,0.8482 -0.64151,0 -1.0329,-0.17398 -1.32292,-0.58804 z m 7.62823,0.20984 c -0.8455,-0.59682 -1.24502,-1.82871 -1.09601,-3.37947 0.10822,-1.12628 0.28553,-1.50775 0.99573,-2.14232 0.86734,-0.77497 1.60716,-0.85255 2.97424,-0.31192 0.39871,0.15767 0.46302,0.0208 0.46302,-0.98526 0,-1.28722 0.63011,-2.51971 0.91414,-1.78805 0.087,0.22413 0.12527,2.28883 0.085,4.58824 l -0.0731,4.18073 -1.85209,0.11627 c -1.36521,0.0857 -1.99899,0.0126 -2.41093,-0.27822 z m 2.85312,-0.85344 c 0.59511,-0.53856 0.67841,-3.16365 0.12443,-3.92127 -0.52127,-0.71288 -1.9755,-0.65059 -2.59222,0.11104 -0.69234,0.855 -0.66846,3.00926 0.0412,3.71895 0.64283,0.64283 1.77025,0.68524 2.42656,0.0913 z m 4.48629,0.67706 c -1.20033,-1.11828 -1.45235,-3.2168 -0.56174,-4.67754 1.37239,-2.25092 4.76139,-1.42047 4.76139,1.16676 v 0.89036 h -1.66922 c -1.02587,0 -1.86717,0.14501 -2.18281,0.37623 -0.50658,0.37109 -0.50596,0.38645 0.0448,1.12448 0.47976,0.64284 0.75129,0.75265 1.92747,0.77954 0.75298,0.0172 1.43635,0.0986 1.5186,0.18083 0.4017,0.4017 -0.35106,0.71392 -1.72125,0.71392 -1.17952,0 -1.65594,-0.12479 -2.11726,-0.55458 z m 3.00565,-3.67329 c 0.24012,-0.38852 -0.30593,-1.24376 -0.89195,-1.39701 -0.74417,-0.19461 -1.73672,0.38276 -1.83506,1.06744 -0.0778,0.54145 0.0218,0.58869 1.24116,0.58869 0.72914,0 1.39777,-0.1166 1.48585,-0.25912 z m 6.13289,4.05148 c -0.097,-0.097 -0.17639,-1.5345 -0.17639,-3.1944 0,-2.73165 0.0439,-3.00961 0.46302,-2.92944 0.39546,0.0756 0.47434,0.4549 0.54059,2.59909 0.0987,3.19304 -0.14038,4.21159 -0.82722,3.52475 z m 3.16781,-0.007 c -0.0931,-0.0931 -0.1692,-1.53245 -0.1692,-3.19866 0,-3.01151 0.004,-3.02855 0.59531,-2.87346 0.32742,0.0858 0.97509,0.0188 1.43925,-0.14882 0.69494,-0.251 1.02343,-0.22388 1.86061,0.15364 0.92798,0.41846 1.08519,0.42274 1.8019,0.049 1.11512,-0.58147 1.9014,-0.51121 2.64933,0.23673 0.5972,0.59719 0.64943,0.84903 0.64943,3.1309 0,2.59937 -0.11709,3.02145 -0.70326,2.53497 -0.24407,-0.20256 -0.35507,-0.97107 -0.35507,-2.45833 0,-2.42349 -0.20091,-2.79864 -1.49882,-2.79864 -1.14517,0 -1.41062,0.55487 -1.41565,2.95917 -0.004,1.99816 -0.24927,2.79879 -0.76012,2.48307 -0.17736,-0.10962 -0.29416,-1.04847 -0.29416,-2.36458 0,-2.46372 -0.31007,-3.14381 -1.43332,-3.14381 -1.23193,0 -1.55829,0.59954 -1.68975,3.10413 -0.11203,2.13443 -0.28383,2.72734 -0.67648,2.33469 z m 11.47157,-0.57036 c -1.4758,-1.4758 -1.29142,-4.33078 0.34604,-5.35803 1.10886,-0.69564 2.66025,-0.5279 3.57464,0.38649 1.29498,1.29498 1.00729,4.66482 -0.46554,5.45306 -0.27997,0.14983 -1.00228,0.27242 -1.60512,0.27242 -0.85223,0 -1.26381,-0.16773 -1.85002,-0.75394 z m 3.1759,-0.56897 c 0.38485,-0.38486 0.52916,-0.88194 0.52916,-1.82277 0,-1.63934 -0.62715,-2.49876 -1.82345,-2.49876 -1.15232,0 -1.66718,0.60229 -1.81138,2.11896 -0.0978,1.02859 -0.01,1.41785 0.45302,2.00413 0.69728,0.88328 1.87938,0.97171 2.65265,0.19844 z m 4.4735,0.61366 c -1.06098,-2.73044 -1.82767,-4.93778 -1.82767,-5.26192 0,-0.20835 0.16754,-0.37882 0.3723,-0.37882 0.22621,0 0.68171,0.85653 1.1608,2.18281 0.43367,1.20055 0.93701,2.18281 1.11854,2.18281 0.18152,0 0.68669,-0.98226 1.12259,-2.18281 0.46694,-1.28601 0.94147,-2.18281 1.155,-2.18281 0.56752,0 0.43739,0.72429 -0.64173,3.57187 -0.81382,2.14751 -1.1126,2.66175 -1.58633,2.73033 -0.43457,0.0629 -0.65769,-0.10604 -0.8735,-0.66146 z m 5.90988,0.30509 c -1.90101,-1.34322 -1.77583,-4.79183 0.21125,-5.81938 1.7272,-0.89318 3.69287,0.2556 3.69287,2.15819 v 0.89036 h -1.56586 c -1.97461,0 -2.40289,0.16743 -2.40289,0.93934 0,0.88168 0.95664,1.44191 2.46217,1.44191 0.91067,0 1.25424,0.0965 1.17699,0.33073 -0.17205,0.52157 -2.85709,0.56578 -3.57453,0.0589 z m 2.84578,-4.08765 c 0,-0.28769 -0.29131,-0.71394 -0.64736,-0.94724 -0.55695,-0.36492 -0.75094,-0.37467 -1.38906,-0.0698 -0.42267,0.20196 -0.77807,0.6094 -0.82625,0.94723 -0.0789,0.55322 0.0139,0.59284 1.38906,0.59284 1.2915,0 1.47361,-0.0647 1.47361,-0.52307 z m 3.03606,4.173 c -0.0799,-0.20813 -0.11105,-1.62052 -0.0693,-3.13865 0.0617,-2.24341 0.15024,-2.76024 0.47281,-2.76024 0.59445,0 0.72671,5.4598 0.14397,5.94343 -0.32708,0.27145 -0.42944,0.26313 -0.5475,-0.0445 z m 2.69658,0.14243 c -0.43691,-0.43692 -0.0726,-0.61736 1.24643,-0.61736 2.48308,0 2.6373,-1.20273 0.28746,-2.24195 -3.07897,-1.36166 -1.64711,-4.29924 1.66316,-3.41212 0.32742,0.0877 0.59531,0.33946 0.59531,0.55937 0,0.31533 -0.21416,0.36558 -1.01333,0.23779 -1.1943,-0.19098 -2.07951,0.29573 -1.81091,0.99568 0.0947,0.24675 0.69362,0.6793 1.33096,0.96123 1.38719,0.61362 1.82401,1.08865 1.82401,1.98354 0,1.18102 -0.75634,1.71021 -2.4443,1.71021 -0.82632,0 -1.58177,-0.0794 -1.67879,-0.17639 z M 78.34082,156.89739 c -0.369755,-0.2537 -3.571928,-3.40807 -7.115943,-7.00971 -3.544011,-3.60164 -6.616387,-6.54844 -6.827498,-6.54844 -0.211114,0 -0.720204,0.23951 -1.131311,0.53225 -1.209157,0.86099 -4.501449,2.32947 -6.202828,2.76668 -2.286522,0.58758 -6.705169,0.53229 -9.238367,-0.11559 -10.398308,-2.65944 -16.664922,-13.80188 -13.669174,-24.30466 3.31253,-11.61339 16.152365,-17.39352 26.865734,-12.0942 4.772123,2.36051 8.094474,6.34006 9.972328,11.94496 0.530596,1.58368 0.60891,2.32858 0.595085,5.66014 -0.01421,3.42531 -0.09152,4.06331 -0.721341,5.95313 -0.387983,1.16417 -1.189144,2.9415 -1.78036,3.94964 -0.591214,1.00814 -1.040517,1.98845 -0.998451,2.17848 0.04207,0.19003 3.142348,3.49751 6.88951,7.34995 7.57052,7.78323 7.615272,7.85309 6.039622,9.42874 -0.880673,0.88067 -1.704818,0.97569 -2.677006,0.30863 z M 55.994349,141.97115 c 4.89902,-1.0821 9.214276,-5.38117 10.589858,-10.55015 0.49429,-1.85739 0.492935,-5.79662 -0.0026,-7.65892 -1.055513,-3.96651 -4.042183,-7.65627 -7.567706,-9.34922 -2.404149,-1.15447 -3.784565,-1.48585 -6.224548,-1.49423 -4.198916,-0.0144 -7.551274,1.33612 -10.396291,4.18833 -2.868155,2.8754 -4.305843,6.3952 -4.2965,10.51886 0.0132,5.82405 3.140636,10.86677 8.264149,13.3252 3.225914,1.5479 5.942116,1.83553 9.633675,1.02013 z m 98.939911,11.3992 c -0.22704,-0.36736 0.27622,-0.8853 0.6411,-0.65979 0.30386,0.1878 0.1093,0.94743 -0.24267,0.94743 -0.12136,0 -0.30065,-0.12944 -0.39843,-0.28764 z m 16.28613,-0.0903 c 0,-0.42373 0.69985,-1.20953 1.07723,-1.20953 0.41502,0 0.27262,0.68736 -0.23817,1.14962 -0.59391,0.53748 -0.83906,0.55498 -0.83906,0.0599 z m 17.85937,0.11339 c -0.19293,-0.31218 0.0573,-0.79375 0.41249,-0.79375 0.13694,0 0.24897,0.23812 0.24897,0.52916 0,0.55803 -0.38494,0.71201 -0.66146,0.26459 z m -78.17239,-9.53208 c -5.38171,-1.13422 -8.0647,-5.80753 -7.59091,-13.22209 0.24457,-3.82747 1.01081,-5.90487 2.91135,-7.89319 1.93884,-2.02839 4.43003,-2.94911 7.97487,-2.94745 3.59774,0.002 6.78068,1.06173 6.96343,2.3191 0.10572,0.72735 -0.95041,2.64604 -1.56362,2.84066 -0.25251,0.0801 -1.18006,-0.0972 -2.06122,-0.39399 -2.03629,-0.68598 -4.54795,-0.70261 -5.98443,-0.0396 -2.24018,1.03391 -3.06613,2.69139 -3.24624,6.51436 -0.15367,3.26186 0.23368,5.28254 1.29294,6.7448 1.60144,2.21073 4.50845,2.70335 8.26758,1.40101 l 2.08095,-0.72093 0.76332,0.85431 c 0.9104,1.01891 1.02722,2.37722 0.26385,3.06805 -1.05734,0.95688 -3.23585,1.53849 -6.1151,1.6326 -1.52797,0.0499 -3.30852,-0.021 -3.95677,-0.1576 z m 87.75943,-0.0162 c -2.49515,-0.58785 -5.02054,-2.55277 -6.17299,-4.80299 -1.10258,-2.15284 -1.49468,-4.45637 -1.36275,-8.006 0.0897,-2.4136 0.25558,-3.53066 0.69169,-4.65807 1.70922,-4.41866 4.94535,-6.59121 9.8066,-6.58358 5.76038,0.009 9.27523,2.86322 10.35093,8.40534 0.46315,2.38623 0.20278,7.4434 -0.48206,9.36301 -1.1507,3.22542 -3.4082,5.35495 -6.5329,6.16258 -1.70295,0.44016 -4.69685,0.49706 -6.29852,0.11971 z m 5.17198,-4.30974 c 1.95106,-0.8348 3.21415,-3.09391 3.4946,-6.2503 0.34099,-3.83776 -0.66323,-7.14304 -2.54947,-8.39129 -1.90926,-1.2635 -4.87596,-1.15182 -6.46498,0.24336 -1.30234,1.14347 -1.95814,2.57268 -2.19942,4.79327 -0.38762,3.56738 0.25512,6.84265 1.63798,8.34689 1.3383,1.45576 4.22401,2.05274 6.08129,1.25807 z M 81.804237,143.3636 c -0.213511,-0.39894 0.514112,-2.7995 3.468505,-11.44323 2.056281,-6.0161 3.946279,-11.15985 4.199993,-11.43055 0.58547,-0.62467 2.545689,-0.85702 3.78356,-0.44848 1.123676,0.37084 0.728206,-0.58538 5.368146,12.97984 2.573909,7.52501 3.303849,9.94929 3.095559,10.28096 -0.38596,0.61461 -3.560919,0.75679 -4.132629,0.18508 -0.22222,-0.22221 -0.72188,-1.35844 -1.11036,-2.52494 l -0.70633,-2.12091 H 91.7131 87.655513 l -0.706326,2.12091 c -0.38848,1.1665 -0.883013,2.2976 -1.09896,2.51354 -0.26524,0.26524 -0.941488,0.39264 -2.084216,0.39264 -1.393642,0 -1.739175,-0.0889 -1.961774,-0.50486 z m 12.258904,-8.96964 c 0.0728,-0.11775 -0.33626,-1.69533 -0.908954,-3.50573 -1.390335,-4.39512 -1.296439,-4.17325 -1.56097,-3.68852 -0.524814,0.96166 -2.405711,6.9102 -2.259679,7.14648 0.193005,0.31229 4.538993,0.35618 4.729603,0.0478 z m 31.085999,9.03696 c -0.29501,-0.35547 -0.36313,-2.51257 -0.36313,-11.49993 0,-12.73589 -0.14449,-12.00732 2.38125,-12.00732 2.28374,0 2.35687,0.15227 2.51354,5.23405 l 0.13229,4.29095 h 4.63021 4.63021 l 0.13229,-4.49061 c 0.13144,-4.46153 0.13658,-4.49287 0.79375,-4.8396 0.85806,-0.45272 2.78185,-0.26087 3.45032,0.34409 0.49906,0.45164 0.51843,0.88134 0.51843,11.49966 0,12.74267 0.17898,11.90625 -2.5476,11.90625 -0.87603,0 -1.72135,-0.14145 -1.8974,-0.3175 -0.22101,-0.22102 -0.31873,-1.64819 -0.32155,-4.69636 -0.002,-2.40837 -0.10039,-4.53065 -0.21813,-4.71619 -0.16281,-0.25653 -1.28679,-0.31991 -4.69231,-0.26458 l -4.47822,0.0727 -0.13229,4.52446 c -0.0961,3.28564 -0.23171,4.64397 -0.49541,4.96094 -0.51441,0.61832 -3.52287,0.61752 -4.03625,-0.001 z m 21.47801,-0.0673 c -0.21351,-0.39894 0.51411,-2.7995 3.4685,-11.44323 2.05628,-6.0161 3.94628,-11.15985 4.2,-11.43055 0.58547,-0.62467 2.54569,-0.85702 3.78356,-0.44848 1.12367,0.37084 0.7282,-0.58538 5.36814,12.97984 2.57391,7.52501 3.30385,9.94929 3.09556,10.28096 -0.38596,0.61461 -3.56092,0.75679 -4.13263,0.18508 -0.22222,-0.22221 -0.72188,-1.35844 -1.11036,-2.52494 l -0.70632,-2.12091 h -4.05759 -4.05759 l -0.70632,2.12091 c -0.38848,1.1665 -0.88301,2.2976 -1.09896,2.51354 -0.26524,0.26524 -0.94149,0.39264 -2.08422,0.39264 -1.39364,0 -1.73917,-0.0889 -1.96177,-0.50486 z m 12.2589,-8.96964 c 0.0728,-0.11775 -0.33625,-1.69533 -0.90895,-3.50573 -1.39034,-4.39512 -1.29644,-4.17325 -1.56097,-3.68852 -0.52482,0.96166 -2.40571,6.9102 -2.25968,7.14648 0.19301,0.31229 4.53899,0.35618 4.7296,0.0478 z m 10.71309,9.03724 c -0.29195,-0.35154 -0.37778,-2.56232 -0.43787,-11.27811 -0.0662,-9.60766 -0.0262,-10.91492 0.35179,-11.49183 l 0.42654,-0.65098 5.46904,0.09 5.46904,0.09 1.75328,0.85677 c 4.01742,1.96316 5.70325,5.587 5.447,11.70882 -0.0704,1.68189 -0.31599,3.63972 -0.54912,4.37759 -0.9573,3.02979 -3.20756,5.28632 -6.19038,6.20762 -1.44117,0.44514 -2.46037,0.52729 -6.54167,0.52729 -4.1729,0 -4.88422,-0.0598 -5.19765,-0.43726 z m 11.06302,-4.75182 c 1.39384,-1.1205 2.14122,-2.58582 2.45795,-4.81905 0.62318,-4.394 -0.84839,-8.28157 -3.51643,-9.28962 -0.40965,-0.15478 -1.80864,-0.28142 -3.10885,-0.28142 h -2.36403 v 7.70293 7.70292 l 2.76105,-0.1022 c 2.61395,-0.0968 2.8148,-0.14543 3.77031,-0.91356 z"
         id="path906"
         inkscape:export-filename="F:\Documentos\Projetos R\caixadeimoveis\themes\hugo-fresh\static\images\logos\ACHADO_branco.png"
         inkscape:export-xdpi="98.480003"
         inkscape:export-ydpi="98.480003" />
      <path
         style="fill:#a1a1a1;stroke-width:0.264583"
         d="m 25.051153,164.47801 c -3.283628,-1.13344 -5.60655,-3.30053 -7.211168,-6.72741 l -0.739386,-1.57907 -0.07417,-19.31458 c -0.07387,-19.23549 -0.07182,-19.32108 0.498947,-20.90208 0.984856,-2.72799 0.667445,-2.36095 15.480049,-17.900394 12.641767,-13.262086 13.530558,-14.119373 15.316009,-14.77314 1.331288,-0.487471 1.993169,-0.563988 4.101041,-0.474117 4.226666,0.180213 4.148463,0.120922 14.421866,10.93371 2.909277,3.062023 8.444749,8.872151 12.301051,12.911381 3.856302,4.03925 7.227144,7.72521 7.490759,8.19103 0.344681,0.60906 0.447141,1.2139 0.364792,2.15345 -0.09525,1.0867 -0.273865,1.45254 -1.061691,2.17453 -1.088088,0.99716 -1.934673,1.27584 -3.171121,1.04388 C 81.774946,120.02888 79.127287,117.40822 66.83593,104.44549 55.95629,92.971587 53.22589,90.221529 52.593647,90.100667 c -1.122045,-0.214492 -2.21303,0.319382 -3.491507,1.708574 -1.735612,1.88591 -14.898979,15.720539 -19.934178,20.950709 -2.352816,2.44392 -4.277436,4.68169 -4.558251,5.29991 -0.45556,1.00292 -0.486396,2.15288 -0.491842,18.34257 -0.0063,18.65205 -0.02885,18.33087 1.39588,19.85678 1.478277,1.58325 -0.08517,1.48766 26.693072,1.63211 l 24.522888,0.1323 0.785046,0.75226 c 1.511472,1.44838 1.514686,3.92327 0.007,5.36785 l -0.792218,0.75905 -25.051955,0.0593 c -24.663501,0.0584 -25.07637,0.0509 -26.626402,-0.48412 z m 76.160827,-3.64903 c -1.484399,-0.90516 -2.169589,-3.9544 -1.330899,-5.92272 0.633169,-1.48597 1.575299,-2.12915 3.278869,-2.23842 2.72025,-0.1745 4.03127,1.2879 4.03127,4.49674 0,1.8907 -0.64175,3.21139 -1.86002,3.82784 -0.99609,0.50403 -3.16581,0.41794 -4.11922,-0.16344 z m 3.4358,-0.54504 c 0.95648,-0.36365 1.48511,-1.58013 1.48511,-3.41751 0,-1.30419 -0.11683,-1.71919 -0.66861,-2.37494 -0.84609,-1.00552 -1.89949,-1.24821 -3.14996,-0.72573 -1.11823,0.46722 -1.73768,1.6566 -1.73768,3.33646 0,2.56829 1.86039,4.02225 4.07114,3.18172 z m 5.03184,0.49078 c -0.42238,-0.46609 -0.50402,-0.96965 -0.50402,-3.10885 0,-2.09265 0.0715,-2.55267 0.39687,-2.55267 0.3148,0 0.42423,0.50828 0.52917,2.45784 0.14178,2.63413 0.31615,2.95442 1.61263,2.96207 1.18375,0.007 1.60366,-0.77765 1.76036,-3.28932 0.10366,-1.6615 0.23674,-2.26288 0.50076,-2.26288 0.28195,0 0.35958,0.64893 0.35958,3.00585 v 3.00586 l -1.38906,0.16684 c -2.21823,0.26644 -2.7309,0.20605 -3.26629,-0.38474 z m 7.26743,0.11891 c -0.22572,-0.27181 -0.39842,-1.29803 -0.45639,-2.71198 -0.0513,-1.25109 -0.20888,-2.41651 -0.35018,-2.58983 -0.17494,-0.21458 -0.068,-0.57071 0.33527,-1.11611 l 0.59219,-0.80097 0.60525,0.65308 c 0.3329,0.3592 0.78954,0.65309 1.01477,0.65309 0.6942,0 0.45301,0.46224 -0.39555,0.75804 l -0.80505,0.28065 0.0774,2.05767 c 0.0734,1.95098 0.11518,2.07571 0.80506,2.40551 0.40018,0.19131 0.7276,0.4604 0.7276,0.59798 0,0.43051 -1.76507,0.27691 -2.15042,-0.18713 z m 3.91201,0.25859 c -0.0957,-0.0958 -0.17409,-2.12751 -0.17409,-4.51502 0,-3.99169 0.0373,-4.33378 0.46302,-4.25203 0.41358,0.0794 0.47078,0.52946 0.53569,4.21492 0.057,3.23449 -0.005,4.19087 -0.28892,4.42613 -0.19888,0.16505 -0.43994,0.22175 -0.5357,0.126 z m 3.73207,-0.34292 c -1.82666,-1.43685 -1.47017,-4.97432 0.58718,-5.8265 1.43402,-0.59399 2.81942,0.0747 3.41832,1.64994 0.46422,1.22098 0.15307,1.52317 -1.56833,1.52317 -1.94562,0 -2.37458,0.16969 -2.37458,0.93934 0,0.88168 0.95664,1.44191 2.46217,1.44191 1.8455,0 1.51615,0.63739 -0.382,0.7393 -1.14248,0.0613 -1.59681,-0.0377 -2.14276,-0.46716 z m 2.97301,-3.97021 c 0,-0.28769 -0.28159,-0.70757 -0.62575,-0.93307 -0.98048,-0.64244 -2.28467,0.0501 -2.28467,1.21319 0,0.13362 0.65484,0.24295 1.45521,0.24295 1.27316,0 1.45521,-0.0654 1.45521,-0.52307 z m 3.32229,3.90378 c -0.28481,-0.40662 -0.41188,-1.20656 -0.41188,-2.59292 0,-1.18031 -0.12757,-2.13245 -0.31018,-2.31506 -0.2372,-0.23719 -0.19191,-0.52983 0.19246,-1.24354 0.57124,-1.06073 0.89748,-1.1763 1.10292,-0.3907 0.0869,0.33241 0.43612,0.6015 0.90127,0.69453 0.98723,0.19745 0.96756,0.52712 -0.0447,0.74945 l -0.80407,0.17661 0.0765,2.15678 c 0.073,2.05976 0.1092,2.17244 0.80407,2.50469 0.99428,0.47542 0.91366,0.8482 -0.18343,0.8482 -0.64151,0 -1.0329,-0.17398 -1.32292,-0.58804 z m 7.62823,0.20984 c -0.8455,-0.59682 -1.24502,-1.82871 -1.09601,-3.37947 0.10822,-1.12628 0.28553,-1.50775 0.99573,-2.14232 0.86734,-0.77497 1.60716,-0.85255 2.97424,-0.31192 0.39871,0.15767 0.46302,0.0208 0.46302,-0.98526 0,-1.28722 0.63011,-2.51971 0.91414,-1.78805 0.087,0.22413 0.12527,2.28883 0.085,4.58824 l -0.0731,4.18073 -1.85209,0.11627 c -1.36521,0.0857 -1.99899,0.0126 -2.41093,-0.27822 z m 2.85312,-0.85344 c 0.59511,-0.53856 0.67841,-3.16365 0.12443,-3.92127 -0.52127,-0.71288 -1.9755,-0.65059 -2.59222,0.11104 -0.69234,0.855 -0.66846,3.00926 0.0412,3.71895 0.64283,0.64283 1.77025,0.68524 2.42656,0.0913 z m 4.48629,0.67706 c -1.20033,-1.11828 -1.45235,-3.2168 -0.56174,-4.67754 1.37239,-2.25092 4.76139,-1.42047 4.76139,1.16676 v 0.89036 h -1.66922 c -1.02587,0 -1.86717,0.14501 -2.18281,0.37623 -0.50658,0.37109 -0.50596,0.38645 0.0448,1.12448 0.47976,0.64284 0.75129,0.75265 1.92747,0.77954 0.75298,0.0172 1.43635,0.0986 1.5186,0.18083 0.4017,0.4017 -0.35106,0.71392 -1.72125,0.71392 -1.17952,0 -1.65594,-0.12479 -2.11726,-0.55458 z m 3.00565,-3.67329 c 0.24012,-0.38852 -0.30593,-1.24376 -0.89195,-1.39701 -0.74417,-0.19461 -1.73672,0.38276 -1.83506,1.06744 -0.0778,0.54145 0.0218,0.58869 1.24116,0.58869 0.72914,0 1.39777,-0.1166 1.48585,-0.25912 z m 6.13289,4.05148 c -0.097,-0.097 -0.17639,-1.5345 -0.17639,-3.1944 0,-2.73165 0.0439,-3.00961 0.46302,-2.92944 0.39546,0.0756 0.47434,0.4549 0.54059,2.59909 0.0987,3.19304 -0.14038,4.21159 -0.82722,3.52475 z m 3.16781,-0.007 c -0.0931,-0.0931 -0.1692,-1.53245 -0.1692,-3.19866 0,-3.01151 0.004,-3.02855 0.59531,-2.87346 0.32742,0.0858 0.97509,0.0188 1.43925,-0.14882 0.69494,-0.251 1.02343,-0.22388 1.86061,0.15364 0.92798,0.41846 1.08519,0.42274 1.8019,0.049 1.11512,-0.58147 1.9014,-0.51121 2.64933,0.23673 0.5972,0.59719 0.64943,0.84903 0.64943,3.1309 0,2.59937 -0.11709,3.02145 -0.70326,2.53497 -0.24407,-0.20256 -0.35507,-0.97107 -0.35507,-2.45833 0,-2.42349 -0.20091,-2.79864 -1.49882,-2.79864 -1.14517,0 -1.41062,0.55487 -1.41565,2.95917 -0.004,1.99816 -0.24927,2.79879 -0.76012,2.48307 -0.17736,-0.10962 -0.29416,-1.04847 -0.29416,-2.36458 0,-2.46372 -0.31007,-3.14381 -1.43332,-3.14381 -1.23193,0 -1.55829,0.59954 -1.68975,3.10413 -0.11203,2.13443 -0.28383,2.72734 -0.67648,2.33469 z m 11.47157,-0.57036 c -1.4758,-1.4758 -1.29142,-4.33078 0.34604,-5.35803 1.10886,-0.69564 2.66025,-0.5279 3.57464,0.38649 1.29498,1.29498 1.00729,4.66482 -0.46554,5.45306 -0.27997,0.14983 -1.00228,0.27242 -1.60512,0.27242 -0.85223,0 -1.26381,-0.16773 -1.85002,-0.75394 z m 3.1759,-0.56897 c 0.38485,-0.38486 0.52916,-0.88194 0.52916,-1.82277 0,-1.63934 -0.62715,-2.49876 -1.82345,-2.49876 -1.15232,0 -1.66718,0.60229 -1.81138,2.11896 -0.0978,1.02859 -0.01,1.41785 0.45302,2.00413 0.69728,0.88328 1.87938,0.97171 2.65265,0.19844 z m 4.4735,0.61366 c -1.06098,-2.73044 -1.82767,-4.93778 -1.82767,-5.26192 0,-0.20835 0.16754,-0.37882 0.3723,-0.37882 0.22621,0 0.68171,0.85653 1.1608,2.18281 0.43367,1.20055 0.93701,2.18281 1.11854,2.18281 0.18152,0 0.68669,-0.98226 1.12259,-2.18281 0.46694,-1.28601 0.94147,-2.18281 1.155,-2.18281 0.56752,0 0.43739,0.72429 -0.64173,3.57187 -0.81382,2.14751 -1.1126,2.66175 -1.58633,2.73033 -0.43457,0.0629 -0.65769,-0.10604 -0.8735,-0.66146 z m 5.90988,0.30509 c -1.90101,-1.34322 -1.77583,-4.79183 0.21125,-5.81938 1.7272,-0.89318 3.69287,0.2556 3.69287,2.15819 v 0.89036 h -1.56586 c -1.97461,0 -2.40289,0.16743 -2.40289,0.93934 0,0.88168 0.95664,1.44191 2.46217,1.44191 0.91067,0 1.25424,0.0965 1.17699,0.33073 -0.17205,0.52157 -2.85709,0.56578 -3.57453,0.0589 z m 2.84578,-4.08765 c 0,-0.28769 -0.29131,-0.71394 -0.64736,-0.94724 -0.55695,-0.36492 -0.75094,-0.37467 -1.38906,-0.0698 -0.42267,0.20196 -0.77807,0.6094 -0.82625,0.94723 -0.0789,0.55322 0.0139,0.59284 1.38906,0.59284 1.2915,0 1.47361,-0.0647 1.47361,-0.52307 z m 3.03606,4.173 c -0.0799,-0.20813 -0.11105,-1.62052 -0.0693,-3.13865 0.0617,-2.24341 0.15024,-2.76024 0.47281,-2.76024 0.59445,0 0.72671,5.4598 0.14397,5.94343 -0.32708,0.27145 -0.42944,0.26313 -0.5475,-0.0445 z m 2.69658,0.14243 c -0.43691,-0.43692 -0.0726,-0.61736 1.24643,-0.61736 2.48308,0 2.6373,-1.20273 0.28746,-2.24195 -3.07897,-1.36166 -1.64711,-4.29924 1.66316,-3.41212 0.32742,0.0877 0.59531,0.33946 0.59531,0.55937 0,0.31533 -0.21416,0.36558 -1.01333,0.23779 -1.1943,-0.19098 -2.07951,0.29573 -1.81091,0.99568 0.0947,0.24675 0.69362,0.6793 1.33096,0.96123 1.38719,0.61362 1.82401,1.08865 1.82401,1.98354 0,1.18102 -0.75634,1.71021 -2.4443,1.71021 -0.82632,0 -1.58177,-0.0794 -1.67879,-0.17639 z M 78.34082,156.89739 c -0.369755,-0.2537 -3.571928,-3.40807 -7.115943,-7.00971 -3.544011,-3.60164 -6.616387,-6.54844 -6.827498,-6.54844 -0.211114,0 -0.720204,0.23951 -1.131311,0.53225 -1.209157,0.86099 -4.501449,2.32947 -6.202828,2.76668 -2.286522,0.58758 -6.705169,0.53229 -9.238367,-0.11559 -10.398308,-2.65944 -16.664922,-13.80188 -13.669174,-24.30466 3.31253,-11.61339 16.152365,-17.39352 26.865734,-12.0942 4.772123,2.36051 8.094474,6.34006 9.972328,11.94496 0.530596,1.58368 0.60891,2.32858 0.595085,5.66014 -0.01421,3.42531 -0.09152,4.06331 -0.721341,5.95313 -0.387983,1.16417 -1.189144,2.9415 -1.78036,3.94964 -0.591214,1.00814 -1.040517,1.98845 -0.998451,2.17848 0.04207,0.19003 3.142348,3.49751 6.88951,7.34995 7.57052,7.78323 7.615272,7.85309 6.039622,9.42874 -0.880673,0.88067 -1.704818,0.97569 -2.677006,0.30863 z M 55.994349,141.97115 c 4.89902,-1.0821 9.214276,-5.38117 10.589858,-10.55015 0.49429,-1.85739 0.492935,-5.79662 -0.0026,-7.65892 -1.055513,-3.96651 -4.042183,-7.65627 -7.567706,-9.34922 -2.404149,-1.15447 -3.784565,-1.48585 -6.224548,-1.49423 -4.198916,-0.0144 -7.551274,1.33612 -10.396291,4.18833 -2.868155,2.8754 -4.305843,6.3952 -4.2965,10.51886 0.0132,5.82405 3.140636,10.86677 8.264149,13.3252 3.225914,1.5479 5.942116,1.83553 9.633675,1.02013 z m 98.939911,11.3992 c -0.22704,-0.36736 0.27622,-0.8853 0.6411,-0.65979 0.30386,0.1878 0.1093,0.94743 -0.24267,0.94743 -0.12136,0 -0.30065,-0.12944 -0.39843,-0.28764 z m 16.28613,-0.0903 c 0,-0.42373 0.69985,-1.20953 1.07723,-1.20953 0.41502,0 0.27262,0.68736 -0.23817,1.14962 -0.59391,0.53748 -0.83906,0.55498 -0.83906,0.0599 z m 17.85937,0.11339 c -0.19293,-0.31218 0.0573,-0.79375 0.41249,-0.79375 0.13694,0 0.24897,0.23812 0.24897,0.52916 0,0.55803 -0.38494,0.71201 -0.66146,0.26459 z m -78.17239,-9.53208 c -5.38171,-1.13422 -8.0647,-5.80753 -7.59091,-13.22209 0.24457,-3.82747 1.01081,-5.90487 2.91135,-7.89319 1.93884,-2.02839 4.43003,-2.94911 7.97487,-2.94745 3.59774,0.002 6.78068,1.06173 6.96343,2.3191 0.10572,0.72735 -0.95041,2.64604 -1.56362,2.84066 -0.25251,0.0801 -1.18006,-0.0972 -2.06122,-0.39399 -2.03629,-0.68598 -4.54795,-0.70261 -5.98443,-0.0396 -2.24018,1.03391 -3.06613,2.69139 -3.24624,6.51436 -0.15367,3.26186 0.23368,5.28254 1.29294,6.7448 1.60144,2.21073 4.50845,2.70335 8.26758,1.40101 l 2.08095,-0.72093 0.76332,0.85431 c 0.9104,1.01891 1.02722,2.37722 0.26385,3.06805 -1.05734,0.95688 -3.23585,1.53849 -6.1151,1.6326 -1.52797,0.0499 -3.30852,-0.021 -3.95677,-0.1576 z m 87.75943,-0.0162 c -2.49515,-0.58785 -5.02054,-2.55277 -6.17299,-4.80299 -1.10258,-2.15284 -1.49468,-4.45637 -1.36275,-8.006 0.0897,-2.4136 0.25558,-3.53066 0.69169,-4.65807 1.70922,-4.41866 4.94535,-6.59121 9.8066,-6.58358 5.76038,0.009 9.27523,2.86322 10.35093,8.40534 0.46315,2.38623 0.20278,7.4434 -0.48206,9.36301 -1.1507,3.22542 -3.4082,5.35495 -6.5329,6.16258 -1.70295,0.44016 -4.69685,0.49706 -6.29852,0.11971 z m 5.17198,-4.30974 c 1.95106,-0.8348 3.21415,-3.09391 3.4946,-6.2503 0.34099,-3.83776 -0.66323,-7.14304 -2.54947,-8.39129 -1.90926,-1.2635 -4.87596,-1.15182 -6.46498,0.24336 -1.30234,1.14347 -1.95814,2.57268 -2.19942,4.79327 -0.38762,3.56738 0.25512,6.84265 1.63798,8.34689 1.3383,1.45576 4.22401,2.05274 6.08129,1.25807 z M 81.804237,143.3636 c -0.213511,-0.39894 0.514112,-2.7995 3.468505,-11.44323 2.056281,-6.0161 3.946279,-11.15985 4.199993,-11.43055 0.58547,-0.62467 2.545689,-0.85702 3.78356,-0.44848 1.123676,0.37084 0.728206,-0.58538 5.368146,12.97984 2.573909,7.52501 3.303849,9.94929 3.095559,10.28096 -0.38596,0.61461 -3.560919,0.75679 -4.132629,0.18508 -0.22222,-0.22221 -0.72188,-1.35844 -1.11036,-2.52494 l -0.70633,-2.12091 H 91.7131 87.655513 l -0.706326,2.12091 c -0.38848,1.1665 -0.883013,2.2976 -1.09896,2.51354 -0.26524,0.26524 -0.941488,0.39264 -2.084216,0.39264 -1.393642,0 -1.739175,-0.0889 -1.961774,-0.50486 z m 12.258904,-8.96964 c 0.0728,-0.11775 -0.33626,-1.69533 -0.908954,-3.50573 -1.390335,-4.39512 -1.296439,-4.17325 -1.56097,-3.68852 -0.524814,0.96166 -2.405711,6.9102 -2.259679,7.14648 0.193005,0.31229 4.538993,0.35618 4.729603,0.0478 z m 31.085999,9.03696 c -0.29501,-0.35547 -0.36313,-2.51257 -0.36313,-11.49993 0,-12.73589 -0.14449,-12.00732 2.38125,-12.00732 2.28374,0 2.35687,0.15227 2.51354,5.23405 l 0.13229,4.29095 h 4.63021 4.63021 l 0.13229,-4.49061 c 0.13144,-4.46153 0.13658,-4.49287 0.79375,-4.8396 0.85806,-0.45272 2.78185,-0.26087 3.45032,0.34409 0.49906,0.45164 0.51843,0.88134 0.51843,11.49966 0,12.74267 0.17898,11.90625 -2.5476,11.90625 -0.87603,0 -1.72135,-0.14145 -1.8974,-0.3175 -0.22101,-0.22102 -0.31873,-1.64819 -0.32155,-4.69636 -0.002,-2.40837 -0.10039,-4.53065 -0.21813,-4.71619 -0.16281,-0.25653 -1.28679,-0.31991 -4.69231,-0.26458 l -4.47822,0.0727 -0.13229,4.52446 c -0.0961,3.28564 -0.23171,4.64397 -0.49541,4.96094 -0.51441,0.61832 -3.52287,0.61752 -4.03625,-0.001 z m 21.47801,-0.0673 c -0.21351,-0.39894 0.51411,-2.7995 3.4685,-11.44323 2.05628,-6.0161 3.94628,-11.15985 4.2,-11.43055 0.58547,-0.62467 2.54569,-0.85702 3.78356,-0.44848 1.12367,0.37084 0.7282,-0.58538 5.36814,12.97984 2.57391,7.52501 3.30385,9.94929 3.09556,10.28096 -0.38596,0.61461 -3.56092,0.75679 -4.13263,0.18508 -0.22222,-0.22221 -0.72188,-1.35844 -1.11036,-2.52494 l -0.70632,-2.12091 h -4.05759 -4.05759 l -0.70632,2.12091 c -0.38848,1.1665 -0.88301,2.2976 -1.09896,2.51354 -0.26524,0.26524 -0.94149,0.39264 -2.08422,0.39264 -1.39364,0 -1.73917,-0.0889 -1.96177,-0.50486 z m 12.2589,-8.96964 c 0.0728,-0.11775 -0.33625,-1.69533 -0.90895,-3.50573 -1.39034,-4.39512 -1.29644,-4.17325 -1.56097,-3.68852 -0.52482,0.96166 -2.40571,6.9102 -2.25968,7.14648 0.19301,0.31229 4.53899,0.35618 4.7296,0.0478 z m 10.71309,9.03724 c -0.29195,-0.35154 -0.37778,-2.56232 -0.43787,-11.27811 -0.0662,-9.60766 -0.0262,-10.91492 0.35179,-11.49183 l 0.42654,-0.65098 5.46904,0.09 5.46904,0.09 1.75328,0.85677 c 4.01742,1.96316 5.70325,5.587 5.447,11.70882 -0.0704,1.68189 -0.31599,3.63972 -0.54912,4.37759 -0.9573,3.02979 -3.20756,5.28632 -6.19038,6.20762 -1.44117,0.44514 -2.46037,0.52729 -6.54167,0.52729 -4.1729,0 -4.88422,-0.0598 -5.19765,-0.43726 z m 11.06302,-4.75182 c 1.39384,-1.1205 2.14122,-2.58582 2.45795,-4.81905 0.62318,-4.394 -0.84839,-8.28157 -3.51643,-9.28962 -0.40965,-0.15478 -1.80864,-0.28142 -3.10885,-0.28142 h -2.36403 v 7.70293 7.70292 l 2.76105,-0.1022 c 2.61395,-0.0968 2.8148,-0.14543 3.77031,-0.91356 z"
         id="path904"
         inkscape:export-filename="F:\Documentos\Projetos R\caixadeimoveis\themes\hugo-fresh\static\images\logos\ACHADO_branco.png"
         inkscape:export-xdpi="98.480003"
         inkscape:export-ydpi="98.480003" />
      <path
         style="fill:#4db5b9;stroke-width:0.264583"
         d="m 25.051153,164.47801 c -3.283628,-1.13344 -5.60655,-3.30053 -7.211168,-6.72741 l -0.739386,-1.57907 -0.07417,-19.31458 c -0.07387,-19.23549 -0.07182,-19.32108 0.498947,-20.90208 0.984856,-2.72799 0.667445,-2.36095 15.480049,-17.900394 12.641767,-13.262086 13.530558,-14.119373 15.316009,-14.77314 1.331288,-0.487471 1.993169,-0.563988 4.101041,-0.474117 4.226666,0.180213 4.148463,0.120922 14.421866,10.93371 2.909277,3.062023 8.444749,8.872151 12.301051,12.911381 3.856302,4.03925 7.227144,7.72521 7.490759,8.19103 0.344681,0.60906 0.447141,1.2139 0.364792,2.15345 -0.09525,1.0867 -0.273865,1.45254 -1.061691,2.17453 -1.088088,0.99716 -1.934673,1.27584 -3.171121,1.04388 C 81.774946,120.02888 79.127287,117.40822 66.83593,104.44549 55.95629,92.971587 53.22589,90.221529 52.593647,90.100667 c -1.122045,-0.214492 -2.21303,0.319382 -3.491507,1.708574 -1.735612,1.88591 -14.898979,15.720539 -19.934178,20.950709 -2.352816,2.44392 -4.277436,4.68169 -4.558251,5.29991 -0.45556,1.00292 -0.486396,2.15288 -0.491842,18.34257 -0.0063,18.65205 -0.02885,18.33087 1.39588,19.85678 1.478277,1.58325 -0.08517,1.48766 26.693072,1.63211 l 24.522888,0.1323 0.785046,0.75226 c 1.511472,1.44838 1.514686,3.92327 0.007,5.36785 l -0.792218,0.75905 -25.051955,0.0593 c -24.663501,0.0584 -25.07637,0.0509 -26.626402,-0.48412 z m 46.69081,-14.39189 c -3.866015,-3.85631 -7.172764,-7.01146 -7.348334,-7.01146 -0.175567,0 -0.952746,0.40526 -1.727065,0.90059 -3.153285,2.01713 -6.297882,2.90551 -10.24409,2.89405 -3.166991,-0.009 -5.266775,-0.53705 -8.432467,-2.1198 -6.323711,-3.16167 -10.36351,-9.82661 -10.348355,-17.07291 0.01747,-8.35062 5.233661,-15.71262 12.98613,-18.32826 2.866898,-0.96728 7.328365,-1.21548 10.112441,-0.56259 6.66432,1.56286 11.998619,6.68111 14.118259,13.54644 0.374706,1.21364 0.479489,2.41234 0.471745,5.39664 -0.0089,3.44183 -0.08289,4.05444 -0.718979,5.95553 -0.389964,1.16549 -1.189154,2.91514 -1.775981,3.88811 -0.586828,0.97298 -1.066959,1.95842 -1.066959,2.18989 0,0.23146 3.095625,3.56068 6.879167,7.39827 6.052259,6.1387 6.879166,7.07723 6.879166,7.80776 0,1.05249 -1.02513,2.12919 -2.027211,2.12919 -0.599583,0 -1.971011,-1.23954 -7.757467,-7.01145 z m -15.350739,-7.98218 c 5.062832,-1.39046 9.113438,-5.57577 10.445322,-10.79268 0.221427,-0.86732 0.402595,-2.53895 0.402595,-3.71473 0,-4.20218 -1.410412,-7.62218 -4.373261,-10.60441 -5.802733,-5.84066 -14.803453,-5.83094 -20.656714,0.0223 -2.970893,2.97089 -4.338775,6.30709 -4.338775,10.58208 0,4.2862 1.381291,7.65004 4.371305,10.64536 3.878141,3.88504 8.987748,5.27968 14.149528,3.86205 z m 85.766766,13.9353 c 0,-0.3638 0.0601,-0.51263 0.13346,-0.33073 0.0734,0.1819 0.0734,0.47956 0,0.66146 -0.0734,0.1819 -0.13346,0.0331 -0.13346,-0.33073 z m -25.44177,-0.79375 c 0,-0.14552 0.11906,-0.26458 0.26458,-0.26458 0.14552,0 0.26459,0.11906 0.26459,0.26458 0,0.14552 -0.11907,0.26458 -0.26459,0.26458 -0.14552,0 -0.26458,-0.11906 -0.26458,-0.26458 z m 14.02292,0 c 0,-0.14552 0.11906,-0.26458 0.26458,-0.26458 0.14552,0 0.26458,0.11906 0.26458,0.26458 0,0.14552 -0.11906,0.26458 -0.26458,0.26458 -0.14552,0 -0.26458,-0.11906 -0.26458,-0.26458 z M 82.673491,143.68461 c -0.315119,-0.0614 -0.638402,-0.28231 -0.71841,-0.49081 -0.173326,-0.45168 7.154699,-22.04285 7.667456,-22.59126 0.200972,-0.21495 1.038365,-0.42886 1.931818,-0.49349 1.390087,-0.10055 1.65072,-0.0399 2.198216,0.5117 0.43564,0.4389 1.7054,3.79819 4.25177,11.24855 1.996849,5.84252 3.630629,10.81632 3.630629,11.0529 0,0.48773 -1.01023,0.94811 -2.067739,0.94231 -1.46709,-0.008 -1.98755,-0.54412 -2.82941,-2.91419 l -0.79611,-2.24129 H 91.7131 87.484489 l -0.796112,2.24129 c -0.982221,2.76524 -1.621976,3.20094 -4.014886,2.73429 z m 11.51164,-9.04536 c 0.28483,-0.18053 0.10104,-1.00677 -0.926044,-4.16314 -0.704771,-2.16585 -1.39749,-3.91707 -1.539373,-3.89161 -0.141882,0.0254 -0.841004,1.79541 -1.553601,3.93321 -1.052179,3.15653 -1.227431,3.9301 -0.932656,4.11683 0.467809,0.29634 4.485504,0.30016 4.951674,0.005 z m 16.181089,8.80715 c -4.37337,-1.16362 -6.4789,-4.34971 -6.80389,-10.29562 -0.34522,-6.31608 1.48047,-10.29095 5.61327,-12.22115 1.49274,-0.69718 1.80069,-0.74143 5.15937,-0.74143 3.32604,0 3.67658,0.0491 5.09323,0.71297 1.20686,0.56558 1.52115,0.83905 1.52036,1.32291 -0.001,0.71334 -0.89973,2.28587 -1.42035,2.48565 -0.19799,0.076 -1.08652,-0.10661 -1.97451,-0.40576 -2.86635,-0.9656 -5.6639,-0.63936 -7.37114,0.8596 -1.45663,1.27893 -2.00082,2.77177 -2.14132,5.87422 -0.26303,5.80796 1.5616,8.7341 5.65093,9.06235 1.40893,0.11309 2.12086,0.005 3.99797,-0.60531 l 2.28379,-0.74291 0.63422,0.73732 c 0.94456,1.09812 0.7643,2.46439 -0.41573,3.15106 -2.05578,1.19627 -6.87415,1.59155 -9.8262,0.8061 z m 15.61042,0.25235 c -1.03621,-0.40678 -1.05834,-0.65216 -1.05834,-11.73659 0,-8.86381 0.0658,-10.83677 0.37555,-11.26037 0.29188,-0.39917 0.69543,-0.51359 1.81142,-0.51359 2.29605,0 2.31095,0.0326 2.31095,5.05444 0,4.2686 0.008,4.33021 0.59531,4.47501 0.32742,0.0807 2.50031,0.11279 4.82865,0.0712 l 4.23333,-0.0756 0.13229,-4.41896 c 0.0935,-3.1226 0.2332,-4.51974 0.47625,-4.7625 0.46001,-0.45945 3.02381,-0.44544 3.58413,0.0196 0.39421,0.32718 0.43754,1.45709 0.43754,11.41084 0,9.96003 -0.0431,11.08345 -0.43814,11.41083 -0.54783,0.45404 -3.14441,0.4581 -3.59754,0.006 -0.22774,-0.22742 -0.37093,-1.78033 -0.46224,-5.01308 l -0.13229,-4.6836 h -4.7625 -4.7625 l -0.13229,4.68396 c -0.0859,3.04201 -0.24016,4.79153 -0.44001,4.99084 -0.34721,0.34627 -2.39419,0.57966 -2.99957,0.342 z m 21.51976,-0.0141 c -0.31512,-0.0615 -0.6384,-0.28232 -0.71841,-0.49082 -0.17332,-0.45168 7.1547,-22.04285 7.66746,-22.59126 0.20097,-0.21495 1.03836,-0.42886 1.93182,-0.49349 1.39008,-0.10055 1.65072,-0.0399 2.19821,0.5117 0.43564,0.4389 1.7054,3.79819 4.25177,11.24855 1.99685,5.84252 3.63064,10.81633 3.63064,11.0529 0,0.48773 -1.01024,0.94811 -2.06775,0.94231 -1.46709,-0.008 -1.98755,-0.54412 -2.82941,-2.91419 l -0.79611,-2.24129 h -4.22861 -4.22861 l -0.79611,2.24129 c -0.98222,2.76524 -1.62198,3.20094 -4.01489,2.7343 z m 11.51164,-9.04537 c 0.28484,-0.18053 0.10105,-1.00677 -0.92604,-4.16314 -0.70477,-2.16585 -1.39749,-3.91707 -1.53937,-3.89161 -0.14189,0.0254 -0.84101,1.79541 -1.55361,3.93321 -1.05217,3.15653 -1.22743,3.9301 -0.93265,4.11683 0.46781,0.29634 4.4855,0.30016 4.95167,0.005 z m 39.33214,8.85816 c -4.80481,-1.52355 -7.01146,-5.15394 -7.01146,-11.53526 0,-4.45439 1.01779,-7.38636 3.29163,-9.48232 2.05787,-1.89687 3.19099,-2.26436 7.02712,-2.27901 3.03879,-0.0116 3.42861,0.0442 4.80165,0.68798 3.78152,1.77291 5.51903,5.16186 5.56169,10.84792 0.0353,4.70712 -0.932,7.49276 -3.37824,9.72848 -1.09317,0.9991 -1.89188,1.46662 -3.19115,1.86792 -1.99893,0.61741 -5.42247,0.69661 -7.10124,0.16429 z m 6.42783,-4.19178 c 2.15403,-1.42546 3.31655,-5.41149 2.72947,-9.35873 -0.38767,-2.60654 -1.21763,-4.25333 -2.65137,-5.26079 -1.01917,-0.71615 -1.32965,-0.79375 -3.17585,-0.79375 -2.66784,0 -3.85032,0.70689 -4.95656,2.96307 -0.66199,1.35011 -0.76398,1.88944 -0.8474,4.48107 -0.14994,4.65764 0.88582,7.10801 3.52994,8.35108 1.48426,0.69779 4.01174,0.51808 5.37177,-0.38195 z m -35.1136,3.80924 c -0.38625,-0.72172 -0.39768,-21.56237 -0.0122,-22.28262 0.25587,-0.47808 0.60099,-0.51177 5.24364,-0.51177 5.52706,0 6.75952,0.22319 8.83921,1.60072 1.496,0.99091 2.65036,2.50481 3.40996,4.47204 0.68963,1.78601 0.96705,6.70845 0.51517,9.14078 -0.61262,3.29743 -2.46455,5.82494 -5.27375,7.19757 -1.46543,0.71603 -1.62033,0.73438 -6.96732,0.8251 -5.26534,0.0893 -5.47921,0.0729 -5.75469,-0.44182 z m 10.56725,-3.94283 c 1.09404,-0.57318 1.56371,-1.03644 2.21303,-2.18281 0.81003,-1.43012 0.82424,-1.51677 0.82424,-5.02708 0,-3.47023 -0.0225,-3.61247 -0.79013,-4.99857 -0.46853,-0.84597 -1.21404,-1.70752 -1.83159,-2.11666 -0.95765,-0.63446 -1.26666,-0.68998 -3.84008,-0.68998 h -2.79862 l -0.0704,7.53723 c -0.0387,4.14548 -0.0127,7.68759 0.0578,7.87135 0.09,0.23455 0.83138,0.33413 2.48756,0.33413 2.06076,0 2.53509,-0.0921 3.74812,-0.72761 z"
         id="path902"
         inkscape:export-filename="F:\Documentos\Projetos R\caixadeimoveis\themes\hugo-fresh\static\images\logos\ACHADO_branco.png"
         inkscape:export-xdpi="98.480003"
         inkscape:export-ydpi="98.480003" />
      <path
         style="fill:#05989e;stroke-width:0.264583"
         d="m 25.96414,164.4127 c -3.409112,-0.93394 -6.049835,-3.16713 -7.610793,-6.43624 l -0.988165,-2.06951 V 136.46007 117.0132 l 0.962374,-1.98438 c 1.109448,-2.28763 1.795995,-3.03833 22.799549,-24.929909 6.369812,-6.639127 6.855111,-6.952377 10.770846,-6.952377 2.306664,0 2.665129,0.0723 4.267512,0.860737 1.477166,0.726824 2.319425,1.467768 5.413722,4.7625 2.015421,2.145969 5.214729,5.509106 7.109574,7.473638 10.203929,10.579191 17.25607,18.106461 17.666528,18.856791 0.931101,1.70207 0.260289,3.6657 -1.521529,4.45388 -1.872313,0.82821 -2.481842,0.48038 -6.663237,-3.80239 -2.022039,-2.07107 -4.681892,-4.83714 -5.910787,-6.14682 -1.228891,-1.30969 -3.725497,-3.92907 -5.548011,-5.82084 -1.822516,-1.89177 -5.552061,-5.786984 -8.287882,-8.656036 -4.107273,-4.307295 -5.133663,-5.24637 -5.889075,-5.388086 -1.279483,-0.240033 -2.263881,0.245417 -3.721166,1.835065 -1.588342,1.732608 -14.270316,15.068127 -19.757017,20.775167 -2.30098,2.39338 -4.414339,4.80389 -4.696354,5.35669 -0.492202,0.96479 -0.512755,1.7166 -0.512755,18.75584 0,19.23509 -0.05614,18.44188 1.420011,20.06473 1.435021,1.57764 -0.09809,1.48408 26.687015,1.62851 l 24.535149,0.13229 0.864852,0.86498 c 0.76559,0.76571 0.864849,1.03083 0.864849,2.31002 0,1.27923 -0.09924,1.54428 -0.864929,2.31002 l -0.864925,0.86498 -24.667367,0.0503 C 32.960411,164.727 26.874543,164.6621 25.96414,164.41266 Z m 45.777823,-14.32658 c -3.866015,-3.85631 -7.172764,-7.01146 -7.348334,-7.01146 -0.175567,0 -0.952746,0.40526 -1.727065,0.90059 -3.153285,2.01713 -6.297882,2.90551 -10.24409,2.89405 -3.166991,-0.009 -5.266775,-0.53705 -8.432467,-2.1198 -6.323711,-3.16167 -10.36351,-9.82661 -10.348355,-17.07291 0.01747,-8.35062 5.233661,-15.71262 12.98613,-18.32826 2.866898,-0.96728 7.328365,-1.21548 10.112441,-0.56259 6.66432,1.56286 11.998619,6.68111 14.118259,13.54644 0.374706,1.21364 0.479489,2.41234 0.471745,5.39664 -0.0089,3.44183 -0.08289,4.05444 -0.718979,5.95553 -0.389964,1.16549 -1.189154,2.91514 -1.775981,3.88811 -0.586828,0.97298 -1.066959,1.95842 -1.066959,2.18989 0,0.23146 3.095625,3.56068 6.879167,7.39827 6.052259,6.1387 6.879166,7.07723 6.879166,7.80776 0,1.05249 -1.02513,2.12919 -2.027211,2.12919 -0.599583,0 -1.971011,-1.23954 -7.757467,-7.01145 z m -15.350739,-7.98218 c 5.062832,-1.39046 9.113438,-5.57577 10.445322,-10.79268 0.221427,-0.86732 0.402595,-2.53895 0.402595,-3.71473 0,-4.20218 -1.410412,-7.62218 -4.373261,-10.60441 -5.802733,-5.84066 -14.803453,-5.83094 -20.656714,0.0223 -2.970893,2.97089 -4.338775,6.30709 -4.338775,10.58208 0,4.2862 1.381291,7.65004 4.371305,10.64536 3.878141,3.88504 8.987748,5.27968 14.149528,3.86205 z m 85.766766,13.9353 c 0,-0.3638 0.0601,-0.51263 0.13346,-0.33073 0.0734,0.1819 0.0734,0.47956 0,0.66146 -0.0734,0.1819 -0.13346,0.0331 -0.13346,-0.33073 z m -25.44177,-0.79375 c 0,-0.14552 0.11906,-0.26458 0.26458,-0.26458 0.14552,0 0.26459,0.11906 0.26459,0.26458 0,0.14552 -0.11907,0.26458 -0.26459,0.26458 -0.14552,0 -0.26458,-0.11906 -0.26458,-0.26458 z m 14.02292,0 c 0,-0.14552 0.11906,-0.26458 0.26458,-0.26458 0.14552,0 0.26458,0.11906 0.26458,0.26458 0,0.14552 -0.11906,0.26458 -0.26458,0.26458 -0.14552,0 -0.26458,-0.11906 -0.26458,-0.26458 z M 82.673491,143.68461 c -0.315119,-0.0614 -0.638402,-0.28231 -0.71841,-0.49081 -0.173326,-0.45168 7.154699,-22.04285 7.667456,-22.59126 0.200972,-0.21495 1.038365,-0.42886 1.931818,-0.49349 1.390087,-0.10055 1.65072,-0.0399 2.198216,0.5117 0.43564,0.4389 1.7054,3.79819 4.25177,11.24855 1.996849,5.84252 3.630629,10.81632 3.630629,11.0529 0,0.48773 -1.01023,0.94811 -2.067739,0.94231 -1.46709,-0.008 -1.98755,-0.54412 -2.82941,-2.91419 l -0.79611,-2.24129 H 91.7131 87.484489 l -0.796112,2.24129 c -0.982221,2.76524 -1.621976,3.20094 -4.014886,2.73429 z m 11.51164,-9.04536 c 0.28483,-0.18053 0.10104,-1.00677 -0.926044,-4.16314 -0.704771,-2.16585 -1.39749,-3.91707 -1.539373,-3.89161 -0.141882,0.0254 -0.841004,1.79541 -1.553601,3.93321 -1.052179,3.15653 -1.227431,3.9301 -0.932656,4.11683 0.467809,0.29634 4.485504,0.30016 4.951674,0.005 z m 16.181089,8.80715 c -4.37337,-1.16362 -6.4789,-4.34971 -6.80389,-10.29562 -0.34522,-6.31608 1.48047,-10.29095 5.61327,-12.22115 1.49274,-0.69718 1.80069,-0.74143 5.15937,-0.74143 3.32604,0 3.67658,0.0491 5.09323,0.71297 1.20686,0.56558 1.52115,0.83905 1.52036,1.32291 -0.001,0.71334 -0.89973,2.28587 -1.42035,2.48565 -0.19799,0.076 -1.08652,-0.10661 -1.97451,-0.40576 -2.86635,-0.9656 -5.6639,-0.63936 -7.37114,0.8596 -1.45663,1.27893 -2.00082,2.77177 -2.14132,5.87422 -0.26303,5.80796 1.5616,8.7341 5.65093,9.06235 1.40893,0.11309 2.12086,0.005 3.99797,-0.60531 l 2.28379,-0.74291 0.63422,0.73732 c 0.94456,1.09812 0.7643,2.46439 -0.41573,3.15106 -2.05578,1.19627 -6.87415,1.59155 -9.8262,0.8061 z m 15.61042,0.25235 c -1.03621,-0.40678 -1.05834,-0.65216 -1.05834,-11.73659 0,-8.86381 0.0658,-10.83677 0.37555,-11.26037 0.29188,-0.39917 0.69543,-0.51359 1.81142,-0.51359 2.29605,0 2.31095,0.0326 2.31095,5.05444 0,4.2686 0.008,4.33021 0.59531,4.47501 0.32742,0.0807 2.50031,0.11279 4.82865,0.0712 l 4.23333,-0.0756 0.13229,-4.41896 c 0.0935,-3.1226 0.2332,-4.51974 0.47625,-4.7625 0.46001,-0.45945 3.02381,-0.44544 3.58413,0.0196 0.39421,0.32718 0.43754,1.45709 0.43754,11.41084 0,9.96003 -0.0431,11.08345 -0.43814,11.41083 -0.54783,0.45404 -3.14441,0.4581 -3.59754,0.006 -0.22774,-0.22742 -0.37093,-1.78033 -0.46224,-5.01308 l -0.13229,-4.6836 h -4.7625 -4.7625 l -0.13229,4.68396 c -0.0859,3.04201 -0.24016,4.79153 -0.44001,4.99084 -0.34721,0.34627 -2.39419,0.57966 -2.99957,0.342 z m 21.51976,-0.0141 c -0.31512,-0.0615 -0.6384,-0.28232 -0.71841,-0.49082 -0.17332,-0.45168 7.1547,-22.04285 7.66746,-22.59126 0.20097,-0.21495 1.03836,-0.42886 1.93182,-0.49349 1.39008,-0.10055 1.65072,-0.0399 2.19821,0.5117 0.43564,0.4389 1.7054,3.79819 4.25177,11.24855 1.99685,5.84252 3.63064,10.81633 3.63064,11.0529 0,0.48773 -1.01024,0.94811 -2.06775,0.94231 -1.46709,-0.008 -1.98755,-0.54412 -2.82941,-2.91419 l -0.79611,-2.24129 h -4.22861 -4.22861 l -0.79611,2.24129 c -0.98222,2.76524 -1.62198,3.20094 -4.01489,2.7343 z m 11.51164,-9.04537 c 0.28484,-0.18053 0.10105,-1.00677 -0.92604,-4.16314 -0.70477,-2.16585 -1.39749,-3.91707 -1.53937,-3.89161 -0.14189,0.0254 -0.84101,1.79541 -1.55361,3.93321 -1.05217,3.15653 -1.22743,3.9301 -0.93265,4.11683 0.46781,0.29634 4.4855,0.30016 4.95167,0.005 z m 39.33214,8.85816 c -4.80481,-1.52355 -7.01146,-5.15394 -7.01146,-11.53526 0,-4.45439 1.01779,-7.38636 3.29163,-9.48232 2.05787,-1.89687 3.19099,-2.26436 7.02712,-2.27901 3.03879,-0.0116 3.42861,0.0442 4.80165,0.68798 3.78152,1.77291 5.51903,5.16186 5.56169,10.84792 0.0353,4.70712 -0.932,7.49276 -3.37824,9.72848 -1.09317,0.9991 -1.89188,1.46662 -3.19115,1.86792 -1.99893,0.61741 -5.42247,0.69661 -7.10124,0.16429 z m 6.42783,-4.19178 c 2.15403,-1.42546 3.31655,-5.41149 2.72947,-9.35873 -0.38767,-2.60654 -1.21763,-4.25333 -2.65137,-5.26079 -1.01917,-0.71615 -1.32965,-0.79375 -3.17585,-0.79375 -2.66784,0 -3.85032,0.70689 -4.95656,2.96307 -0.66199,1.35011 -0.76398,1.88944 -0.8474,4.48107 -0.14994,4.65764 0.88582,7.10801 3.52994,8.35108 1.48426,0.69779 4.01174,0.51808 5.37177,-0.38195 z m -35.1136,3.80924 c -0.38625,-0.72172 -0.39768,-21.56237 -0.0122,-22.28262 0.25587,-0.47808 0.60099,-0.51177 5.24364,-0.51177 5.52706,0 6.75952,0.22319 8.83921,1.60072 1.496,0.99091 2.65036,2.50481 3.40996,4.47204 0.68963,1.78601 0.96705,6.70845 0.51517,9.14078 -0.61262,3.29743 -2.46455,5.82494 -5.27375,7.19757 -1.46543,0.71603 -1.62033,0.73438 -6.96732,0.8251 -5.26534,0.0893 -5.47921,0.0729 -5.75469,-0.44182 z m 10.56725,-3.94283 c 1.09404,-0.57318 1.56371,-1.03644 2.21303,-2.18281 0.81003,-1.43012 0.82424,-1.51677 0.82424,-5.02708 0,-3.47023 -0.0225,-3.61247 -0.79013,-4.99857 -0.46853,-0.84597 -1.21404,-1.70752 -1.83159,-2.11666 -0.95765,-0.63446 -1.26666,-0.68998 -3.84008,-0.68998 h -2.79862 l -0.0704,7.53723 c -0.0387,4.14548 -0.0127,7.68759 0.0578,7.87135 0.09,0.23455 0.83138,0.33413 2.48756,0.33413 2.06076,0 2.53509,-0.0921 3.74812,-0.72761 z"
         id="path900"
         inkscape:export-filename="F:\Documentos\Projetos R\caixadeimoveis\themes\hugo-fresh\static\images\logos\ACHADO_branco.png"
         inkscape:export-xdpi="98.480003"
         inkscape:export-ydpi="98.480003" />
      <path
         style="fill:#5f5f5f;stroke-width:0.264583"
         d="m 71.741963,150.08612 c -3.866015,-3.85631 -7.172764,-7.01146 -7.348334,-7.01146 -0.175567,0 -0.952746,0.40526 -1.727065,0.90059 -3.153285,2.01713 -6.297882,2.90551 -10.24409,2.89405 -3.166991,-0.009 -5.266775,-0.53705 -8.432467,-2.1198 -6.323711,-3.16167 -10.36351,-9.82661 -10.348355,-17.07291 0.01747,-8.35062 5.233661,-15.71262 12.98613,-18.32826 2.866898,-0.96728 7.328365,-1.21548 10.112441,-0.56259 6.66432,1.56286 11.998619,6.68111 14.118259,13.54644 0.374706,1.21364 0.479489,2.41234 0.471745,5.39664 -0.0089,3.44183 -0.08289,4.05444 -0.718979,5.95553 -0.389964,1.16549 -1.189154,2.91514 -1.775981,3.88811 -0.586828,0.97298 -1.066959,1.95842 -1.066959,2.18989 0,0.23146 3.095625,3.56068 6.879167,7.39827 6.052259,6.1387 6.879166,7.07723 6.879166,7.80776 0,1.05249 -1.02513,2.12919 -2.027211,2.12919 -0.599583,0 -1.971011,-1.23954 -7.757467,-7.01145 z m -15.350739,-7.98218 c 5.062832,-1.39046 9.113438,-5.57577 10.445322,-10.79268 0.221427,-0.86732 0.402595,-2.53895 0.402595,-3.71473 0,-4.20218 -1.410412,-7.62218 -4.373261,-10.60441 -5.802733,-5.84066 -14.803453,-5.83094 -20.656714,0.0223 -2.970893,2.97089 -4.338775,6.30709 -4.338775,10.58208 0,4.2862 1.381291,7.65004 4.371305,10.64536 3.878141,3.88504 8.987748,5.27968 14.149528,3.86205 z m 85.766766,13.9353 c 0,-0.3638 0.0601,-0.51263 0.13346,-0.33073 0.0734,0.1819 0.0734,0.47956 0,0.66146 -0.0734,0.1819 -0.13346,0.0331 -0.13346,-0.33073 z m -25.44177,-0.79375 c 0,-0.14552 0.11906,-0.26458 0.26458,-0.26458 0.14552,0 0.26459,0.11906 0.26459,0.26458 0,0.14552 -0.11907,0.26458 -0.26459,0.26458 -0.14552,0 -0.26458,-0.11906 -0.26458,-0.26458 z m 14.02292,0 c 0,-0.14552 0.11906,-0.26458 0.26458,-0.26458 0.14552,0 0.26458,0.11906 0.26458,0.26458 0,0.14552 -0.11906,0.26458 -0.26458,0.26458 -0.14552,0 -0.26458,-0.11906 -0.26458,-0.26458 z M 82.673491,143.68461 c -0.315119,-0.0614 -0.638402,-0.28231 -0.71841,-0.49081 -0.173326,-0.45168 7.154699,-22.04285 7.667456,-22.59126 0.200972,-0.21495 1.038365,-0.42886 1.931818,-0.49349 1.390087,-0.10055 1.65072,-0.0399 2.198216,0.5117 0.43564,0.4389 1.7054,3.79819 4.25177,11.24855 1.996849,5.84252 3.630629,10.81632 3.630629,11.0529 0,0.48773 -1.01023,0.94811 -2.067739,0.94231 -1.46709,-0.008 -1.98755,-0.54412 -2.82941,-2.91419 l -0.79611,-2.24129 H 91.7131 87.484489 l -0.796112,2.24129 c -0.982221,2.76524 -1.621976,3.20094 -4.014886,2.73429 z m 11.51164,-9.04536 c 0.28483,-0.18053 0.10104,-1.00677 -0.926044,-4.16314 -0.704771,-2.16585 -1.39749,-3.91707 -1.539373,-3.89161 -0.141882,0.0254 -0.841004,1.79541 -1.553601,3.93321 -1.052179,3.15653 -1.227431,3.9301 -0.932656,4.11683 0.467809,0.29634 4.485504,0.30016 4.951674,0.005 z m 16.181089,8.80715 c -4.37337,-1.16362 -6.4789,-4.34971 -6.80389,-10.29562 -0.34522,-6.31608 1.48047,-10.29095 5.61327,-12.22115 1.49274,-0.69718 1.80069,-0.74143 5.15937,-0.74143 3.32604,0 3.67658,0.0491 5.09323,0.71297 1.20686,0.56558 1.52115,0.83905 1.52036,1.32291 -0.001,0.71334 -0.89973,2.28587 -1.42035,2.48565 -0.19799,0.076 -1.08652,-0.10661 -1.97451,-0.40576 -2.86635,-0.9656 -5.6639,-0.63936 -7.37114,0.8596 -1.45663,1.27893 -2.00082,2.77177 -2.14132,5.87422 -0.26303,5.80796 1.5616,8.7341 5.65093,9.06235 1.40893,0.11309 2.12086,0.005 3.99797,-0.60531 l 2.28379,-0.74291 0.63422,0.73732 c 0.94456,1.09812 0.7643,2.46439 -0.41573,3.15106 -2.05578,1.19627 -6.87415,1.59155 -9.8262,0.8061 z m 15.61042,0.25235 c -1.03621,-0.40678 -1.05834,-0.65216 -1.05834,-11.73659 0,-8.86381 0.0658,-10.83677 0.37555,-11.26037 0.29188,-0.39917 0.69543,-0.51359 1.81142,-0.51359 2.29605,0 2.31095,0.0326 2.31095,5.05444 0,4.2686 0.008,4.33021 0.59531,4.47501 0.32742,0.0807 2.50031,0.11279 4.82865,0.0712 l 4.23333,-0.0756 0.13229,-4.41896 c 0.0935,-3.1226 0.2332,-4.51974 0.47625,-4.7625 0.46001,-0.45945 3.02381,-0.44544 3.58413,0.0196 0.39421,0.32718 0.43754,1.45709 0.43754,11.41084 0,9.96003 -0.0431,11.08345 -0.43814,11.41083 -0.54783,0.45404 -3.14441,0.4581 -3.59754,0.006 -0.22774,-0.22742 -0.37093,-1.78033 -0.46224,-5.01308 l -0.13229,-4.6836 h -4.7625 -4.7625 l -0.13229,4.68396 c -0.0859,3.04201 -0.24016,4.79153 -0.44001,4.99084 -0.34721,0.34627 -2.39419,0.57966 -2.99957,0.342 z m 21.51976,-0.0141 c -0.31512,-0.0615 -0.6384,-0.28232 -0.71841,-0.49082 -0.17332,-0.45168 7.1547,-22.04285 7.66746,-22.59126 0.20097,-0.21495 1.03836,-0.42886 1.93182,-0.49349 1.39008,-0.10055 1.65072,-0.0399 2.19821,0.5117 0.43564,0.4389 1.7054,3.79819 4.25177,11.24855 1.99685,5.84252 3.63064,10.81633 3.63064,11.0529 0,0.48773 -1.01024,0.94811 -2.06775,0.94231 -1.46709,-0.008 -1.98755,-0.54412 -2.82941,-2.91419 l -0.79611,-2.24129 h -4.22861 -4.22861 l -0.79611,2.24129 c -0.98222,2.76524 -1.62198,3.20094 -4.01489,2.7343 z m 11.51164,-9.04537 c 0.28484,-0.18053 0.10105,-1.00677 -0.92604,-4.16314 -0.70477,-2.16585 -1.39749,-3.91707 -1.53937,-3.89161 -0.14189,0.0254 -0.84101,1.79541 -1.55361,3.93321 -1.05217,3.15653 -1.22743,3.9301 -0.93265,4.11683 0.46781,0.29634 19.87174,-2.94037 4.95167,0.005 z m 39.33214,8.85816 c -4.80481,-1.52355 -7.01146,-5.15394 -7.01146,-11.53526 0,-4.45439 1.01779,-7.38636 3.29163,-9.48232 2.05787,-1.89687 3.19099,-2.26436 7.02712,-2.27901 3.03879,-0.0116 3.42861,0.0442 4.80165,0.68798 3.78152,1.77291 5.51903,5.16186 5.56169,10.84792 0.0353,4.70712 -0.932,7.49276 -3.37824,9.72848 -1.09317,0.9991 -1.89188,1.46662 -3.19115,1.86792 -1.99893,0.61741 -5.42247,0.69661 -7.10124,0.16429 z m 6.42783,-4.19178 c 2.15403,-1.42546 3.31655,-5.41149 2.72947,-9.35873 -0.38767,-2.60654 -1.21763,-4.25333 -2.65137,-5.26079 -1.01917,-0.71615 -1.32965,-0.79375 -3.17585,-0.79375 -2.66784,0 -3.85032,0.70689 -4.95656,2.96307 -0.66199,1.35011 -0.76398,1.88944 -0.8474,4.48107 -0.14994,4.65764 0.88582,7.10801 3.52994,8.35108 1.48426,0.69779 4.01174,0.51808 5.37177,-0.38195 z m -35.1136,3.80924 c -0.38625,-0.72172 -0.39768,-21.56237 -0.0122,-22.28262 0.25587,-0.47808 0.60099,-0.51177 5.24364,-0.51177 5.52706,0 6.75952,0.22319 8.83921,1.60072 1.496,0.99091 2.65036,2.50481 3.40996,4.47204 0.68963,1.78601 0.96705,6.70845 0.51517,9.14078 -0.61262,3.29743 -2.46455,5.82494 -5.27375,7.19757 -1.46543,0.71603 -1.62033,0.73438 -6.96732,0.8251 -5.26534,0.0893 -5.47921,0.0729 -5.75469,-0.44182 z m 10.56725,-3.94283 c 1.09404,-0.57318 1.56371,-1.03644 2.21303,-2.18281 0.81003,-1.43012 0.82424,-1.51677 0.82424,-5.02708 0,-3.47023 -0.0225,-3.61247 -0.79013,-4.99857 -0.46853,-0.84597 -1.21404,-1.70752 -1.83159,-2.11666 -0.95765,-0.63446 -1.26666,-0.68998 -3.84008,-0.68998 h -2.79862 l -0.0704,7.53723 c -0.0387,4.14548 -0.0127,7.68759 0.0578,7.87135 0.09,0.23455 0.83138,0.33413 2.48756,0.33413 2.06076,0 2.53509,-0.0921 3.74812,-0.72761 z"
         id="path898"
         sodipodi:nodetypes="ssscssssssssssssssssssssssssssssssssssscsssssscscccsccssssccssssscsssssccssscsssssscssssscscccssccssssssssscccsscssssccssssssssssssssssssssssssssssssssscsssss"
         inkscape:export-filename="F:\Documentos\Projetos R\caixadeimoveis\themes\hugo-fresh\static\images\logos\ACHADO_branco.png"
         inkscape:export-xdpi="98.480003"
         inkscape:export-ydpi="98.480003" />
      <g
         id="g1144"
         transform="translate(9.5006956,33.458971)"
         inkscape:export-filename="F:\Documentos\Projetos R\caixadeimoveis\themes\hugo-fresh\static\images\logos\ACHADO_branco.png"
         inkscape:export-xdpi="98.480003"
         inkscape:export-ydpi="98.480003"
         style="fill:#ffffff">
        <path
           style="fill:#ffffff;stroke-width:0.264583"
           d="m 69.24782,123.05758 c -0.291041,-0.16519 -3.583773,-3.40602 -7.317182,-7.20185 l -6.788015,-6.9015 -0.75261,0.44708 c -5.396293,3.20558 -6.442858,3.52576 -11.468235,3.50847 -3.627107,-0.0125 -3.953515,-0.0576 -5.981591,-0.82766 -1.179825,-0.44796 -2.839064,-1.25837 -3.687199,-1.80091 -10.21841,-6.53664 -11.782971,-21.047998 -3.190386,-29.590947 2.239658,-2.22672 4.500023,-3.624816 7.435218,-4.598876 1.836322,-0.609397 2.572229,-0.704869 5.55625,-0.720837 2.927032,-0.01566 3.712784,0.07311 5.27295,0.595728 7.918233,2.652409 12.892818,9.087673 13.29418,17.197729 0.209463,4.2325 -0.644329,7.613733 -2.84308,11.259313 -0.590865,0.97966 -1.036743,1.88796 -0.990841,2.01844 0.0459,0.13048 3.208848,3.4524 7.02877,7.38203 4.592053,4.72395 6.945313,7.33227 6.945313,7.69808 0,0.61406 -1.106178,1.85667 -1.641621,1.84411 -0.188515,-0.004 -0.580879,-0.14321 -0.871921,-0.3084 z M 46.468251,109.09302 c 2.907125,-0.74352 5.01968,-1.95454 7.169152,-4.10972 6.639214,-6.656838 5.743179,-17.871145 -1.861513,-23.297738 -5.168598,-3.688236 -12.117739,-3.733628 -17.273566,-0.112832 -2.162228,1.518473 -3.680056,3.306207 -4.929167,5.805684 -1.124955,2.251046 -1.563518,4.14697 -1.563518,6.759149 0,4.291494 1.468541,7.868757 4.454993,10.852057 3.95854,3.95436 8.911591,5.40572 14.003619,4.1034 z m 54.668279,0.62768 c -4.102861,-1.10253 -6.032052,-3.66664 -6.698037,-8.90241 -0.217546,-1.710265 -0.216225,-2.935079 0.0051,-4.688156 0.54007,-4.278682 2.241589,-6.877457 5.49594,-8.39408 1.479417,-0.689449 1.812687,-0.738844 4.894797,-0.725461 3.46595,0.01505 5.56421,0.511518 6.15857,1.457184 0.30112,0.479097 -0.41029,2.232189 -0.99722,2.457416 -0.19472,0.07472 -0.9607,-0.09466 -1.70219,-0.37641 -1.96154,-0.745323 -5.08011,-0.706321 -6.64044,0.08305 -2.620098,1.325507 -3.574514,3.80528 -3.383657,8.791446 0.09994,2.610981 0.193824,3.070811 0.890927,4.363731 1.16777,2.16588 2.48026,2.97405 5.07371,3.12418 1.74674,0.10112 2.3706,0.0124 4.04477,-0.57509 l 1.97949,-0.69466 0.60983,0.69584 c 0.38097,0.4347 0.57956,0.95455 0.52917,1.38518 -0.22198,1.89684 -6.26131,3.07298 -10.26071,1.99824 z m 87.85678,0.0189 c -3.52538,-0.98477 -5.88879,-3.80507 -6.6681,-7.95711 -0.41663,-2.219771 -0.14039,-6.754819 0.52646,-8.64296 0.66237,-1.87543 1.91399,-3.660614 3.18139,-4.537607 1.77849,-1.230643 3.11743,-1.571593 6.24601,-1.590508 2.60314,-0.01574 3.06534,0.05507 4.3777,0.670615 3.83415,1.798363 5.53636,5.125437 5.53636,10.821165 0,7.438305 -3.17327,11.287875 -9.51718,11.545545 -1.46366,0.0594 -2.74958,-0.0485 -3.68264,-0.30914 z m 5.47707,-3.18065 c 2.59374,-1.08346 4.0264,-3.93877 4.0264,-8.024648 0,-5.39034 -2.29274,-8.497771 -6.26986,-8.497771 -4.13368,0 -6.26672,2.831187 -6.27917,8.334375 -0.01,4.382424 1.16127,6.959814 3.68322,8.105514 1.30717,0.59384 3.52485,0.63166 4.83941,0.0825 z m -121.650685,2.8174 c 0,-0.61764 7.114218,-21.453025 7.488063,-21.930264 0.18478,-0.235884 0.846839,-0.317704 2.140906,-0.264584 l 1.873403,0.0769 3.634192,10.583333 c 1.998806,5.820835 3.667258,10.880995 3.70767,11.244795 0.06972,0.62761 -0.0021,0.66545 -1.405572,0.73955 -1.781697,0.0941 -1.842183,0.0351 -2.814437,-2.74381 l -0.733599,-2.09678 h -4.489633 -4.489635 l -0.475957,1.32292 c -0.261776,0.7276 -0.662305,1.82893 -0.890063,2.44739 l -0.414105,1.12448 h -1.565616 c -1.363097,0 -1.565617,-0.0652 -1.565617,-0.50393 z m 12.38113,-8.27059 c 0.134596,-0.70294 -2.599224,-8.952562 -2.966768,-8.952562 -0.307371,0 -3.064362,7.899162 -3.064362,8.779822 0,0.69372 0.319871,0.76334 3.158234,0.68745 2.35359,-0.0629 2.801765,-0.14323 2.872896,-0.51471 z m 30.866955,8.44363 c -0.0698,-0.182 -0.0959,-5.27192 -0.0578,-11.310942 l 0.0691,-10.980042 1.42684,-0.08128 c 0.79953,-0.04555 1.55564,0.04712 1.7198,0.210781 0.17927,0.178731 0.34428,2.006954 0.42524,4.711491 l 0.13229,4.419428 4.87541,0.07229 c 3.20336,0.0475 4.9728,-0.02479 5.15938,-0.21078 0.16803,-0.167505 0.33797,-2.087353 0.41625,-4.702503 l 0.13229,-4.419428 1.44717,-0.08199 c 1.13725,-0.06443 1.51973,0.01722 1.78594,0.381299 0.49215,0.673052 0.49215,21.217916 0,21.890966 -0.26621,0.36407 -0.64869,0.44573 -1.78594,0.3813 l -1.44717,-0.082 -0.13229,-4.68396 c -0.0792,-2.8044 -0.24624,-4.79757 -0.41625,-4.96709 -0.18661,-0.18606 -1.95542,-0.258342 -5.15938,-0.210831 l -4.87541,0.07229 -0.13229,4.630201 c -0.0728,2.54662 -0.22862,4.77904 -0.34635,4.96094 -0.28839,0.44559 -3.06582,0.44545 -3.23682,-1.6e-4 z m 21.57483,-0.17304 c 0,-0.61764 7.11422,-21.453025 7.48807,-21.930264 0.18478,-0.235884 0.84683,-0.317704 2.1409,-0.264584 l 1.8734,0.0769 3.6342,10.583333 c 1.9988,5.820835 3.66725,10.880995 3.70767,11.244795 0.0697,0.62761 -0.002,0.66545 -1.40558,0.73955 -1.78169,0.0941 -1.84218,0.0351 -2.81443,-2.74381 l -0.7336,-2.09678 h -4.48963 -4.48964 l -0.47596,1.32292 c -0.26177,0.7276 -0.6623,1.82893 -0.89006,2.44739 l -0.4141,1.12448 h -1.56562 c -1.3631,0 -1.56562,-0.0652 -1.56562,-0.50393 z m 12.38113,-8.27059 c 0.1346,-0.70294 -2.59922,-8.952562 -2.96676,-8.952562 -0.30738,0 -3.06437,7.899162 -3.06437,8.779822 0,0.69372 0.31987,0.76334 3.15824,0.68745 2.35359,-0.0629 2.80176,-0.14323 2.87289,-0.51471 z m 10.39498,8.28635 c -0.38639,-0.72198 -0.39819,-21.033805 -0.0127,-21.754223 0.25503,-0.476522 0.59799,-0.511773 4.97907,-0.511773 5.28203,0 6.56629,0.2451 8.67761,1.656112 2.45695,1.64201 3.71264,4.338161 3.98036,8.546396 0.19139,3.008468 -0.22782,5.577678 -1.25644,7.700378 -0.91477,1.88774 -2.13958,3.06118 -4.207,4.03054 -1.39723,0.65513 -1.71569,0.69226 -6.67086,0.77796 -5.00048,0.0865 -5.21476,0.0691 -5.4901,-0.44539 z m 9.97458,-3.09774 c 2.16657,-0.90503 3.34935,-2.72089 3.77754,-5.79948 0.31742,-2.282144 -0.0102,-5.451403 -0.70625,-6.831268 -0.61108,-1.211498 -1.65824,-2.26682 -2.88135,-2.903821 -1.36595,-0.711393 -6.06832,-0.852106 -6.48653,-0.194103 -0.39131,0.61568 -0.33781,15.427122 0.0572,15.822082 0.48233,0.48233 5.02393,0.41434 6.23944,-0.0934 z"
           id="path896" />
      </g>
    </g>
  </g>
</svg>
